<?xml version="1.0"?><svg xmlns="http://www.w3.org/2000/svg" width="52" height="52" viewBox="0 0 52 52"><path fill="#fff" d="m34.7 31l-0.4 0.1c-1.5 0.5-3.1-0.2-3.7-1.7l-3.3-8.8c-2.6-7-10.5-10.4-17.4-7.5-6.5 2.7-9.4 10.3-7 16.9l3.1 8.5c0.5 1.5-0.3 3.1-1.7 3.6l-0.4 0.1c-1.7 0.6-2.5 2.6-1.9 4.3l0.4 1.1c0.2 0.5 0.9 0.9 1.5 0.6l34.4-12.7c0.6-0.2 0.9-1 0.7-1.6l-0.4-1.1c-0.3-1.6-2.2-2.5-3.9-1.8z m-8.4 12.6l-7.5 2.8c-0.5 0.2-0.7 0.8-0.4 1.2 1.2 2 3.7 2.8 5.9 2 2.2-0.8 3.5-3.1 3.2-5.3-0.2-0.5-0.8-0.8-1.2-0.7z m22.9-15c1.7-5.7 0.8-11.8-2.3-16.8-3.1-5.1-8.2-8.6-14-9.7-0.5-0.1-0.9 0.2-0.9 0.6l-0.5 2.8c-0.1 0.4 0.2 0.7 0.6 0.8 4.5 0.9 8.5 3.7 11 7.7s3.1 8.8 1.9 13.3c-0.1 0.4 0.1 0.8 0.5 0.9l2.7 0.9c0.5 0 0.9-0.1 1-0.5z m-11-11.6c-1.6-2.6-4.2-4.3-7.2-4.9-0.4-0.1-0.8 0.2-0.9 0.6l-0.3 2.9c0 0.4 0.2 0.7 0.6 0.8 1.7 0.4 3.2 1.4 4.1 2.9 0.9 1.5 1.2 3.3 0.7 4.9-0.1 0.3 0.1 0.7 0.4 0.8l2.7 1.1c0.4 0.2 0.8-0.1 1-0.5 0.9-2.9 0.5-6-1.1-8.6z"></path></svg>