<?xml version="1.0"?><svg xmlns="http://www.w3.org/2000/svg" width="52" height="52" viewBox="0 0 52 52"><path fill="#fff" d="m26.2 18.1l11.1-11.1c0.6-0.6 0.6-1.5 0-2.1l-2.4-2.4c-0.6-0.6-1.5-0.6-2.1 0l-11.1 11.1 4.5 4.5z m12.2 12.6l11.1-11.1c0.6-0.6 0.6-1.5 0-2.1l-2.4-2.4c-0.6-0.6-1.5-0.6-2.1 0l-11.1 11.1 4.5 4.5z m-1.6 9.2c0.2-0.2 0.3-0.5 0.4-0.8 0.1-0.4 0-0.8-0.2-1.1-0.1-0.1-0.1-0.2-0.2-0.2l-22.5-22.5c-0.2-0.3-0.7-0.4-1.1-0.4-0.4 0-0.8 0.2-1.1 0.5-0.2 0.2-0.4 0.3-0.6 0.5-0.1 0.1-0.2 0.3-0.3 0.4-0.1 0.2-0.3 0.3-0.4 0.5-0.1 0.2-0.3 0.4-0.4 0.6-0.2 0.2-0.3 0.5-0.4 0.8-0.2 0.3-0.3 0.6-0.4 0.9-0.2 0.3-0.3 0.7-0.4 1.1-0.2 0.4-0.3 0.8-0.4 1.2-0.1 0.5-0.3 0.9-0.4 1.4-0.1 0.5-0.2 1-0.3 1.6-0.1 0.6-0.2 1.2-0.3 1.7-0.1 0.6-0.2 1.3-0.2 1.9-0.1 0.7-0.1 1.4-0.1 2.2v2.4c0 0.9 0 1.7 0.1 2.6 0 0.9 0.1 1.9 0.2 2.8 0 0.3 0.1 0.5 0.1 0.8h0.1l-5.2 5.2c-0.8 0.4-0.8 1.4-0.3 2l3.7 3.7c0.6 0.6 1.5 0.6 2.1 0l5.2-5.2c1.9 0.2 3.7 0.3 5.6 0.3 1.6 0 3.1 0 4.7-0.1 1.3-0.1 2.6-0.2 3.8-0.5 1-0.2 2-0.4 3-0.7 0.8-0.2 1.6-0.5 2.3-0.9 0.6-0.3 1.2-0.6 1.7-0.9 0.7-0.4 1.4-1 2-1.6l0.2-0.2z"></path></svg>