<?xml version="1.0"?><svg xmlns="http://www.w3.org/2000/svg" width="52" height="52" viewBox="0 0 52 52"><path fill="#fff" d="m32 12c1.5 0 3 1.1 3 4.1v9.9c0 1.5 1.4 2.1 2 2.3l6.8 2.5c2.9 1.1 4.7 4.2 3.9 7.4l-3.2 10.4c-0.2 0.8-0.9 1.4-1.8 1.4h-16.1c-0.8 0-1.5-0.4-1.8-1.1l-6.4-14.9c-0.5-1-0.2-1.8 0.8-2.4 1.8-1.3 4.5 0 5.6 1.9l1.6 2.2c0.7 1.3 2.6 1.3 2.6-0.6v-19c0-3 1.5-4.1 3-4.1z m14-10c2.2 0 4 1.8 4 4v15c0 1.9-1.8 4-4 4h-6c-1 0-1-0.8-1-0.9v-8.6c0-3.8-2-7.5-7-7.5s-7 3.2-7 7.5v8.6c0 0.3-0.3 0.9-1 0.9h-18c-2.2 0-4-1.8-4-4v-15c0-2.2 1.8-4 4-4z"></path></svg>