<?xml version="1.0"?><svg xmlns="http://www.w3.org/2000/svg" width="52" height="52" viewBox="0 0 52 52"><path fill="#fff" d="m45 2h-38c-2.8 0-5 2.2-5 5v38c0 2.7 2.2 5 5 5h38c2.7 0 5-2.2 5-5v-38c0-2.8-2.2-5-5-5z m-2.4 39.4c-0.1 0.6-0.7 1.1-1.4 1.1h-31c-0.6 0-1.1-0.6-1.1-1.3v-30.6c0-0.6 0.6-1.1 1.3-1.1h31c0.6 0 1.1 0.6 1.1 1.3v30.6z m-9.6-19c1 0 3.1-0.8 3.1-3.6s-2-2.9-2.6-2.9c-1.2 0-2.4 0.9-3.5 2.7-1.1 1.9-2.3 3.9-2.3 3.9-0.3-1.3-0.5-2.4-0.6-2.9-0.2-1.1-1.5-3.6-4.3-3.6-2.7 0-5.2 1.6-5.2 1.6-0.5 0.3-0.8 0.8-0.8 1.4 0 0.9 0.7 1.7 1.7 1.7 0.3 0 0.5-0.1 0.7-0.2 0 0 2.1-1.2 2.5 0 0.1 0.3 0.2 0.7 0.4 1.1 0.5 1.8 1 3.9 1.4 5.8l-1.8 2.6s-2-0.7-3.1-0.7-3.1 0.8-3.1 3.6 2 2.9 2.6 2.9c1.2 0 2.4-0.9 3.5-2.7 1.1-1.9 2.3-3.9 2.3-3.9 0.4 1.7 0.6 3.1 0.8 3.6 0.7 1.9 2.2 3.1 4.3 3.1 0 0 2.1 0 4.7-1.4 0.6-0.2 1-0.8 1-1.5 0-0.9-0.7-1.7-1.7-1.7-0.3 0-0.5 0.1-0.7 0.2 0 0-1.8 1-2.4 0.2-0.4-0.8-0.8-2-1.1-3.3-0.3-1.2-0.6-2.7-0.8-4.1l1.8-2.6c0.2 0 2.2 0.7 3.2 0.7z"></path></svg>