<?xml version="1.0"?><svg xmlns="http://www.w3.org/2000/svg" width="52" height="52" viewBox="0 0 52 52"><g fill="#fff"><path d="m50 5.4c0-3.4-2.8-3.4-2.8-3.4h-42.3c-0.5 0.1-2.9 0.3-2.9 3v14.2c0.1 0.6 0.6 2.8 3 2.8h42.2c3.1 0 2.8-2.7 2.8-2.7v-13.9z m-0.9 29.9c-0.6-0.1-1.2-0.1-1.8-0.2-0.1 0-0.2-0.1-0.2-0.2-0.2-0.7-0.6-1.4-0.8-1.9v-0.3c0.3-0.5 0.8-1 1.1-1.5 0.2-0.3 0.2-0.7-0.1-1l-2-2c-0.1-0.1-0.3-0.2-0.5-0.2-0.1 0-0.3 0.1-0.5 0.2-0.5 0.3-1 0.8-1.5 1.1-0.1 0-0.1 0.1-0.1 0.1h-0.1c-0.7-0.2-1.2-0.6-1.9-0.8-0.1 0-0.2-0.1-0.2-0.2-0.1-0.6-0.1-1.1-0.2-1.7 0-0.3-0.1-0.6-0.5-0.8-0.1-0.1-0.2-0.1-0.2-0.1h-2.9c-0.2 0-0.3 0-0.5 0.1-0.2 0.2-0.5 0.5-0.5 0.8 0 0.6-0.1 1.1-0.2 1.7 0 0.1-0.1 0.2-0.2 0.2-0.7 0.2-1.2 0.6-1.9 0.8h-0.1c-0.1 0-0.1 0-0.2-0.1-0.5-0.3-0.9-0.8-1.5-1.1-0.1-0.1-0.2-0.2-0.5-0.2s-0.3 0.1-0.6 0.2l-2 2c-0.3 0.3-0.3 0.7-0.1 1 0.3 0.5 0.8 0.9 1.1 1.5 0.1 0.1 0.1 0.2 0 0.3-0.2 0.7-0.6 1.2-0.8 1.9 0 0.1-0.1 0.2-0.2 0.2-0.6 0.1-1.1 0.1-1.7 0.2-0.3 0-0.7 0.2-0.8 0.6v3.4c0.2 0.3 0.5 0.5 0.8 0.6 0.6 0 1.1 0.1 1.7 0.2 0.1 0 0.2 0.1 0.2 0.2 0.2 0.7 0.6 1.2 0.8 1.9 0 0.1 0.1 0.2 0 0.3-0.3 0.5-0.8 1-1.1 1.5-0.2 0.3-0.2 0.7 0.1 1l2 2c0.2 0.2 0.3 0.2 0.6 0.2 0.1 0 0.3-0.1 0.5-0.2 0.5-0.3 0.9-0.8 1.5-1.1 0.1 0 0.1-0.1 0.2-0.1h0.1c0.7 0.2 1.2 0.6 1.9 0.8 0.1 0 0.2 0.1 0.2 0.2 0.1 0.6 0.1 1.2 0.2 1.8 0 0.5 0.3 0.7 0.8 0.7h2.9s0.7-0.2 0.8-0.7c0.1-0.6 0.1-1.2 0.2-1.8 0-0.1 0.1-0.2 0.2-0.2 0.7-0.2 1.4-0.6 1.9-0.8h0.1s0.1 0 0.1 0.1c0.5 0.3 1 0.8 1.5 1.1 0.1 0.1 0.3 0.2 0.5 0.2s0.3-0.1 0.6-0.2l2-2c0.3-0.3 0.3-0.7 0.1-1-0.3-0.5-0.8-0.9-1.1-1.5-0.1-0.1-0.1-0.2 0-0.3 0.2-0.7 0.6-1.2 0.8-1.9 0-0.1 0.1-0.2 0.2-0.2 0.6-0.1 1.2-0.1 1.8-0.2 0.5 0 0.7-0.3 0.7-0.8v-2.8c0-0.7-0.2-0.9-0.7-1z m-11.1 6.8c-2.6 0-4.5-2-4.5-4.5s2-4.5 4.5-4.5 4.5 2 4.5 4.5c-0.1 2.4-2.1 4.5-4.5 4.5z m-14.6-14.3c-0.1-1.6-1.5-1.8-1.9-1.8h-17.7c-0.5 0-1.8 0.2-1.8 2v20.6c0.1 0.5 0.4 1.4 2 1.4h17.5c2 0 2-2.3 2-2.3v-2.4c0-1 0.2-2.1-0.4-3.1-0.1-0.2-0.2-0.3-0.3-0.5s-0.2-0.3-0.3-0.5c-0.6-0.9-0.5-2-0.5-3.1 0-1 0-2.1 0.5-3 0.2-0.4 0.5-0.8 0.7-1.2 0.4-0.6 0.4-1.4 0.4-2.1l-0.2-4z"></path></g></svg>