<?xml version="1.0"?><svg xmlns="http://www.w3.org/2000/svg" width="52" height="52" viewBox="0 0 52 52"><path fill="#fff" d="m49.1 7.7c-0.3-0.3-0.6-0.4-1-0.4-3.8-0.2-7.7 0.1-11.5 0.2h-13.5c-4.1 0-7.4 0.9-10.5 3.7-2 1.8-3.9 4.4-5.4 6.7-0.1 0.3-0.2 0.5-0.2 0.9 0 0.8 0.7 1.5 1.5 1.5 0.9 0 1.1-0.6 1.5-1.2 0.4-0.7 0.9-1.3 1.5-1.8 2.1-1.9 4.9-3 7.7-2.7-2.4 6.6-5.7 14.2-10.5 19.4-2 2.2-5.4 4.4-6.1 7.4-0.8 3.1 2.4 3.9 4.7 3 3-1.2 4.9-4.3 6.4-7 1.9-3.3 3.6-6.8 5-10.3 1.5-3.5 2.9-6.9 4.4-10.4 0.9-2.1 1.1-2.1 3.3-2.1h5.9c-2.2 4.8-4.3 9.7-6.2 14.6-1.5 3.7-4.2 9.2-2.3 13.2 1.9 4 7.2 2.5 10.1 0.5 2.9-2.1 4.9-5.4 6.5-8.6 0.3-0.6 0.6-1.2 0.4-1.9-0.2-0.6-0.8-0.9-1.4-0.9-1.4 0-1.6 1.6-2.1 2.6-0.8 1.7-2.6 3.2-4.5 2.9-4.4-0.6-0.5-8.6 0.3-10.7 0.8-2.2 1.7-4.4 2.7-6.5 0.5-1.2 1-2.5 1.7-3.7 0.8-1.5 0.8-1.5 2.6-1.6 1.5-0.1 5.9 0.7 7.2-0.1 1.1-0.7 1.7-3.3 2.2-5.2 0.1-0.6-0.1-1.1-0.4-1.5z"></path></svg>