<?xml version="1.0"?><svg xmlns="http://www.w3.org/2000/svg" width="52" height="52" viewBox="0 0 52 52"><path fill="#fff" d="m50 20.5c0-1.2-1-2.2-2.2-2.2h-14.1c-1.2 0-2.2 1-2.2 2.2v23.7c0 1.2 1 2.2 2.2 2.2h14.1c1.2 0 2.2-1 2.2-2.2v-23.7z"></path><g fill="#fff"><path d="m27.7 29.4h-19.3c-0.7 0-1.3-0.7-1.3-1.3v-16.2c0-0.7 0.7-1.3 1.3-1.3h28.1c0.7 0 1.3 0.7 1.3 1.3v2.5h5.1v-5.4c0-1.8-1.6-3.4-3.4-3.4h-34.1c-1.8 0-3.4 1.6-3.4 3.4v22.2c0 1.8 1.6 3.4 3.4 3.4h22.3v-5.2z m0 14.8v-3h-1.9c-0.5 0-0.9-0.4-0.9-0.9v-1.7c0-0.5-0.4-0.9-0.9-0.9h-3.4c-0.5 0-0.9 0.4-0.9 0.9v1.7c0 0.5-0.4 0.9-0.9 0.9h-2.6c-1.8 0-3.4 1.6-3.4 3.4v0.4c0 0.7 0.7 1.3 1.3 1.3h14.1c-0.4-0.6-0.5-1.3-0.5-2.1z"></path></g><circle fill="#fff" cx="40.8" cy="43.8" r="1.6"></circle><path fill="#fff" d="m46.7 40.2c0 0.4-0.4 0.9-0.9 0.9h-10.2c-0.4 0-0.9-0.4-0.9-0.9v-16.7c0-0.4 0.4-0.9 0.9-0.9h10.2c0.4 0 0.9 0.4 0.9 0.9v16.7z"></path></svg>