<?xml version="1.0"?><svg xmlns="http://www.w3.org/2000/svg" width="52" height="52" viewBox="0 0 52 52"><path fill="#fff" d="m20.8 43v-0.3c-7.1-2.3-12.3-8.8-12.3-16.7 0-9.6 7.9-17.5 17.5-17.5s17.5 7.9 17.5 17.5c0 1.6-0.2 3.2-0.6 4.7 0.2 0.2 0.5 0.3 0.7 0.5 0.3 0 0.6-0.1 0.9-0.1 1.6 0 3.2 0.5 4.4 1.2 0.6-2 0.9-4.1 0.9-6.3-0.1-13.2-10.8-23.9-23.9-23.9s-23.8 10.7-23.8 23.8c0 12.6 9.8 22.9 22.2 23.7-2-1.4-3.5-3.9-3.5-6.6z m10.5-14.2c1.5 0 2.9 0.4 4.2 1 0.3-0.1 0.6-0.2 1-0.2 0.4-1.1 0.6-2.3 0.6-3.6 0-6.1-4.9-11-11-11s-11 4.9-11 11c0 4.9 3.2 9 7.6 10.5 0.4-4.4 4.1-7.7 8.6-7.7z m3.9 5.8c0.8-0.8 1.9-1.3 3.2-1.3 1.7 0 3.1 0.9 3.9 2.2 0.6-0.2 1.4-0.5 2.2-0.5 2.9 0 5.4 2.5 5.4 5.3 0 2.9-2.5 5.3-5.4 5.3-0.3 0-0.7 0-1-0.1-0.6 1.2-2 2-3.4 2-0.6 0-1.2-0.2-1.7-0.4-0.7 1.6-2.3 2.7-4.1 2.7-2 0-3.6-1.2-4.2-2.9-0.2 0-0.6 0.1-0.9 0.1-2.3 0-4.2-1.8-4.2-4.1 0-1.5 0.8-2.9 2.1-3.6-0.2-0.6-0.4-1.2-0.4-1.9 0-2.6 2.2-4.8 4.8-4.8 1.4 0.1 2.8 0.9 3.7 2z"></path></svg>