<?xml version="1.0"?><svg xmlns="http://www.w3.org/2000/svg" width="52" height="52" viewBox="0 0 52 52"><g fill="#fff"><path d="m25.8 26.7c-1.2 0.1-2.3-0.4-3.5-0.8-6.3-2.1-12.7-4.2-19-6.3-0.4-0.2-0.7-0.3-1-0.6-0.4-0.3-0.4-0.7 0-1 0.3-0.2 0.7-0.5 1.1-0.6 6.8-2 13.5-4 20.3-6.1 1.5-0.5 3.1-0.5 4.7 0l20.1 6c0.4 0.2 0.8 0.3 1.2 0.6 0.5 0.3 0.5 0.8 0 1.1-0.3 0.2-0.6 0.4-1 0.5-6.7 2.2-13.4 4.5-20.2 6.7-0.9 0.4-1.7 0.5-2.7 0.5z m-13.3 0.3c-1-0.2-1.2 0.4-1.2 0.9v7.6c0 0.9 0.3 1.4 0.9 2 0.2 0.2 0.5 0.4 0.7 0.6 1.6 1.1 3.5 1.8 5.4 2.3 3.8 1 7.6 1.2 11.5 0.7 2.5-0.3 5-1 7.3-2 1-0.5 2-1 2.7-1.8 0.5-0.5 0.7-1 0.6-1.7 0.1-2.4 0.1-4.9 0.1-7.4 0-1.4-1-1.2-1.4-1.1-3.5 1.2-7.2 2.3-10.7 3.5-1.8 0.6-3.5 0.6-5.2 0l-10.7-3.6z m33.4-2.3c-0.3 0.1-0.4 0.2-0.4 0.6v6.8c0 0.2-0.1 0.5-0.2 0.7-0.5 1.2-1 2.4-1.4 3.6-0.4 1.1-0.2 2.3 0.6 3.1 0.2 0.3 0.6 0.6 0.9 0.8 0.3 0.3 0.8 0.4 1.2 0.5 0.7 0.1 1.3-0.3 1.8-0.7 0.2-0.2 0.5-0.4 0.7-0.7 0.6-0.8 0.7-1.8 0.5-2.7-0.3-1.4-0.9-2.6-1.5-3.8-0.2-0.2-0.2-0.6-0.2-0.8v-7.4c0-0.5-0.4-0.4-0.6-0.3l-1.4 0.3z"></path></g></svg>