<?xml version="1.0"?><svg xmlns="http://www.w3.org/2000/svg" width="52" height="52" viewBox="0 0 52 52"><title></title><path d="m28.7 42.1c7.2 0.2 7.4 1.6 7.4 7.2v0.7c-2.8 0-2.8-2.3-4-2.3 0 0.8-0.7 1.5-2 2.3-0.8-1.5-1.4-2.3-2-2.3 0 0.7-0.6 1.4-1.8 2.2l-0.3 0.1c-1.3-0.8-2-1.5-2-2.3-0.6 0-1.3 0.8-2 2.3-1.3-0.8-2-1.5-2-2.3-1.3 0-1.3 2.3-4 2.3v-0.9c0-5.3 0.4-6.7 6.9-7v0.4a3 3 0 0 0 6 0 0.4 0.4 0 0 1-0.2-0.4z m1.5-35.3c3 3.6 2.4 5.3 2.5 6.4a11.9 11.9 0 0 1 7.8 0.8c1.8 0.9 2.9 2.3 3 3.3a4.7 4.7 0 0 0-3 1.5 14.9 14.9 0 0 1 6.1 3.9 17.1 17.1 0 0 1 3.3 5.6 0.8 0.8 0 0 1 0 0.8 22.9 22.9 0 0 1-3.1 2.8 41.4 41.4 0 0 1-4.1 2.7c1.6 1 2.4 1.9 2.5 2.9-1.7 0.5-2.7 0.9-3.8 1.3-0.5 0.2-1.5 0.5-2.6 0.9 1.6-10.5-5-11.5-8-11.5-2.1 0-3.3 1.7-5.1 1.7s-2.9-1.7-5.1-1.7-8.4 1.8-7.3 10.8a12.7 12.7 0 0 1-1.8-0.7 21.2 21.2 0 0 0-5-0.9 0.5 0.5 0 0 1-0.6-0.4 0.4 0.4 0 0 1 0-0.1v-0.3a10 10 0 0 1 2.4-4.3c0.7-0.7 2-1.6 2.5-1.5a8.7 8.7 0 0 0-3.4-3.1 19.5 19.5 0 0 0-4.8-1.3c-0.5-0.1-0.8-0.1-0.5-1 1.7-4.3 3.7-7 6.1-8.2a11.3 11.3 0 0 1 6-1.5 9 9 0 0 0-1-2.5 12.9 12.9 0 0 0-1.2-2 0.8 0.8 0 0 1 0.1-1c0.1 0 0.2-0.1 0.3-0.1a6.6 6.6 0 0 1 3.1 0.2 8.1 8.1 0 0 1 3.9 2.7 36.3 36.3 0 0 0-1.4-10.2c-0.1-2.2 9.2 0.4 12.2 4z m-7.5 27.3c0.8 0 1.5 1.1 1.5 2.5s-0.7 2.5-1.5 2.5-1.5-1.1-1.5-2.5 0.7-2.5 1.5-2.5z m6.6 0c0.8 0 1.5 1.1 1.5 2.5s-0.7 2.5-1.5 2.5-1.5-1.1-1.5-2.5 0.6-2.5 1.5-2.5z" fill="#fff"></path></svg>