<?xml version="1.0"?><svg xmlns="http://www.w3.org/2000/svg" width="52" height="52" viewBox="0 0 52 52"><path fill="#fff" d="m24.6 40.6c0-2.8 0.7-5.4 2-7.7h-2.3c-0.5 0-0.8-0.3-0.8-0.8v-9.2c0-0.5 0.3-0.8 0.8-0.8h9.2c0.5 0 0.8 0.3 0.8 0.8v3c1.9-0.8 4.1-1.3 6.3-1.3 1.5 0 2.9 0.2 4.2 0.6 0.2-1.1 0.3-2.2 0.3-3.3-0.1-11-9.6-19.8-21.5-19.8s-21.4 8.8-21.4 19.6c0 3.4 1 6.6 2.6 9.5 0.3 0.4 0.4 1 0.2 1.5l-2.8 7.6c-0.3 0.7 0.4 1.3 1.2 1.2l7.7-3c0.4-0.2 1-0.1 1.5 0.2 3.2 1.8 7.1 2.9 11.2 2.9h0.8v-1z m-11.8-28.4c0-0.5 0.3-0.8 0.8-0.8h19.9c0.5 0 0.8 0.3 0.8 0.8v4.6c0 0.5-0.4 0.8-0.9 0.8h-19.8c-0.5 0-0.8-0.3-0.8-0.8v-4.6z m6.2 19.9c0 0.5-0.4 0.8-0.9 0.8h-4.6c-0.5 0-0.8-0.3-0.8-0.8v-9.2c0-0.5 0.3-0.8 0.8-0.8h4.7c0.5 0 0.8 0.3 0.8 0.8v9.2z m12.8 2.5l6 6-6 6c-0.6 0.6-0.6 1.6 0 2.1l0.7 0.7c0.6 0.6 1.6 0.6 2.1 0l6-6 6 6c0.6 0.6 1.6 0.6 2.1 0l0.7-0.7c0.6-0.6 0.6-1.6 0-2.1l-6-6 6-6c0.6-0.6 0.6-1.6 0-2.1l-0.7-0.7c-0.6-0.6-1.6-0.6-2.1 0l-6 6-6-6c-0.6-0.6-1.6-0.6-2.1 0l-0.7 0.7c-0.6 0.6-0.6 1.6 0 2.1z"></path></svg>