<?xml version="1.0"?><svg xmlns="http://www.w3.org/2000/svg" width="52" height="52" viewBox="0 0 52 52"><path fill="#fff" fill-rule="evenodd" d="m26.5 4.3c12.8 0 23.3 9.3 23.3 21 0 11.7-10.5 21.1-23.3 21.1-1.7 0-3.3-0.2-4.9-0.5l-0.5-0.1-0.1 0.1c-2.1 1-5.3 1.9-9.9 2.6l-0.6 0.1-1.1 0.1c-1.7 0.3-2.7-1.9-1.4-3 1.3-1.2 2.3-2.7 3-4.6l0 0-0.3-0.3c-4.6-3.9-7.3-9.2-7.4-15.1l-0.1-0.4c0.1-11.7 10.5-21 23.3-21z m7 26.7h-14c-1.1 0-2 0.9-2 2s0.9 2 2 2h14c1.1 0 2-0.9 2-2s-0.9-2-2-2z m4-7.5h-22c-1.1 0-2 0.9-2 2s0.9 2 2 2h22c1.1 0 2-0.9 2-2s-0.9-2-2-2z m-4-7.5h-14c-1.1 0-2 0.9-2 2s0.9 2 2 2h14c1.1 0 2-0.9 2-2s-0.9-2-2-2z"></path></svg>