<?xml version="1.0"?><svg xmlns="http://www.w3.org/2000/svg" width="52" height="52" viewBox="0 0 52 52"><path fill="#fff" d="m8.8 9c-4.4 4.5-6.8 10.4-6.8 16.6 0 1.4 1.1 2.4 2.4 2.4s2.4-1.1 2.4-2.4c-0.1-4.9 1.9-9.6 5.4-13.1s8.3-5.4 13.1-5.4c1.4 0 2.4-1.1 2.4-2.4 0-1.4-1.1-2.4-2.4-2.4-6.1-0.1-12.1 2.3-16.5 6.7z m2.9 16.6c0 1.4 1 2.4 2.4 2.4s2.4-1.1 2.4-2.4c0-2.3 0.9-4.6 2.6-6.2 1.7-1.7 3.9-2.5 6.2-2.6 1.4 0 2.4-1.1 2.4-2.4 0-1.4-1-2.4-2.4-2.4-3.6 0-7.1 1.4-9.7 3.9-0.4 0.5-4.1 4.2-3.9 9.7z m33.8-10.4c-0.9-1.2-2.1-2.6-2.3-2.8-0.3-0.2-0.7-0.4-1.1-0.4-0.4 0-0.8 0.1-1 0.4l-10.1 10c-2.4-2-6-1.9-8.3 0.4-2.3 2.3-2.4 5.9-0.4 8.3l-9.7 9.7c-0.3 0.3-0.5 0.7-0.5 1.1 0 0.5 0.2 1 0.6 1.3l2.7 2c3.7 2.9 8.3 4.5 13.2 4.5 11.8 0 21.4-9.6 21.4-21.4 0-4.8-1.7-9.4-4.5-13.1z"></path></svg>