<?xml version="1.0"?><svg xmlns="http://www.w3.org/2000/svg" width="52" height="52" viewBox="0 0 52 52"><path fill="#fff" d="m42.3 4.9h-11.9c-0.8-1.7-2.5-2.9-4.4-2.9-2.6 0-4.8 2.2-4.8 4.8s2.2 4.8 4.8 4.8c2 0 3.7-1.2 4.4-2.9h11.9c2.1 0 3.8 1.7 3.8 3.8v7.7c0 2.1-1.7 3.8-3.8 3.8h-5.8v-5.8c0-1.6-1.3-2.9-2.9-2.9h-15.3c-1.6 0-2.9 1.3-2.9 2.9v5.8h-5.7c-4.2 0-7.7 3.4-7.7 7.7v7.7c0 4.2 3.4 7.7 7.7 7.7h11.9c0.7 1.7 2.4 2.9 4.4 2.9 2.6 0 4.8-2.2 4.8-4.8 0-2.6-2.2-4.8-4.8-4.8-2 0-3.7 1.2-4.4 2.9h-11.9c-2.1 0-3.8-1.7-3.8-3.8v-7.7c0-2.1 1.7-3.8 3.8-3.8h5.8v5.8c0 1.6 1.3 2.9 2.9 2.9h15.4c1.6 0 2.9-1.3 2.9-2.9v-5.8h5.8c4.2 0 7.7-3.4 7.7-7.7v-7.7c-0.2-4.3-3.7-7.7-7.9-7.7z"></path></svg>