<?xml version="1.0"?><svg xmlns="http://www.w3.org/2000/svg" width="52" height="52" viewBox="0 0 52 52"><g fill="#fff"><path d="m28.6 28.2c2.6-2 5.4-2.3 7.3-2.3l7.1-0.1c0.7 0 1.4 0 2.1-0.1 0.9 0 1.8-0.1 2.6-0.1h2.1c0.1-13.1-10.7-23.8-23.8-23.8s-23.9 10.7-23.9 23.8c0 11.5 8.2 21.1 19 23.4-0.2-0.8-0.1-1.6 0.1-2.4 0.3-1.4 1.1-2.5 1.9-3.3-2.5-2.5-4.6-8.2-5-15.2h5.5v6.4c0.2-0.5 0.3-1 0.6-1.4 1-1.4 2.1-2.9 3.4-4.2 0.2-0.2 0.5-0.4 0.6-0.6l0.4-0.1z m16.3-4.8h-6.3c-0.2-5.7-1.5-10.6-3.4-14.3 5.3 2.9 8.9 8.2 9.7 14.3z m-16.5-15.7c2.7 2.3 5.1 8.2 5.5 15.7h-5.5v-15.7z m-4.8 0v15.7h-5.5c0.4-7.5 2.8-13.4 5.5-15.7z m-16.5 20.5h6.3c0.2 5.7 1.5 10.6 3.4 14.3-5.3-2.9-8.9-8.2-9.7-14.3z m6.2-4.8h-6.2c0.8-6.1 4.5-11.4 9.7-14.3-1.9 3.7-3.1 8.7-3.5 14.3z m11.3 18.5c0.3-0.2 0.6-0.6 0.8-0.7 0.2-0.3 0.6-0.6 0.8-1-1.3-0.6-2.2-1.7-2.6-3v5.7c0.4-0.5 0.7-0.8 1-1z"></path></g><path fill="#fff" d="m49.6 29.9c-0.2-0.2-0.3-0.2-0.5-0.2-2-0.1-4.1 0.1-6 0.1l-7.1 0.1c-2.1 0-3.9 0.5-5.6 2-1 1-2.1 2.3-2.9 3.5-0.1 0.2-0.2 0.3-0.2 0.5 0 0.5 0.4 0.8 0.8 0.8 0.5 0 0.6-0.3 0.8-0.6s0.5-0.6 0.8-1c1.1-1 2.6-1.6 4.1-1.4-1.3 3.5-3 7.5-5.6 10.3-1 1.1-2.9 2.3-3.3 3.9-0.4 1.7 1.3 2.1 2.5 1.6 1.6-0.6 2.5-2.3 3.4-3.7 1-1.8 1.9-3.6 2.6-5.4 0.8-1.8 1.6-3.7 2.3-5.5 0.5-1.1 0.6-1.1 1.8-1.1h3.1c-1.1 2.5-2.2 5.1-3.3 7.7-0.8 2-2.2 4.9-1.2 7 1 2.1 3.8 1.4 5.3 0.2 1.6-1.1 2.5-2.9 3.4-4.5 0.2-0.3 0.3-0.6 0.2-1-0.2-0.3-0.4-0.5-0.7-0.5-0.7 0-0.9 0.9-1.1 1.4-0.4 0.9-1.4 1.7-2.4 1.5-2.3-0.3-0.2-4.5 0.2-5.7 0.4-1.2 0.9-2.3 1.4-3.4 0.3-0.6 0.6-1.4 0.9-2 0.4-0.8 0.4-0.8 1.4-0.9 0.8 0 3.1 0.4 3.8-0.1 0.6-0.4 0.9-1.8 1.2-2.8 0.2-0.3 0.2-0.5-0.1-0.8z"></path></svg>