<?xml version="1.0"?><svg xmlns="http://www.w3.org/2000/svg" width="52" height="52" viewBox="0 0 52 52"><g fill="#fff"><path d="m50 3.2c0-1-0.6-1.2-0.9-1.2h-20.7c-1.5 0-1.5 1.5-1.5 1.5v2.9c0 1.3 0.8 1.6 1.2 1.6h14.4c0.6 0.1 1.5 0.5 1.5 2.1v13.6c0.1 0.4 0.3 1.3 1.5 1.3h3.2s1.3 0 1.3-1.5v-20.3z m-12.5 12.5c0.1-1-0.6-1.2-0.9-1.2h-20.7c-1.5 0-1.5 1.5-1.5 1.5v2.9c0 1.3 0.8 1.6 1.2 1.6h14.4c0.6 0.1 1.5 0.5 1.5 2.1v13.6c0.1 0.4 0.3 1.3 1.5 1.3h3.2s1.3 0 1.3-1.5v-20.3z m-32.2 33.1c0.2 0.2 1 0.8 2.1-0.3l10.4-10.4c0.3-0.3 1.2-1 1.2 0.4v10.2c0.1 0.4 0.3 1.3 1.5 1.3h3.2s1.3 0 1.3-1.5v-20.3c0-1-0.6-1.1-0.9-1.2h-20.7c-1.5 0-1.5 1.5-1.5 1.5v2.9c0 1.3 0.8 1.6 1.2 1.6h9.6c0.4 0 1.6 0.1 0.5 1.2l-10 10.2s-1.2 1.1-0.2 2.1l2.3 2.3z"></path></g></svg>