<?xml version="1.0"?><svg xmlns="http://www.w3.org/2000/svg" width="52" height="52" viewBox="0 0 52 52"><path fill="#fff" d="m49.9 33.6l-2-4.2 2-4.2c0.2-0.3 0-0.8-0.3-0.9-0.1 0-0.2-0.1-0.3-0.1h-6.5c-0.5-1.3-1.8-4.5-3-6.3-1.5-2.4-3.2-4.4-5.2-6-2.3-1.9-4.9-3.5-7.9-4.7l-0.7-0.1-0.7 0.2c-0.1 0-1.2 0.4-2.9 1.2-1.4 0.7-3 1.7-4.6 3-3.1 2.5-5.5 5.5-7.2 9-0.5 1.1-1.1 2.4-1.6 3.8h-6.3c-0.1 0-0.2 0-0.3 0.1-0.3 0.1-0.5 0.6-0.4 0.9l1.8 4.2-1.8 4.2v0.2c0 0.4 0.3 0.7 0.7 0.7h4.5v1.8c0 0.7 0 1.5 0.1 2v1.3l1.2 0.7c0.1 0 2 1.1 5.1 2.2 2.8 1 7.3 2.2 12.7 2.2 4.7 0 9.3-0.9 13.7-2.7 1.3-0.5 2.5-1.1 3.6-1.7l1-0.5 0.2-0.8 0.1-0.7v-2.1c0-0.4 0-0.6-0.1-0.8 0-0.2-0.1-0.4-0.1-1h4.6c0.4 0 0.7-0.3 0.7-0.7 0 0 0-0.1-0.1-0.2z m-8.5 3.6c0 0.2 0 0.4-0.1 0.6-0.9 0.5-1.8 0.9-2.7 1.3-4 1.6-8.1 2.4-12.4 2.4-4.9 0-9-1.1-11.6-2-1.9-0.7-3.3-1.3-4-1.7v-2.1c0-0.3 0-0.5 0.1-2.6 0.2-2.9 0.9-5.6 1.4-7.1 0.5-1.5 1.1-2.9 1.6-4 1.5-3.1 3.6-5.6 6.3-7.8 1.7-1.4 3.1-2.2 3.9-2.6 0.9-0.4 1.6-0.7 2-0.9 2.4 1 4.5 2.3 6.4 3.9 1.7 1.4 3.2 3.1 4.5 5.3 1 1.6 2.4 5 2.8 6 0 0 1.3 4.2 1.4 7 0.1 2.2 0.1 2.6 0.2 3.1 0 0.2 0 0.3 0.1 0.5v0.7z"></path><path fill-rule="evenodd" clip-rule="evenodd" fill="#fff" d="m25.8 38c-0.6 0-1-0.2-1.4-0.5-0.4-0.4-0.6-0.9-0.6-1.5s0.2-1.1 0.6-1.4c0.4-0.4 0.9-0.6 1.5-0.6s1.1 0.2 1.4 0.6c0.4 0.4 0.6 0.9 0.6 1.4 0 0.6-0.2 1.1-0.6 1.5-0.5 0.4-1 0.5-1.5 0.5z m-6.7-14.8c0-0.9 0.3-1.7 0.8-2.6 0.6-0.9 1.4-1.6 2.4-2.2 1.1-0.6 2.3-0.9 3.7-0.9 1.3 0 2.5 0.2 3.5 0.7 1 0.5 1.8 1.1 2.3 2 0.5 0.8 0.8 1.7 0.8 2.7 0 0.8-0.2 1.4-0.5 2-0.3 0.6-0.7 1.1-1.1 1.5-0.4 0.4-1.2 1.1-2.3 2.1-0.3 0.3-0.6 0.5-0.7 0.7-0.2 0.2-0.3 0.4-0.4 0.6-0.1 0.2-0.2 0.4-0.2 0.5 0 0.2-0.1 0.5-0.2 0.9-0.2 0.9-0.7 1.4-1.6 1.4-0.5 0-0.9-0.2-1.2-0.5-0.3-0.1-0.4-0.6-0.4-1.2 0-0.8 0.1-1.4 0.4-2 0.2-0.6 0.5-1 0.9-1.5 0.4-0.4 0.9-0.9 1.6-1.5 0.6-0.5 1-0.9 1.3-1.1 0.3-0.3 0.5-0.5 0.7-0.9 0.2-0.3 0.3-0.7 0.3-1 0-0.7-0.3-1.3-0.8-1.8s-1.2-0.7-2.1-0.7c-1 0-1.7 0.3-2.2 0.8-0.5 0.5-0.9 1.2-1.2 2.2-0.3 1-0.9 1.5-1.8 1.5-0.5 0-0.9-0.2-1.3-0.5-0.5-0.4-0.7-0.8-0.7-1.2z"></path></svg>