<?xml version="1.0"?><svg xmlns="http://www.w3.org/2000/svg" width="52" height="52" viewBox="0 0 52 52"><path fill="#fff" d="m47.6 37.6c-0.5-0.1-1.1-0.1-1.6-0.2-0.1 0-0.2-0.1-0.2-0.2-0.2-0.6-0.5-1.2-0.7-1.7v-0.3c0.3-0.4 0.7-0.9 1-1.3 0.2-0.3 0.2-0.6-0.1-0.9l-1.8-1.8c-0.1-0.1-0.3-0.2-0.4-0.2s-0.3 0.1-0.4 0.2c-0.4 0.3-0.9 0.7-1.3 1-0.1 0-0.1 0.1-0.1 0.1h-0.1c-0.6-0.2-1.1-0.5-1.7-0.7-0.1 0-0.2-0.1-0.2-0.2-0.1-0.5-0.1-1-0.2-1.5 0-0.3-0.1-0.5-0.4-0.7-0.1-0.1-0.2-0.1-0.2-0.1h-2.6c-0.2 0-0.3 0-0.4 0.1-0.2 0.2-0.4 0.4-0.4 0.7 0 0.5-0.1 1-0.2 1.5 0 0.1-0.1 0.2-0.2 0.2-0.6 0.2-1.1 0.5-1.7 0.7h-0.1c-0.1 0-0.1 0-0.2-0.1-0.4-0.3-0.8-0.7-1.3-1-0.1-0.1-0.2-0.2-0.4-0.2s-0.3 0.1-0.5 0.2l-1.8 1.8c-0.3 0.3-0.3 0.6-0.1 0.9 0.3 0.4 0.7 0.8 1 1.3 0.1 0.1 0.1 0.2 0 0.3-0.2 0.6-0.5 1.1-0.7 1.7 0 0.1-0.1 0.2-0.2 0.2-0.5 0.1-1 0.1-1.5 0.2-0.3 0-0.6 0.2-0.7 0.5v3c0.2 0.3 0.4 0.4 0.7 0.5 0.5 0 1 0.1 1.5 0.2 0.1 0 0.2 0.1 0.2 0.2 0.2 0.6 0.5 1.1 0.7 1.7 0 0.1 0.1 0.2 0 0.3-0.3 0.4-0.7 0.9-1 1.3-0.2 0.3-0.2 0.6 0.1 0.9l1.8 1.8c0.2 0.2 0.3 0.2 0.5 0.2 0.1 0 0.3-0.1 0.4-0.2 0.4-0.3 0.8-0.7 1.3-1 0.1 0 0.1-0.1 0.2-0.1h0.1c0.6 0.2 1.1 0.5 1.7 0.7 0.1 0 0.2 0.1 0.2 0.2 0.1 0.5 0.1 1.1 0.2 1.6 0 0.4 0.3 0.6 0.7 0.6h2.5s0.6-0.2 0.7-0.6c0.1-0.5 0.1-1.1 0.2-1.6 0-0.1 0.1-0.2 0.2-0.2 0.6-0.2 1.2-0.5 1.7-0.7h0.1s0.1 0 0.1 0.1c0.4 0.3 0.9 0.7 1.3 1 0.1 0.1 0.3 0.2 0.4 0.2 0.2 0 0.3-0.1 0.5-0.2l1.8-1.8c0.3-0.3 0.3-0.6 0.1-0.9-0.3-0.4-0.7-0.8-1-1.3-0.1-0.1-0.1-0.2 0-0.3 0.2-0.6 0.5-1.1 0.7-1.7 0-0.1 0.1-0.2 0.2-0.2 0.5-0.1 1.1-0.1 1.6-0.2 0.4 0 0.6-0.3 0.6-0.7v-2.5c0-0.5-0.2-0.7-0.6-0.8z m-9.8 6s-0.1 0 0 0c-2.3 0-4-1.8-4-4s1.8-4 4-4 4 1.8 4 4c-0.1 2.2-1.9 4-4 4z m0.9-22.9c-0.2-0.8-0.8-1.3-1.6-1.3h-9.6c-1.2 0-0.6-1-0.6-1 0.2-0.4 0.4-0.7 0.5-1.1 2.2-4.3 4.3-8.6 6.5-12.9 0.8-1.2 0-2.4-1.4-2.4h-17.9c-0.9 0-1.3 0.3-1.7 1.1-3 7.6-6 15.1-8.9 22.7 0 0.2-0.1 0.4-0.1 0.5-0.1 1 0.6 1.7 1.7 1.7h9.7c0.7 0.1 2.1 0.4 1.4 2.2-1.2 3.1-2.4 6.1-3.6 9.2-1.2 2.8-2.3 5.6-3.4 8.4-0.4 1 0 1.9 1 2.2 0.7 0.2 1.2-0.1 1.7-0.6 4-4.2 8-8.4 12-12.7 0.5-0.5 0.9-1 1.4-1.5 0.6-0.6 0.5-1.6 0.5-1.6 0-1 0.3-1.9 1.1-2.7l1.8-1.8c0.7-0.7 1.6-1.1 2.6-1.1 0.7 0 1.1-0.3 1.3-0.4l0.1-0.1c1.7-1.8 3.5-3.7 5.2-5.5 0.3-0.3 0.5-0.8 0.3-1.3z"></path></svg>