<?xml version="1.0"?><svg xmlns="http://www.w3.org/2000/svg" width="52" height="52" viewBox="0 0 52 52"><path fill="#fff" d="m17.3 36.1l-1.1-1.4s-0.7-1-0.9-1.6c-0.2-0.3-0.5-0.5-0.9-0.5h-0.6c-3.5 0-6.5-2.6-6.7-6-0.3-3.8 2.8-6.9 6.5-6.9h9.1c1.2 0 2.3 0.4 3.2 0.8 1.2 0.7 2.2 1.8 2.7 3.1 0.3 0.8 0.5 1.6 0.5 2.6 0 0.5-0.1 0.9-0.2 1.4-0.2 0.7 0.3 1.3 1 1.2h3.4c0.5 0 0.8-0.4 1-0.8 0.1-0.6 0.1-1.2 0.1-1.8 0-0.8-0.1-1.7-0.3-2.6-0.3-1.4-0.9-2.7-1.7-3.9-1.5-2.2-3.8-4-6.4-4.7-1-0.3-2.2-0.5-3.2-0.5h-8.8c-6.3 0-11.7 4.9-11.9 11.2-0.3 6.6 5 12.1 11.6 12.1h3c0.7-0.1 1.1-1.1 0.6-1.7z m32.6-10.5c-0.2-6.3-5.6-11.3-11.9-11.2l-2.7-0.1c-0.8 0-1.3 1-0.8 1.6 0.8 0.9 1.4 1.9 2 3 0.2 0.3 0.5 0.5 0.9 0.5h0.6c3.5 0 6.5 2.6 6.7 6 0.3 3.8-2.8 6.9-6.5 6.9h-9.1c-1.2 0-2.3-0.4-3.2-0.8-1.2-0.7-2.2-1.8-2.7-3.1-0.3-0.8-0.5-1.6-0.5-2.6 0-0.5 0.1-0.9 0.2-1.4 0.2-0.7-0.3-1.3-1-1.2h-3.4c-0.5 0-0.8 0.4-1 0.8-0.1 0.6-0.1 1.2-0.1 1.8 0 0.8 0.1 1.8 0.3 2.6 0.3 1.4 0.9 2.7 1.7 3.8 1.5 2.2 3.8 4 6.4 4.7 1 0.3 2.2 0.5 3.2 0.5h9.1c6.7 0.3 12-5.2 11.8-11.8z"></path></svg>