<?xml version="1.0"?><svg xmlns="http://www.w3.org/2000/svg" width="52" height="52" viewBox="0 0 52 52"><g fill="#fff"><path d="m18 38.5c0 0.8 0.7 1.5 1.5 1.5h2.6c-0.1-0.7-0.1-1.3-0.1-2 0-1.4 0.2-2.7 0.5-4h-3c-0.8 0-1.5 0.7-1.5 1.5v3z m10.5-24.5h-9c-0.8 0-1.5 0.7-1.5 1.5v3c0 0.8 0.7 1.5 1.5 1.5h9c0.8 0 1.5-0.7 1.5-1.5v-3c0-0.8-0.7-1.5-1.5-1.5z m-25-4h41c0.8 0 1.5-0.7 1.5-1.5v-5c0-0.8-0.7-1.5-1.5-1.5h-41c-0.8 0-1.5 0.7-1.5 1.5v5c0 0.8 0.7 1.5 1.5 1.5z m41 10c0.8 0 1.5-0.7 1.5-1.5v-3c0-0.8-0.7-1.5-1.5-1.5h-9c-0.8 0-1.5 0.7-1.5 1.5v3c0 0.8 0.7 1.5 1.5 1.5h9z m-26.5 8.5c0 0.8 0.7 1.5 1.5 1.5h4.6c1.3-2.3 3.2-4.2 5.4-5.6-0.3-0.3-0.6-0.4-1-0.4h-9c-0.8 0-1.5 0.7-1.5 1.5v3z m-5.5-14.5h-9c-0.8 0-1.5 0.7-1.5 1.5v3c0 0.8 0.7 1.5 1.5 1.5h9c0.8 0 1.5-0.7 1.5-1.5v-3c0-0.8-0.7-1.5-1.5-1.5z m10.6 30h-3.6c-0.8 0-1.5 0.7-1.5 1.5v3c0 0.8 0.7 1.5 1.5 1.5h7.9c-1.9-1.6-3.3-3.7-4.3-6z m-10.6-10h-9c-0.8 0-1.5 0.7-1.5 1.5v3c0 0.8 0.7 1.5 1.5 1.5h9c0.8 0 1.5-0.7 1.5-1.5v-3c0-0.8-0.7-1.5-1.5-1.5z m0 10h-9c-0.8 0-1.5 0.7-1.5 1.5v3c0 0.8 0.7 1.5 1.5 1.5h9c0.8 0 1.5-0.7 1.5-1.5v-3c0-0.8-0.7-1.5-1.5-1.5z m0-20h-9c-0.8 0-1.5 0.7-1.5 1.5v3c0 0.8 0.7 1.5 1.5 1.5h9c0.8 0 1.5-0.7 1.5-1.5v-3c0-0.8-0.7-1.5-1.5-1.5z m25.4 2.1c-6.6 0-12 5.4-12 12s5.4 12 12 12 12-5.4 12-12-5.4-12-12-12z m7.9 8.5l-9.6 9.7c-0.2 0.2-0.5 0.2-0.7 0l-5.6-5.6c-0.2-0.2-0.2-0.5 0-0.7l2.1-2.1c0.2-0.2 0.5-0.2 0.7 0l2.9 2.9c0.1 0.1 0.4 0.1 0.5 0l6.9-7c0.2-0.2 0.5-0.2 0.7 0l2.1 2.1c0.3 0.2 0.3 0.5 0 0.7z"></path></g></svg>