<?xml version="1.0"?><svg xmlns="http://www.w3.org/2000/svg" width="52" height="52" viewBox="0 0 52 52"><path fill="#fff" d="m44.4 2h-25.6c-2.6 0-4.8 2.2-4.8 4.8v0.8c0 0.5 0.3 0.8 0.8 0.8h23.2c2.6 0 4.8 2.2 4.8 4.8v24.8c0 0.5 0.3 0.8 0.8 0.8h0.8c2.6 0 4.8-2.2 4.8-4.8v-27.2c0-2.6-2.2-4.8-4.8-4.8z m-11.2 11.2h-25.6c-2.6 0-4.8 2.2-4.8 4.8v27.2c0 2.6 2.2 4.8 4.8 4.8h25.6c2.6 0 4.8-2.2 4.8-4.8v-27.2c0-2.6-2.2-4.8-4.8-4.8z m-19.2 28.8c0 0.9-0.7 1.6-1.6 1.6h-1.6c-0.9 0-1.6-0.7-1.6-1.6v-1.6c0-0.9 0.7-1.6 1.6-1.6h1.6c0.9 0 1.6 0.7 1.6 1.6v1.6z m0-9.6c0 0.9-0.7 1.6-1.6 1.6h-1.6c-0.9 0-1.6-0.7-1.6-1.6v-1.6c0-0.9 0.7-1.6 1.6-1.6h1.6c0.9 0 1.6 0.7 1.6 1.6v1.6z m0-9.6c0 0.9-0.7 1.6-1.6 1.6h-1.6c-0.9 0-1.6-0.7-1.6-1.6v-1.6c0-0.9 0.7-1.6 1.6-1.6h1.6c0.9 0 1.6 0.7 1.6 1.6v1.6z m17.6 19.2c0 0.9-0.7 1.6-1.6 1.6h-11.1c-0.9 0-1.6-0.7-1.6-1.6v-1.6c0-0.9 0.7-1.6 1.6-1.6h11.1c0.9 0 1.6 0.7 1.6 1.6v1.6z m0-9.6c0 0.9-0.7 1.6-1.6 1.6h-11.1c-0.9 0-1.6-0.7-1.6-1.6v-1.6c0-0.9 0.7-1.6 1.6-1.6h11.1c0.9 0 1.6 0.7 1.6 1.6v1.6z m0-9.6c0 0.9-0.7 1.6-1.6 1.6h-11.1c-0.9 0-1.6-0.7-1.6-1.6v-1.6c0-0.9 0.7-1.6 1.6-1.6h11.1c0.9 0 1.6 0.7 1.6 1.6v1.6z"></path></svg>