<?xml version="1.0"?><svg xmlns="http://www.w3.org/2000/svg" width="52" height="52" viewBox="0 0 52 52"><path fill="#fff" d="m44.8 49.5h-37.6c-2.6 0-4.7-2.1-4.7-4.7v-37.6c0-2.6 2.1-4.7 4.7-4.7h37.6c2.6 0 4.7 2.1 4.7 4.7v37.6c0 2.6-2.1 4.7-4.7 4.7z m-36-39.2v31.3c0 0.9 0.7 1.6 1.6 1.6h31.3c0.9 0 1.6-0.7 1.6-1.6v-31.3c0-0.9-0.7-1.6-1.6-1.6h-31.3c-0.9 0.1-1.6 0.8-1.6 1.6z m27.4 10h-2.9l1.2-4.8v-0.1c0-0.2-0.1-0.4-0.4-0.4h-2.3c-0.2 0-0.3 0.1-0.4 0.3l-1.2 4.9h-5.8l1.2-4.8v-0.1c0-0.2-0.1-0.4-0.4-0.4h-2.3c-0.2 0-0.3 0.1-0.4 0.3l-1.3 4.9h-3.2c-0.2 0-0.3 0.1-0.4 0.3l-0.6 2.2v0.1c0 0.2 0.1 0.4 0.4 0.4h3l-1.4 5.6h-3.1c-0.2 0-0.3 0.1-0.4 0.3l-0.6 2.2v0.1c0 0.2 0.1 0.4 0.4 0.4h2.9l-1.2 4.8v0.1c0 0.2 0.1 0.4 0.4 0.4h2.3c0.2 0 0.3-0.1 0.4-0.3l1.3-5h5.7l-1.1 4.7v0.1c0 0.2 0.1 0.4 0.4 0.4h2.3c0.2 0 0.3-0.1 0.4-0.3l1.3-5h3.2c0.2 0 0.3-0.1 0.4-0.3l0.6-2.2v-0.1c0-0.2-0.1-0.4-0.4-0.4h-3l1.4-5.6h3.1c0.2 0 0.3-0.1 0.4-0.3l0.6-2.2v-0.1c-0.1 0.1-0.3-0.1-0.5-0.1z m-8.1 8.5h-5.8l1.4-5.6h5.7l-1.3 5.6z"></path></svg>