<?xml version="1.0"?><svg xmlns="http://www.w3.org/2000/svg" width="52" height="52" viewBox="0 0 52 52"><path fill="#fff" d="m6.9 33.7h-3.2c-0.9 0-1.6 0.7-1.6 1.6v3.2c0 0.9 0.7 1.6 1.6 1.6h3.3c0.9-0.1 1.5-0.8 1.4-1.6v-3.2c0.1-0.9-0.6-1.6-1.5-1.6z m9.6-21.9h31.6c0.9 0 1.6-0.7 1.6-1.6v-3.2c0-0.9-0.7-1.6-1.6-1.6h-31.6c-0.9 0-1.6 0.7-1.6 1.6v3.2c0 0.9 0.7 1.6 1.6 1.6z m0 14.2h31.6c0.9 0 1.6-0.7 1.6-1.6v-3.2c0-0.9-0.7-1.6-1.6-1.6h-31.6c-0.9 0-1.6 0.7-1.6 1.6v3.2c0 0.8 0.7 1.6 1.6 1.6z m-9.6-20.6h-3.2c-0.9 0-1.6 0.7-1.6 1.6v3.2c0 0.9 0.7 1.6 1.6 1.6h3.3c0.9-0.1 1.5-0.8 1.4-1.6v-3.3c0.1-0.8-0.6-1.5-1.5-1.5z m0 14.1h-3.2c-0.9 0-1.6 0.7-1.6 1.6v3.2c0 0.9 0.7 1.6 1.6 1.6h3.3c0.9-0.1 1.5-0.8 1.4-1.6v-3.2c0.1-0.8-0.6-1.6-1.5-1.6z m14 20.2c0-1.8 0.6-3.6 1.7-5v-1.1h-6.1c-0.9 0-1.6 0.7-1.6 1.6v3.2c0 0.9 0.7 1.6 1.6 1.6h4.4v-0.3z m14.3-8.3c0.8-0.8 1.9-1.3 3.2-1.3 1.7 0 3.1 0.9 3.9 2.2 0.6-0.2 1.4-0.5 2.2-0.5 2.9 0 5.4 2.5 5.4 5.3 0 2.9-2.5 5.3-5.4 5.3-0.3 0-0.7 0-1-0.1-0.6 1.2-2 2-3.4 2-0.6 0-1.2-0.2-1.7-0.4-0.7 1.6-2.3 2.7-4.1 2.7-2 0-3.6-1.2-4.2-2.9-0.2 0-0.6 0.1-0.9 0.1-2.3 0-4.2-1.8-4.2-4.1 0-1.5 0.8-2.9 2.1-3.6-0.2-0.6-0.4-1.2-0.4-1.9 0-2.6 2.2-4.8 4.8-4.8 1.4 0.1 2.9 0.8 3.7 2z"></path></svg>