<?xml version="1.0"?><svg xmlns="http://www.w3.org/2000/svg" width="52" height="52" viewBox="0 0 52 52"><g fill="#fff"><path d="m48 22.8c0-4.9-1.8-9.6-5-13.2l-0.4-0.4c-4-4.4-10-7.2-16.6-7.2-6.3 0-12.1 2.6-16.1 6.6h-0.1c-3.7 3.8-5.8 8.9-5.8 14.2 0 5.3 2.1 10.4 5.9 14.2 0.8 0.8 2 0.8 2.8 0s0.8-2.1 0-2.9c-2.9-2.9-4.6-7-4.6-11.2 0-3.7 1.3-7.1 3.4-9.9 0.4-0.5 0.7-0.9 1.2-1.3 0.1-0.1 0.2-0.2 0.2-0.3 3.3-3.4 8-5.4 13.1-5.4 9.8 0 17.8 7.6 17.9 16.9 0 4.2-1.7 8.3-4.7 11.2-0.8 0.8-0.8 2.1 0 2.9s2.1 0.8 2.9 0c3.8-3.8 5.9-8.8 5.9-14.2z m-8.4 0.1c0-0.1 0-0.1 0 0 0-0.1 0-0.1 0 0 0-0.1 0-0.1 0 0 0-7.2-6.1-13-13.6-13-6.2 0-11.4 3.9-13.1 9.2-0.4 1.2-0.6 2.4-0.6 3.7 0 3.1 1.2 6.1 3.4 8.3 0.8 0.8 2.1 0.8 2.9 0 0.8-0.8 0.8-2.1 0-2.9-1.4-1.4-2.2-3.3-2.2-5.3 0-4.9 4.5-8.8 9.6-8.8s9.6 4 9.6 8.8c0 2-0.8 3.9-2.2 5.3-0.8 0.8-0.8 2.1 0 2.9 0.8 0.8 2 0.8 2.8 0 2.2-2.2 3.4-5.1 3.4-8.2z m-11.4 9.5h-4.4c-1.7 0-3.2 1.4-3.2 3.2v11.3c0 1.7 1.4 3.2 3.2 3.2h4.4c1.7 0 3.2-1.4 3.2-3.2v-11.4c0-1.7-1.5-3.1-3.2-3.1z"></path><circle cx="26" cy="23.2" r="5.4"></circle></g></svg>