<?xml version="1.0"?><svg xmlns="http://www.w3.org/2000/svg" width="52" height="52" viewBox="0 0 52 52"><path fill="#fff" d="m24.5 2.1c-12 0.7-21.7 10.4-22.4 22.4-1 13.8 10.1 25.5 23.9 25.5h24v-24c0-13.8-11.7-24.9-25.5-23.9z m-9.9 13.4c0-0.9 0.7-1.6 1.6-1.6h19.6c0.9 0 1.6 0.7 1.6 1.6v1.6c0 0.9-0.7 1.6-1.6 1.6h-19.7c-0.9 0-1.6-0.7-1.6-1.6 0.1 0.1 0.1-1.6 0.1-1.6z m22.8 20.8c0 0.9-0.7 1.6-1.6 1.6h-19.7c-0.9 0-1.6-0.7-1.6-1.6v-1.6c0-0.9 0.7-1.6 1.6-1.6h19.6c0.9 0 1.6 0.7 1.6 1.6v1.6h0.1z m6-9.5c0 0.9-0.7 1.6-1.6 1.6h-31.7c-0.9 0-1.6-0.7-1.6-1.6v-1.6c0-0.9 0.7-1.6 1.6-1.6h31.7c0.9 0 1.6 0.7 1.6 1.6v1.6z"></path></svg>