<?xml version="1.0"?><svg xmlns="http://www.w3.org/2000/svg" width="52" height="52" viewBox="0 0 52 52"><path fill="#fff" d="m27.4 3.1l4.6 15c0.2 0.6 0.8 0.9 1.4 0.9h15c1.5 0 2.1 2 0.9 2.9l-12.2 9c-0.5 0.4-0.7 1.1-0.5 1.7l5.8 15.4c0.4 1.4-1.1 2.6-2.3 1.7l-13.1-9.8c-0.5-0.4-1.2-0.4-1.8 0l-13.2 9.8c-1.2 0.9-2.8-0.3-2.3-1.7l5.6-15.4c0.2-0.6 0-1.3-0.5-1.7l-12.2-9c-1.2-0.9-0.5-2.9 0.9-2.9h15c0.7 0 1.2-0.2 1.4-0.9l4.7-15.1c0.4-1.4 2.4-1.3 2.8 0.1z m-1.4 9.7c0 1.4 0 20.7 0 21.7 0.2 0.1 2.9 2.2 8.2 6.1 0.7 0.5 1.6-0.2 1.4-1l-3.3-8.6c-0.3-0.7 0-1.2 0.4-1.5l6.9-4.8c0.7-0.5 0.4-1.7-0.5-1.7h-8.1c-0.3 0-1.2-0.1-1.5-1l-2.7-8.6c-0.1-0.4-0.4-0.6-0.8-0.6z"></path></svg>