<?xml version="1.0"?><svg xmlns="http://www.w3.org/2000/svg" width="52" height="52" viewBox="0 0 52 52"><g fill="#fff"><path d="m45.5 10h-12.6v-4c0-2.2-1.8-4-4-4h-6c-2.2 0-4 1.8-4 4v4h-12.5c-0.8 0-1.5 0.7-1.5 1.5v3c0 0.8 0.7 1.5 1.5 1.5h39c0.8 0 1.5-0.7 1.5-1.5v-3c0-0.8-0.6-1.5-1.4-1.5z m-16.7 0h-5.9v-3c0-0.6 0.4-1 1-1h4c0.6 0 1 0.4 1 1v3z m12.7 10h-31c-0.8 0-1.5 0.7-1.5 1.5v23.5c0 2.8 2.2 5 5 5h24c2.8 0 5-2.2 5-5v-23.5c-0.1-0.8-0.7-1.5-1.5-1.5z m-18.3 24.9l-5 0.1c-0.2 0-2.1 0-3.4-2-1.4-2.2-0.3-4 1.2-6.6l-1.4-1c-0.2-0.1-0.2-0.2-0.2-0.4s0.1-0.2 0.3-0.3l3.9-1 0.3-0.1c0.2 0 0.3 0 0.5 0.3l0.1 0.3 0.9 4c0 0.2 0 0.3-0.2 0.4-0.2 0.1-0.3 0.1-0.5 0l-1.3-0.8c-1.4 2.3-1.6 3-1.2 3.6 0.4 0.6 1 0.7 1 0.7l5-0.1c0.5 0 1 0.2 1.2 0.6 0.2 0.2 0.2 0.5 0.2 0.7 0.1 0.9-0.6 1.6-1.4 1.6z m3.6-14.6c0-0.2 0.1-0.3 0.2-0.4l1.4-0.6c-1.2-2.4-1.7-3-2.4-3-0.8 0-1 0.4-1.1 0.5l-2.6 4.2c-0.2 0.4-0.7 0.6-1.2 0.6-0.2 0-0.5-0.1-0.7-0.2-0.6-0.4-0.9-1.3-0.4-1.9l2.6-4.2c0.1-0.2 1.1-1.8 3.4-1.8 2.6 0 3.5 1.9 5 4.6l1.6-0.7c0.2-0.1 0.3 0 0.4 0.1 0.1 0.1 0.2 0.2 0.1 0.4l-1.4 4.1c0 0.1-0.1 0.2-0.2 0.2-0.2 0.1-0.3 0-0.3 0l-4.1-1.5c-0.2-0.1-0.3-0.2-0.3-0.4z m10.5 12.3c-1.2 2.2-3.4 2.2-6.4 2.2l-0.1 1.8c0 0.2-0.1 0.3-0.2 0.3s-0.2 0.1-0.4-0.1l-3-3.1c-0.2-0.2 0-0.5 0-0.5l0.2-0.2 3.2-2.8c0.2-0.1 0.2-0.2 0.4-0.1s0.2 0.2 0.2 0.4v1.5c2.6 0 3.4-0.1 3.8-0.7 0.3-0.6 0.2-1.1 0.1-1.2l-2.5-4.3c-0.2-0.4-0.2-1 0-1.4 0.2-0.2 0.3-0.4 0.6-0.6 0.6-0.4 1.5-0.2 1.9 0.6l2.5 4.3c0 0.2 0.8 1.8-0.3 3.9z"></path></g></svg>