<?xml version="1.0"?><svg xmlns="http://www.w3.org/2000/svg" width="52" height="52" viewBox="0 0 52 52"><path fill="#fff" d="m44.2 7.1l-12 1.9-0.6-3.8c-0.3-2.1-2.3-3.5-4.4-3.2l-5.8 1c-2.1 0.3-3.5 2.3-3.2 4.4l0.6 3.8-11.8 1.9c-0.8 0.1-1.3 0.9-1.2 1.7l0.5 2.8c0.1 0.8 0.9 1.3 1.7 1.2l37.1-6c0.8-0.1 1.3-0.9 1.2-1.7l-0.5-2.8c-0.1-0.7-0.9-1.3-1.6-1.2z m-15.9 2.6l-5.6 0.9-0.5-2.8c-0.1-0.5 0.2-1 0.8-1.1l3.8-0.6c0.5-0.1 1 0.2 1.1 0.8l0.4 2.8z m13.1 11.3h-30c-0.8 0-1.5 0.7-1.5 1.5v22.7c0 2.7 2.1 4.8 4.8 4.8h23.2c2.7 0 4.8-2.1 4.8-4.8v-22.7c0.1-0.8-0.5-1.5-1.3-1.5z m-17.6 24.1l-4.9 0.1c-0.2 0-2 0-3.2-1.9-1.3-2.1-0.3-3.9 1.2-6.4l-1.4-0.9c-0.2-0.1-0.2-0.2-0.2-0.4s0.1-0.2 0.3-0.3l3.8-0.9 0.3-0.1c0.2 0 0.3 0 0.5 0.3l0.1 0.3 0.8 3.9c0 0.2 0 0.3-0.2 0.4-0.2 0.1-0.3 0.1-0.5 0l-1.2-0.8c-1.3 2.2-1.5 2.9-1.2 3.5 0.4 0.6 0.9 0.7 0.9 0.7l4.8-0.1c0.5 0 0.9 0.2 1.2 0.6 0.2 0.2 0.2 0.5 0.2 0.7 0.1 0.6-0.5 1.3-1.3 1.3z m3.5-14.1c0-0.2 0.1-0.3 0.2-0.4l1.3-0.6c-1.2-2.3-1.6-2.9-2.3-2.9-0.8 0-1 0.4-1.1 0.5l-2.5 4.1c-0.2 0.4-0.7 0.6-1.2 0.6-0.2 0-0.5-0.1-0.7-0.2-0.6-0.4-0.8-1.2-0.4-1.9l2.5-4.1c0.1-0.2 1.1-1.7 3.3-1.7 2.5 0 3.4 1.9 4.8 4.5l1.5-0.7c0.2-0.1 0.3 0 0.4 0.1 0.1 0.1 0.2 0.2 0.1 0.4l-1.2 3.9c0 0.1-0.1 0.2-0.2 0.2h-0.3l-3.9-1.5c-0.3 0-0.3-0.1-0.3-0.3z m10.1 11.8c-1.2 2.2-3.2 2.2-6.2 2.1l-0.1 1.7c0 0.2-0.1 0.3-0.2 0.3s-0.2 0.1-0.4-0.1l-2.9-3c-0.2-0.2 0-0.5 0-0.5l0.2-0.2 3.1-2.7c0.2-0.1 0.2-0.2 0.4-0.1s0.2 0.2 0.2 0.4l-0.1 1.5c2.5 0 3.3-0.1 3.6-0.7s0.2-1.1 0.1-1.2l-2.4-4.2c-0.2-0.4-0.2-0.9 0-1.3 0.2-0.2 0.3-0.4 0.5-0.5 0.6-0.4 1.5-0.2 1.9 0.5l2.4 4.2c0.1 0.3 1 1.8-0.1 3.8z m-16-23.9l17.5-2.9 0.1 2.9z"></path></svg>