<?xml version="1.0"?><svg xmlns="http://www.w3.org/2000/svg" width="52" height="52" viewBox="0 0 52 52"><path fill="#fff" d="m24.1 36.7l-9.4 13.3-2.4-6.4h-6.4l8.2-11.1c1.6 1 3.3 1.1 4.5 1.4 0.4 0.1 0.9 0.2 1.1 0.2 0.2 0.1 0.6 0.4 0.8 0.6 0.9 0.6 2.1 1.5 3.6 2z m15.2-4.2c-1.6 1-3.3 1.1-4.5 1.4-0.4 0.1-1 0.2-1.2 0.2-0.2 0.1-0.6 0.4-0.8 0.6-0.9 0.6-2 1.6-3.5 2.1l9.4 13.2 2.4-6.4h6.4l-8.2-11.1z m-12.6-20.9c-3.1 0-5.6 2.5-5.6 5.6s2.5 5.6 5.6 5.6 5.6-2.5 5.6-5.6-2.5-5.6-5.6-5.6z m15.2 5.6c0 1.9-2.1 3.4-2.8 5.1-0.7 1.8-0.3 4.3-1.7 5.6-1.3 1.3-3.8 1-5.6 1.7-1.7 0.7-3.2 2.8-5.1 2.8s-3.4-2.1-5.1-2.8c-1.8-0.7-4.3-0.3-5.6-1.7-1.3-1.3-1-3.8-1.7-5.6-0.7-1.7-2.8-3.2-2.8-5.1s2.1-3.4 2.8-5.1c0.7-1.8 0.3-4.3 1.7-5.6 1.3-1.3 3.8-1 5.6-1.7 1.7-0.7 3.2-2.8 5.1-2.8s3.4 2.1 5.1 2.8c1.8 0.7 4.3 0.3 5.6 1.7 1.3 1.3 1 3.8 1.7 5.6 0.7 1.7 2.8 3.2 2.8 5.1z m-4.8 0c0-5.8-4.6-10.4-10.4-10.4s-10.4 4.6-10.4 10.4 4.6 10.4 10.4 10.4 10.4-4.6 10.4-10.4z"></path></svg>