<?xml version="1.0"?><svg xmlns="http://www.w3.org/2000/svg" width="52" height="52" viewBox="0 0 52 52"><title></title><desc></desc><path fill-rule="evenodd" clip-rule="evenodd" fill="#fff" d="m47.6 29.2h-8c-1.3 0-2.4-1.1-2.4-2.4v-1.6c0-1.3 1.1-2.4 2.4-2.4h8c1.3 0 2.4 1.1 2.4 2.4v1.6c0 1.3-1.1 2.4-2.4 2.4"></path><path fill-rule="evenodd" clip-rule="evenodd" fill="#fff" d="m30 29.2h-8c-1.3 0-2.4-1.1-2.4-2.4v-1.6c0-1.3 1.1-2.4 2.4-2.4h8c1.3 0 2.4 1.1 2.4 2.4v1.6c0 1.3-1.1 2.4-2.4 2.4"></path><path fill-rule="evenodd" clip-rule="evenodd" fill="#fff" d="m12.4 29.2h-8c-1.4 0-2.4-1.1-2.4-2.4v-1.6c0-1.3 1.1-2.4 2.4-2.4h8c1.3 0 2.4 1.1 2.4 2.4v1.6c0 1.3-1.1 2.4-2.4 2.4"></path><path fill-rule="evenodd" clip-rule="evenodd" fill="#fff" d="m43.6 34h-35.2c-1.8 0-3.2 1.4-3.2 3.2v8c0 1.8 1.4 3.2 3.2 3.2h35.2c1.8 0 3.2-1.4 3.2-3.2v-8c0-1.8-1.5-3.2-3.2-3.2z m-1.6 8.8c0 0.4-0.4 0.8-0.8 0.8h-30.4c-0.4 0-0.8-0.4-0.8-0.8v-3.2c0-0.4 0.4-0.8 0.8-0.8h30.4c0.4 0 0.8 0.4 0.8 0.8v3.2z m1.6-39.2h-35.2c-1.8 0-3.2 1.4-3.2 3.2v8c0 1.8 1.4 3.2 3.2 3.2h35.2c1.8 0 3.2-1.4 3.2-3.2v-8c0-1.8-1.5-3.2-3.2-3.2z m-1.6 8.8c0 0.4-0.4 0.8-0.8 0.8h-30.4c-0.4 0-0.8-0.4-0.8-0.8v-3.2c0-0.4 0.4-0.8 0.8-0.8h30.4c0.4 0 0.8 0.4 0.8 0.8v3.2z"></path></svg>