<?xml version="1.0"?><svg xmlns="http://www.w3.org/2000/svg" width="52" height="52" viewBox="0 0 52 52"><path fill="#fff" d="m48.5 2h-45c-0.8 0-1.5 0.7-1.5 1.5v32.4c0 0.8 0.7 1.5 1.5 1.5h45c0.8 0 1.5-0.7 1.5-1.5v-32.4c0-0.8-0.7-1.5-1.5-1.5z"></path><circle fill="#fff" cx="20" cy="46" r="4"></circle><circle fill="#fff" cx="8" cy="46" r="4"></circle><path fill="#fff" d="m32 44c1.1 0 2 0.9 2 2s-0.9 2-2 2-2-0.9-2-2 0.9-2 2-2m0-2c-2.2 0-4 1.8-4 4s1.8 4 4 4 4-1.8 4-4-1.8-4-4-4z"></path><circle fill="#fff" cx="44" cy="46" r="4"></circle></svg>