<?xml version="1.0"?><svg xmlns="http://www.w3.org/2000/svg" width="52" height="52" viewBox="0 0 52 52"><path fill="#fff" d="m26 7.9v-5.3c0-0.5 0.6-0.8 1.1-0.5l10.3 8.5c0.4 0.3 0.4 0.9 0 1.2l-10.3 8.4c-0.4 0.4-1.1 0-1.1-0.4v-5.4c-8 0-14.6 6.5-14.6 14.6s6.6 14.5 14.6 14.5 14.6-6.5 14.6-14.6c0-2.3-0.5-4.5-1.5-6.5 0 0 0-0.1-0.1-0.2-0.2-0.4-0.4-0.9-0.6-1.2-0.3-0.5-0.6-1.3 0-1.8s3.1-2.6 3.3-2.7c0.2-0.1 0.9-0.8 1.6 0.2 0.4 0.6 0.9 1.5 1.3 2.2 0 0.1 0.1 0.1 0.1 0.2 0.2 0.3 0.3 0.6 0.4 0.7 1.3 2.7 2 5.8 2 9.1 0 11.6-9.4 21-21 21s-21.1-9.3-21.1-20.9 9.4-21.1 21-21.1z"></path></svg>