<?xml version="1.0"?><svg xmlns="http://www.w3.org/2000/svg" width="52" height="52" viewBox="0 0 52 52"><title></title><desc></desc><g fill="#fff"><path d="m43 23.1h5c1.1 0 2 0.9 2 2v2c0 1.1-0.9 2-2 2h-5c-0.6 0-0.9-0.5-0.8-1 0 0 0.3-1 0.3-2s-0.3-2.1-0.3-2.1c-0.1-0.6 0.3-1 0.8-0.9z m-32.2 17.9h-6.8c-1.1 0-2 0.9-2 2v2c0 1.1 0.9 2 2 2h6.8c1 1.8 3 3 5.2 3 3.3 0 6-2.7 6-6s-2.7-6-6-6c-2.2 0-4.2 1.2-5.2 3z m15.4 1s0.3 1.1 0.3 2.1-0.3 2-0.3 2c-0.1 0.5 0.2 1 0.8 1h21c1.1 0 2-0.9 2-2v-2c0-1.1-0.9-2-2-2h-21c-0.6-0.1-0.9 0.3-0.8 0.9z m4-36s0.3 1.1 0.3 2.1-0.3 2-0.3 2c-0.1 0.5 0.2 1 0.8 1h17c1.1 0 2-0.9 2-2v-2c0-1.1-0.9-2-2-2h-17c-0.5-0.1-0.9 0.3-0.8 0.9z m-15.4-1h-10.8c-1.1 0-2 0.9-2 2v2c0 1.1 0.9 2 2 2h10.8c1 1.8 3 3 5.2 3 3.3 0 6-2.7 6-6s-2.7-6-6-6c-2.2 0-4.2 1.2-5.2 3z m12 18h-22.8c-1.1 0-2 0.9-2 2v2c0 1.1 0.9 2 2 2h22.8c1 1.8 3 3 5.2 3 3.3 0 6-2.7 6-6s-2.7-6-6-6c-2.2 0-4.2 1.2-5.2 3z"></path></g></svg>