<?xml version="1.0"?><svg xmlns="http://www.w3.org/2000/svg" width="52" height="52" viewBox="0 0 52 52"><path fill="#fff" d="m13.6 15.1c-3.4 7.5-3.4 10.5 0 18.1h2.5c-3-6.6-3-11.5-0.1-18.1h-2.4z m23.3 14.3c0.5-0.1 1-0.2 1.5-0.2 0.4 0 0.7 0 1.1 0.1 1.7-5.1 1.3-8.1-1.5-14.3h-2.5c2.4 5.4 2.9 9.6 1.4 14.4z m-14.6 9h-14.2c-1.1 0-2-0.9-2-2v-26.2h39.4v20.9c1.5 0.2 2.8 0.7 4 1.4v-26.4c0-2.2-1.8-4-4-4h-39.3c-2.2 0-4 1.8-4 4v32.3c0 2.2 1.8 4 4 4h14.8c0.1-1.4 0.5-2.8 1.3-4z m13-3.8c0.8-0.8 1.9-1.3 3.2-1.3 1.7 0 3.1 0.9 3.9 2.2 0.6-0.2 1.4-0.5 2.2-0.5 2.9 0 5.4 2.4 5.4 5.3s-2.4 5.3-5.4 5.3c-0.3 0-0.7 0-1-0.1-0.6 1.2-2 2-3.4 2-0.6 0-1.2-0.2-1.7-0.4-0.7 1.6-2.3 2.7-4.1 2.7-2 0-3.6-1.2-4.2-2.8-0.2 0-0.6 0.1-0.9 0.1-2.3 0-4.2-1.8-4.2-4.1 0-1.5 0.8-2.8 2.1-3.6-0.2-0.6-0.4-1.2-0.4-1.9 0-2.6 2.2-4.7 4.8-4.7 1.5-0.1 2.8 0.7 3.7 1.8z m-12.3-5.7c0.7-1.2 1.5-2.5 1.5-2.5 0.2 1.1 0.4 2 0.6 2.4 0.2 0.7 0.7 1.3 1.3 1.7 1.4-1 3.2-1.6 5.1-1.6h0.2c0-0.6-0.5-1.1-1.1-1.1-0.2 0-0.3 0.1-0.5 0.1 0 0-1.2 0.6-1.6 0.2-0.3-0.6-0.6-1.3-0.7-2.2-0.2-0.8-0.4-1.7-0.6-2.7l1.2-1.7s1.3 0.5 2 0.5 2.1-0.6 2.1-2.4-1.3-1.9-1.7-1.9c-0.8 0-1.6 0.6-2.3 1.7-0.7 1.2-1.5 2.5-1.5 2.5-0.2-0.9-0.3-1.6-0.4-1.9-0.2-0.7-1-2.4-2.8-2.4-1.8 0-3.4 1-3.4 1-0.3 0.2-0.5 0.6-0.5 0.9 0 0.6 0.5 1.1 1.1 1.1 0.2 0 0.3-0.1 0.5-0.1 0 0 1.3-0.8 1.7 0 0.1 0.2 0.2 0.5 0.2 0.8 0.3 1.2 0.6 2.5 0.9 3.8l-1.2 1.7s-1.3-0.5-2-0.5-2.1 0.6-2.1 2.4 1.3 1.9 1.7 1.9c0.9 0.1 1.7-0.5 2.3-1.7z"></path></svg>