<?xml version="1.0"?><svg xmlns="http://www.w3.org/2000/svg" width="52" height="52" viewBox="0 0 52 52"><path fill="#fff" d="m6.3 4.3h4c-4.8 10.6-4.8 18.6 0 29.2h-4c-5.6-12.2-5.5-17 0-29.2z m17.4 18.1c0.4 1.8 0.7 3.3 0.9 3.9 0.3 0.9 0.8 1.6 1.4 2.1 1.5-1.2 3.4-1.9 5.4-1.9 1.3 0 2.5 0.3 3.6 0.8 0.2-0.3 0.3-0.6 0.3-0.9 0-1-0.8-1.8-1.8-1.8-0.3 0-0.5 0.1-0.8 0.2 0 0-1.9 1.1-2.6 0.2-0.5-0.9-0.9-2.1-1.2-3.5-0.3-1.3-0.6-2.8-0.9-4.3l1.9-2.8s2.2 0.8 3.3 0.8 3.3-0.9 3.3-3.8-2.1-3.1-2.8-3.1c-1.3 0-2.6 0.9-3.7 2.9s-2.4 4.2-2.4 4.2c-0.3-1.4-0.5-2.5-0.6-3-0.2-1.2-1.6-3.9-4.5-3.9s-5.6 1.7-5.6 1.7c-0.5 0.3-0.8 0.9-0.8 1.5 0 1 0.8 1.8 1.8 1.8 0.3 0 0.5-0.1 0.8-0.2 0 0 2.2-1.2 2.7 0 0.1 0.4 0.3 0.8 0.4 1.2 0.6 1.9 1.1 4.1 1.5 6.2l-1.9 2.7s-2.2-0.8-3.3-0.8c-1.1 0-3.3 0.9-3.3 3.8s2.1 3.1 2.8 3.1c1.3 0 2.6-0.9 3.7-2.9s2.4-4.2 2.4-4.2z m19.8 6.4c0.1 0 0.1 0.1 0.2 0.1h0.9c1 0 2 0.2 2.9 0.5 3.6-9.4 3-14.4-1.9-25.1h-4c4.1 9 4.7 16.1 1.9 24.5z m-8.2 3.6c0.8-0.8 1.9-1.3 3.2-1.3 1.6 0 3.1 0.9 3.9 2.2 0.7-0.3 1.4-0.5 2.2-0.5 3 0 5.4 2.4 5.4 5.4 0 3-2.4 5.4-5.4 5.4-0.4 0-0.7 0-1.1-0.1-0.7 1.2-2 2-3.4 2-0.6 0-1.2-0.2-1.7-0.4-0.7 1.6-2.3 2.7-4.1 2.7-2 0-3.6-1.2-4.2-2.9-0.3 0-0.5 0.1-0.9 0.1-2.3 0-4.2-1.8-4.2-4.1 0-1.5 0.8-2.9 2.1-3.6-0.3-0.6-0.4-1.2-0.4-1.9 0-2.6 2.2-4.8 4.8-4.8 1.5-0.1 2.9 0.7 3.8 1.8z"></path></svg>