<?xml version="1.0"?><svg xmlns="http://www.w3.org/2000/svg" width="52" height="52" viewBox="0 0 52 52"><g fill="#fff"><path d="m43.1 29.5h-0.2c-1.6-0.2-2.9-0.6-4.1-1.5-0.1-0.1-0.1-0.1-0.2-0.1-0.6-0.5-1.1-0.2-1.4-0.1l-0.1 0.1c-1.5 1.1-3.2 1.7-5.2 1.7-2.1 0-3.8-0.6-5.4-1.8-0.6-0.4-1 0-1 0-1.6 1.3-3.4 1.9-5.5 1.9-2 0-3.8-0.6-5.3-1.8-0.1-0.1-0.2-0.1-0.2-0.2-0.5-0.4-1 0-1 0-1.5 1.2-3.2 1.8-5.1 1.9 0 0-0.6 0-0.6 0.7v14.9c0 0.3 0.2 1 1.1 1.2h18.5c1-0.2 1.1-0.9 1.1-1.2v-10.6c0.1-0.3 0.2-0.6 1-0.6h8.9c0.3 0.1 0.6 0.3 0.6 1v10c0 1.1 0.8 1.3 1 1.3h2.8c0.2 0 1-0.2 1-1.3v-14.4c0.1-0.8-0.3-1-0.7-1.1z m-19.9 11.5v0.3c0 0.4-0.2 1-1.2 1h-8.1c-0.9 0-1.1-0.4-1.2-0.8v-6.1c0-1.4 0.8-1.5 1.1-1.5h8.5c0.3 0 1 0.2 1 1.3-0.1 2-0.1 3.9-0.1 5.8z m19.1-15.5c2.2 0.6 4.1 0.2 5.7-1.4 1-1 1.7-2.2 1.9-3.5v-0.2c-0.2-0.5-0.4-1-0.6-1.4-2.4-4.3-4.7-8.6-7-12.9-0.3-0.6-1-0.6-1.2-0.6h-30.5s-0.9 0-1.2 0.6c-2.4 4.3-4.7 8.7-7 12.9-0.2 0.4-0.4 1-0.4 1.6v0.2c0.2 1.4 0.8 2.6 1.8 3.5 1.8 1.6 3.8 2 6.2 1.2 1.3-0.5 2.2-1.3 3-2.5l0.3-0.3c0.5-0.3 1.1-0.2 1.5 0.3 0.4 0.6 0.9 1.2 1.5 1.6 1.7 1.3 3.6 1.5 5.6 0.9 1.3-0.4 2.3-1.3 3-2.5 0.4-0.6 1.4-0.7 1.8 0 0.2 0.2 0.3 0.5 0.5 0.7 1 1.2 2.3 1.9 3.8 2.1 1.4 0.2 2.8-0.2 4.1-1 0.7-0.5 1.3-1.1 1.7-1.8 0.5-0.6 1.4-0.6 1.8 0 0.8 1.3 1.8 2.1 3.3 2.5h0.4z"></path></g></svg>