<?xml version="1.0"?><svg xmlns="http://www.w3.org/2000/svg" width="52" height="52" viewBox="0 0 52 52"><path d="m5.2 3h35.6a3.3 3.3 0 0 1 3.2 3.3v3.4a3.3 3.3 0 0 1-3.2 3.3h-35.6a3.3 3.3 0 0 1-3.2-3.3v-3.4a3.3 3.3 0 0 1 3.2-3.3z m0 15h19.7a3.3 3.3 0 0 1 3.1 3.3v3.4a3.3 3.3 0 0 1-3.1 3.3h-19.7a3.3 3.3 0 0 1-3.2-3.3v-3.4a3.3 3.3 0 0 1 3.2-3.3z m33.8 10a11 11 0 1 1-11 11 11 11 0 0 1 11-11z m7 7.9a0.8 0.8 0 0 0 0-1l-1.1-1a0.8 0.8 0 0 0-1.1 0l-6 6.7-2.8-2.7a0.8 0.8 0 0 0-1.1 0l-1.1 1a0.7 0.7 0 0 0 0 1l3.8 3.8a1.6 1.6 0 0 0 1.2 0.5 1.4 1.4 0 0 0 1.1-0.5z m-40.8-2.9h18.6a16.1 16.1 0 0 0-1 5 17.1 17.1 0 0 0 0.4 5h-18a3.3 3.3 0 0 1-3.2-3.3v-3.4a3.3 3.3 0 0 1 3.2-3.3z" fill="#fff"></path></svg>