<?xml version="1.0"?><svg xmlns="http://www.w3.org/2000/svg" width="52" height="52" viewBox="0 0 52 52"><path fill="#fff" d="m25 46.5c0-3 1.4-5.2 3.4-6.5v-3c-1-0.7-1.8-1.8-2.2-3-0.4-1.7 0.2-3.6 1.2-5 0.2-0.3 0.6-0.6 0.9-1 0.3-0.3 0.7-0.6 1.1-0.7 2.1-1.1 4.5-1.9 6.9-1.9 2.2 0 4.1 0.9 5.4 2.2 1.9-1.9 3.9-2.3 5.1-2.3 1.1 0 2.2 0.2 3.1 0.7v-0.2c0.1-13-10.7-23.8-23.9-23.8s-24 10.8-24 24 10.7 24 23.8 24c-0.5-1-0.8-2.1-0.8-3.5z m20-22.9h-6.3c-0.2-5.6-1.5-10.6-3.4-14.4 5.3 3 8.9 8.3 9.7 14.4z m-16.6-15.7c2.7 2.3 5.1 8.2 5.5 15.8h-5.5v-15.8z m-21.4 20.5h6.3c0.2 5.7 1.5 10.6 3.4 14.4-5.3-2.9-8.9-8.2-9.7-14.4z m6.3-4.8h-6.3c0.8-6.2 4.5-11.4 9.8-14.4-2 3.8-3.2 8.8-3.5 14.4z m10.3 20.6c-2.7-2.3-5.1-8.2-5.5-15.8h5.5v15.8z m0-20.6h-5.5c0.4-7.5 2.8-13.4 5.5-15.8v15.8z m22.8 12.4c1 0 3.1-0.9 3.1-3.6s-2-2.9-2.6-2.9c-1.2 0-2.4 0.9-3.4 2.7-1.1 1.8-2.3 3.9-2.3 3.9h-0.1c-0.2-1.3-0.5-2.4-0.6-2.9-0.2-1.1-1.5-3.6-4.2-3.6s-5.2 1.6-5.2 1.6c-0.5 0.3-0.8 0.8-0.8 1.4 0 0.9 0.7 1.7 1.7 1.7 0.2 0 0.5-0.1 0.7-0.2 0 0 2.1-1.1 2.5 0 0.2 0.3 0.2 0.7 0.4 1.1 0.6 1.8 1 3.9 1.4 5.8l-1.8 2.5s-2-0.7-3-0.7-3.1 0.9-3.1 3.6 2 2.9 2.6 2.9c1.2 0 2.4-0.9 3.4-2.7 1-1.8 2.2-3.9 2.2-3.9 0.3 1.7 0.6 3 0.8 3.6 0.7 1.9 2.2 3.1 4.3 3.1 0 0 2.2 0 4.6-1.4 0.6-0.2 1-0.9 1-1.5 0-0.9-0.7-1.7-1.7-1.7-0.2 0-0.5 0.1-0.7 0.2 0 0-1.8 1-2.4 0.2-0.5-0.8-0.8-1.9-1.1-3.4-0.2-1.2-0.6-2.6-0.9-4.1l1.8-2.6c0.4 0.1 2.4 0.9 3.4 0.9z"></path></svg>