<?xml version="1.0"?><svg xmlns="http://www.w3.org/2000/svg" width="52" height="52" viewBox="0 0 52 52"><g fill="#fff"><path d="m21.5 20h9c0.8 0 1.5-0.7 1.5-1.5v-3c0-0.8-0.7-1.5-1.5-1.5h-9c-0.8 0-1.5 0.7-1.5 1.5v3c0 0.8 0.7 1.5 1.5 1.5z m25-6h-9c-0.8 0-1.5 0.7-1.5 1.5v3c0 0.8 0.7 1.5 1.5 1.5h9c0.8 0 1.5-0.7 1.5-1.5v-3c0-0.8-0.7-1.5-1.5-1.5z m-41-4h41c0.8 0 1.5-0.7 1.5-1.5v-5c0-0.8-0.7-1.5-1.5-1.5h-41c-0.8 0-1.5 0.7-1.5 1.5v5c0 0.8 0.7 1.5 1.5 1.5z m42.5 17.4v-1.9c0-0.8-0.7-1.5-1.5-1.5h-2.7c1.3 0.7 2.5 1.6 3.5 2.7 0.3 0.2 0.5 0.5 0.7 0.7z m-28-1.9v3c0 0.8 0.7 1.5 1.5 1.5h0.7c0.7-1.2 1.5-2.3 2.5-3.3 1.1-1.1 2.3-2 3.5-2.7h-6.7c-0.8 0-1.5 0.7-1.5 1.5z m4.7 23.8c-1.5-1.5-2.7-3.3-3.5-5.2-0.7 0.1-1.2 0.8-1.2 1.5v3c0 0.8 0.7 1.5 1.5 1.5h4c-0.3-0.3-0.5-0.6-0.8-0.8z m-10.2-35.3h-9c-0.8 0-1.5 0.7-1.5 1.5v3c0 0.8 0.7 1.5 1.5 1.5h9c0.8 0 1.5-0.7 1.5-1.5v-3c0-0.8-0.7-1.5-1.5-1.5z m0 10h-9c-0.8 0-1.5 0.7-1.5 1.5v3c0 0.8 0.7 1.5 1.5 1.5h9c0.8 0 1.5-0.7 1.5-1.5v-3c0-0.8-0.7-1.5-1.5-1.5z m0 20h-9c-0.8 0-1.5 0.7-1.5 1.5v3c0 0.8 0.7 1.5 1.5 1.5h9c0.8 0 1.5-0.7 1.5-1.5v-3c0-0.8-0.7-1.5-1.5-1.5z m0-10h-9c-0.8 0-1.5 0.7-1.5 1.5v3c0 0.8 0.7 1.5 1.5 1.5h9c0.8 0 1.5-0.7 1.5-1.5v-3c0-0.8-0.7-1.5-1.5-1.5z m21.6 1c-1.7 0-3 1.3-3 3s1.3 3 3 3c1.6 0 2.9-1.4 3-3-0.1-1.7-1.4-3-3-3z m8.4-5.5c-4.7-4.7-12.3-4.7-17 0-4.7 4.7-4.7 12.3 0 17 4.7 4.7 12.3 4.7 17 0 4.7-4.7 4.7-12.3 0-17z m-0.6 9.5c0 0.3-0.1 0.5-0.5 0.5-0.4 0.1-0.8 0.1-1.2 0.1-0.1 0-0.1 0.1-0.1 0.1-0.1 0.5-0.4 0.8-0.5 1.3-0.1 0.1-0.1 0.1 0 0.2 0.2 0.4 0.5 0.7 0.7 1 0.1 0.2 0.1 0.5-0.1 0.7l-1.3 1.3c-0.2 0.1-0.3 0.1-0.4 0.1s-0.3-0.1-0.3-0.1c-0.3-0.2-0.7-0.5-1-0.7 0-0.1-0.1-0.1-0.1-0.1h-0.1c-0.3 0.1-0.8 0.4-1.3 0.5-0.1 0-0.1 0.1-0.1 0.1-0.1 0.4-0.1 0.8-0.1 1.2-0.1 0.3-0.5 0.5-0.5 0.5h-1.9c-0.3 0-0.5-0.1-0.5-0.5-0.1-0.4-0.1-0.8-0.1-1.2 0-0.1-0.1-0.1-0.1-0.1-0.5-0.1-0.8-0.4-1.3-0.5h-0.1c-0.1 0-0.1 0.1-0.1 0.1-0.4 0.2-0.7 0.5-1 0.7-0.1 0.1-0.3 0.1-0.3 0.1-0.2 0-0.3 0-0.4-0.1l-1.3-1.3c-0.2-0.2-0.2-0.5-0.1-0.7 0.2-0.3 0.5-0.7 0.7-1 0.1-0.1 0-0.1 0-0.2-0.1-0.5-0.4-0.8-0.5-1.3 0-0.1-0.1-0.1-0.1-0.1-0.4-0.1-0.7-0.1-1.1-0.1-0.2-0.1-0.4-0.2-0.5-0.4v-2.2c0.1-0.3 0.3-0.4 0.5-0.4 0.4-0.1 0.7-0.1 1.1-0.1 0.1 0 0.1-0.1 0.1-0.1 0.1-0.5 0.4-0.8 0.5-1.3 0.1-0.1 0.1-0.1 0-0.2-0.2-0.4-0.5-0.7-0.7-1-0.1-0.2-0.1-0.5 0.1-0.7l1.3-1.3c0.2-0.1 0.2-0.1 0.4-0.1s0.3 0.1 0.3 0.1c0.4 0.2 0.7 0.5 1 0.7l0.1 0.1c0.5-0.1 0.8-0.4 1.3-0.5 0.1 0 0.1-0.1 0.1-0.1 0.1-0.4 0.1-0.7 0.1-1.1 0-0.2 0.2-0.4 0.3-0.5 0.1-0.1 0.2-0.1 0.3-0.1h1.9s0.1 0 0.1 0.1c0.3 0.1 0.3 0.3 0.3 0.5 0.1 0.4 0.1 0.7 0.1 1.1 0 0.1 0.1 0.1 0.1 0.1 0.5 0.1 0.8 0.4 1.3 0.5h0.1s0-0.1 0.1-0.1c0.3-0.2 0.7-0.5 1-0.7 0.1-0.1 0.3-0.1 0.3-0.1 0.1 0 0.3 0.1 0.3 0.1l1.3 1.3c0.2 0.2 0.2 0.5 0.1 0.7-0.2 0.3-0.5 0.7-0.7 1v0.2c0.1 0.3 0.4 0.8 0.5 1.3 0 0.1 0.1 0.1 0.1 0.1 0.4 0.1 0.8 0.1 1.2 0.1 0.3 0.1 0.5 0.2 0.5 0.7v1.8z"></path></g></svg>