<?xml version="1.0"?><svg xmlns="http://www.w3.org/2000/svg" width="52" height="52" viewBox="0 0 52 52"><title></title><path d="m26.2 2.3h-0.2a18.7 18.7 0 0 0-18.7 18.7v0.2c0 13 13.4 25 17.6 28.1a2 2 0 0 0 2.5 0c4.2-3.3 17.5-15.1 17.5-28.1a19 19 0 0 0-18.7-18.9z m-0.2 5.2a13.5 13.5 0 0 1 10.6 21.9c-1.1-1.6-3.4-2.8-5.6-3.7a0.4 0.4 0 0 0-0.3-0.1 0.8 0.8 0 0 0-0.7 0 8.1 8.1 0 0 1-4 1.2 7 7 0 0 1-4-1.2 0.8 0.8 0 0 0-0.7 0 0.4 0.4 0 0 1-0.3 0.1c-2.2 1-4.5 2.1-5.6 3.8a13.6 13.6 0 0 1 10.6-22z" fill="#fff"></path><ellipse cx="26" cy="18.3" rx="5.6" ry="6.2" fill="#fff"></ellipse></svg>