<?xml version="1.0"?><svg xmlns="http://www.w3.org/2000/svg" width="52" height="52" viewBox="0 0 52 52"><path fill="#fff" d="m49.4 47.9c-0.2-3.2-0.3-6.5-0.3-9.7 0-1.6 0-3.2 0.1-4.9 0-1.5 0.2-3-0.4-4.4-1.3-3.2-5.5-3.8-8.5-3.8-1.5 0-3.1 0.2-4.7 0.6-1.1 0.3-2.2 0.7-3.1 1.2l1 2.5c0.2 0.5 0.3 1 0.4 1.5 2-1 4-1.5 6.1-1.5 3.2 0 4.8 1.3 4.8 3.8v1.2h-2.2c-4.1 0-7.2 0.6-9.3 1.8-2.3 1.1-3.3 3.2-3.3 6.3 0 2.3 0.7 4.1 2.1 5.3 1.4 1.2 3.2 1.9 5.4 1.9 1.9 0 3.4-0.3 4.6-0.8 1.2-0.5 2.2-1.4 3-2.5h0.1c0.1 0.5 0.2 1.4 0.4 2.6 0 0.1 3.6 0 3.9 0 0-0.4-0.1-0.7-0.1-1.1z m-4.6-7.9c0 0.6-0.1 1.1-0.3 1.6-0.1 0.4-0.3 0.8-0.6 1.1-1 1.4-2.6 2.1-4.2 2.3-1 0.2-2 0.1-3-0.1-0.8-0.1-1.5-0.5-2-1.2-0.7-1.1-0.5-2.8 0.2-3.8 0.5-0.6 1.2-1 1.9-1.3 1.9-0.6 4.2-0.6 6.2-0.6h1.7v2z m-14.9-9l-11.2-27.6c-0.2-0.5-0.6-0.9-1.2-0.9h-3.5c-0.5 0-1.1 0.4-1.3 0.9l-10.1 27.6c-0.3 0.5 0.2 1.2 0.7 1.2h3.9c0.5 0 1.1-0.4 1.3-1l2.5-7.2h10l2.9 7.2c0.2 0.5 0.7 1 1.3 1h3.9c0.6 0 1-0.7 0.8-1.2z m-16.8-12.5l2.9-7.5 3.2 7.5h-6.1z"></path></svg>