<?xml version="1.0"?><svg xmlns="http://www.w3.org/2000/svg" width="52" height="52" viewBox="0 0 52 52"><title></title><desc></desc><g fill="#fff"><path d="m39.2 2h-26.8c-5.8 0.2-10.4 4.9-10.4 10.8s4.6 10.6 10.4 10.8h26.8c5.9 0 10.8-4.8 10.8-10.8s-4.8-10.8-10.8-10.8z m-26.5 16.8c-3.3 0-6-2.7-6-6s2.7-6 6-6 6 2.7 6 6-2.7 6-6 6z m26.5 9.7h-26.8c-5.8 0.2-10.4 4.9-10.4 10.7s4.6 10.6 10.4 10.8h26.8c6 0 10.8-4.8 10.8-10.8s-4.8-10.7-10.8-10.7z m0.4 18.4h-27.3c-4-0.2-7.2-3.5-7.2-7.6s3.2-7.4 7.2-7.6h27.3c4 0.2 7.2 3.5 7.2 7.6s-3.2 7.4-7.2 7.6z"></path><circle cx="39.2" cy="39.2" r="5.2"></circle></g></svg>