<?xml version="1.0"?><svg xmlns="http://www.w3.org/2000/svg" width="52" height="52" viewBox="0 0 52 52"><title></title><desc></desc><path fill="#fff" d="m12.3 37l-2.6 3h5.1z m2.4 6.1h5.1l-2.6-2.9z m20.5-2.1l2.5-2.9 2.6 2.9z m-8.4-38.8c-0.4-0.2-0.9-0.2-1.4 0-14.3 6-23.5 20.2-23.2 35.8v3.4c0 0.5 0.2 1 0.7 1.4 6.9 4.6 15 7.1 23.3 7.2h0.9c7.9-0.3 15.7-2.7 22.3-7.2 0.4-0.3 0.7-0.8 0.7-1.4v-3.4c0.3-15.6-8.9-29.8-23.3-35.8z m-12.9 12.6c5.8-6.9 12.3-9.2 12.3-9.2 1.4 0.6 16.9 6.7 20.2 26.4h-4.1l-7.8-11.3c-0.5-0.7-1.6-0.9-2.4-0.4-0.2 0.1-0.3 0.3-0.4 0.4l-2 2.8-5.5-7.9c-0.5-0.7-1.6-0.9-2.4-0.4-0.2 0.1-0.3 0.3-0.4 0.4l-11.2 16.3-4.1 0.1c1.2-7.5 4.3-13 7.8-17.2z m24.2 17.2h-10.1l2.6-3.8 2.4-3.6 5.1 7.4z m-14.4-11.1l4 5.7-3.8 5.3h-9.6l4.1-6.1 4.3-6.4 1 1.5z m3.8 23.1l-1.5 2.6c-2.9 0-5.6-0.4-8.8-1.1-4.1-1-8-2.7-11.6-4.9v-2.5c0-0.8 0-1.7 0.1-2.6h17.6c-1.4 2.1-0.7 4.9 1.5 6.2 0.2 0.1 0.4 0.2 0.5 0.3l1.6 0.7c0.6 0.2 0.8 0.8 0.6 1.3z m19.3-3.5c-2.6 1.6-5.3 2.9-8.1 3.9 0 0-0.5 0.2-0.7 0.2-1.6 0.5-3.2 0.9-4.9 1.3-0.9 0.2-1.9 0.3-2.8 0.4l0.3-0.5c1.3-2.2 0.5-4.9-1.7-6.2-0.1-0.1-0.3-0.1-0.4-0.2l-1.6-0.7c-0.5-0.2-0.8-0.8-0.5-1.4 0-0.1 0.1-0.2 0.1-0.2l1.5-1.7h18.7c0 0.8 0.1 1.7 0.1 2.6v2.5z"></path></svg>