<?xml version="1.0"?><svg xmlns="http://www.w3.org/2000/svg" width="52" height="52" viewBox="0 0 52 52"><path fill="#fff" d="m18.1 36.9l9.4-9.5 0.7-0.7 8.4-8.4 3.7-3.7 4.1-4.1c0.7-0.6 0.8-1.5 0.3-2l-1.8-1.8c-0.4-0.4-1.1-0.4-1.7-0.1l-34.5 34.3v0.1c-0.6 0.6-0.7 1.5-0.3 2l1.8 1.8c0.5 0.5 1.4 0.4 2-0.3l4-4c0 0.1 3.9-3.6 3.9-3.6z m0.3-13.8c-0.5 0-0.8 0.4-1 0.8-0.1 0.6-0.1 1.2-0.1 1.8 0 0.4 0 0.8 0.1 1.2l3.8-3.8h-2.8z m-10.1 12.9l4-4c-2.8-0.6-5-3-5.2-5.8-0.3-3.8 2.8-6.9 6.5-6.9h9.1c0.7 0 1.4 0.1 2.1 0.4l3.9-3.9c-0.9-0.5-1.8-1-2.7-1.2-1-0.3-2.2-0.5-3.2-0.5h-8.7c-6.6-0.1-12 4.8-12.2 11.1-0.2 4.7 2.4 8.8 6.4 10.8z m34.8-20.7l-4 4c2.9 0.5 5.2 2.9 5.4 5.9 0.3 3.8-2.8 6.9-6.5 6.9h-9c-0.8 0-1.6-0.2-2.3-0.4l-3.9 3.9c0.9 0.6 1.8 1 2.8 1.3 1 0.3 2.2 0.5 3.2 0.5h9.2c6.6 0.1 11.9-5.4 11.7-12-0.2-4.6-2.9-8.3-6.6-10.1z m-13 13h3c0.5 0 0.8-0.4 1-0.8 0.1-0.6 0.1-1.2 0.1-1.8 0-0.5 0-0.9-0.1-1.4l-4 4z"></path></svg>