<?xml version="1.0"?><svg xmlns="http://www.w3.org/2000/svg" width="52" height="52" viewBox="0 0 52 52"><title></title><path d="m38.3 27.2a11.4 11.4 0 1 0 11.4 11.4 11.5 11.5 0 0 0-11.4-11.4z m2 12.4a2.4 2.4 0 0 1-0.9-0.2l-4.3 4.3a1.4 1.4 0 0 1-0.9 0.4 1 1 0 0 1-0.9-0.4 1.4 1.4 0 0 1 0-1.9l4.3-4.3a2.9 2.9 0 0 1-0.2-0.9 3.5 3.5 0 0 1 3.4-3.8 2.4 2.4 0 0 1 0.9 0.2c0.2 0 0.2 0.2 0.1 0.3l-2 1.9a0.3 0.3 0 0 0 0 0.5l1.3 1.3a0.4 0.4 0 0 0 0.6 0l1.9-1.9c0.1-0.1 0.4-0.1 0.4 0.1a3.7 3.7 0 0 1 0.2 0.9 3.6 3.6 0 0 1-3.9 3.5z" fill="#fff"></path><circle cx="21.7" cy="14.9" r="12.9" fill="#fff"></circle><path d="m25.2 49.8c2.2 0 1-1.5 1-1.5a15.4 15.4 0 0 1-3.4-9.7 15 15 0 0 1 1.4-6.4 0.8 0.8 0 0 1 0.2-0.3c0.7-1.4-0.7-1.5-0.7-1.5a12.1 12.1 0 0 0-1.9-0.1 19.7 19.7 0 0 0-19.4 16.8c0 1 0.3 2.8 3.4 2.8h19.1c0.2-0.1 0.2-0.1 0.3-0.1z" fill="#fff"></path></svg>