<?xml version="1.0"?><svg xmlns="http://www.w3.org/2000/svg" width="52" height="52" viewBox="0 0 52 52"><title></title><path d="m42.9 7h0.2l0.3 0.1a2.5 2.5 0 0 1 1.4 1l0.2 0.3 4.2 7.4c1.5 2.7 0.2 3.4-1.1 4.2s-2.5 1.1-3.9-0.8l-0.1-0.2-0.7-1.3-6.4 25a3 3 0 0 1-5.3 1.1l-0.1-0.1-10.7-16.5-5.5 12a3 3 0 0 1-2.7 1.8h-9.1c-0.4 0-1.5-0.4-1.5-1.4a4.1 4.1 0 0 0-0.1-1.3v-1.8a1.5 1.5 0 0 1 1.4-1.6h7.4l7-15.2a2.9 2.9 0 0 1 3.9-1.5 3 3 0 0 1 1.3 1.1l9.9 15.3 4.6-18.1-0.9 0.5c-1.9 1.3-2.7 0.7-3.9-0.8l-0.2-0.3c-0.8-1.3-1.1-2.6 0.1-3.5l1-0.7 7.4-4.3a3.1 3.1 0 0 1 1.9-0.4z" fill="#fff"></path></svg>