<?xml version="1.0"?><svg xmlns="http://www.w3.org/2000/svg" width="100" height="100" viewBox="0 0 100 100"><path d="m78 60a2 2 0 0 1 2 2v16a2 2 0 0 1-2 2h-16a2 2 0 0 1-2-2v-16a2 2 0 0 1 2-2z m-37.8-33.1l12.9 0.2a1.2 1.2 0 0 1 1.2 1.2l0.2 12.9a1.2 1.2 0 0 1-1.2 1.2h-2.3a1.2 1.2 0 0 1-1.2-1.2l-0.1-4a0.8 0.8 0 0 0-1.3-0.6l-7.9 7.9a10.3 10.3 0 0 1 1.5 5.5 11.1 11.1 0 0 1-1.9 6.2l8.3 8.3a0.8 0.8 0 0 0 1.3-0.6l0.1-4a1.2 1.2 0 0 1 1.2-1.2l2.4-0.1a1.2 1.2 0 0 1 1.2 1.2l-0.2 12.9a1.2 1.2 0 0 1-1.2 1.2l-12.9 0.2a1.2 1.2 0 0 1-1.2-1.2v-2.3a1.2 1.2 0 0 1 1.2-1.2l4-0.1a0.8 0.8 0 0 0 0.6-1.3l-8.4-8.4a11.2 11.2 0 0 1-5.5 1.4 11 11 0 1 1 6.2-20.1l7.8-7.8a0.8 0.8 0 0 0-0.6-1.3l-4-0.1a1.2 1.2 0 0 1-1.2-1.2l-0.1-2.4a1.1 1.1 0 0 1 1.1-1.2z m33.8 39.1h-8v8h8z m-43-21a5 5 0 1 0 5 5 5 5 0 0 0-5-5z m47-25a2 2 0 0 1 2 2v16a2 2 0 0 1-2 2h-16a2 2 0 0 1-2-2v-16a2 2 0 0 1 2-2z m-4 6h-8v8h8z" fill="#fff"></path></svg>