<?xml version="1.0"?><svg xmlns="http://www.w3.org/2000/svg" width="100" height="100" viewBox="0 0 100 100"><path fill="#fff" d="m50.2 40l14-14c0.7-0.7 0.7-1.9 0-2.6l-3-3c-0.7-0.7-1.9-0.7-2.6 0l-14 14 5.6 5.6z m15.4 15.8l14-14c0.7-0.7 0.7-1.9 0-2.6l-3-3c-0.7-0.7-1.9-0.7-2.6 0l-14 14 5.6 5.6z m-2 11.6c0.2-0.3 0.4-0.6 0.5-1 0.1-0.5 0-1-0.3-1.4-0.1-0.1-0.1-0.2-0.2-0.3l-0.1-0.1-28.2-28.2-0.1-0.1c-0.3-0.4-0.9-0.5-1.3-0.5-0.6 0-1 0.3-1.4 0.6-0.3 0.2-0.5 0.4-0.7 0.7-0.2 0.2-0.3 0.3-0.4 0.5-0.2 0.2-0.3 0.4-0.5 0.6-0.2 0.3-0.4 0.5-0.5 0.8-0.2 0.3-0.4 0.6-0.5 1-0.2 0.4-0.4 0.8-0.6 1.1-0.2 0.4-0.4 0.9-0.5 1.3-0.2 0.5-0.4 1-0.5 1.5-0.2 0.6-0.3 1.2-0.5 1.7-0.2 0.7-0.3 1.3-0.4 2-0.1 0.7-0.3 1.5-0.4 2.2l-0.3 2.4c-0.1 0.9-0.1 1.8-0.2 2.7v3c0 1.1 0 2.2 0.1 3.3 0.1 1.2 0.1 2.4 0.2 3.6 0 0.3 0.1 0.7 0.1 1h0.2l-6.5 6.5c-0.7 0.7-0.7 1.9 0 2.6l4.6 4.6c0.7 0.7 1.9 0.7 2.6 0l6.5-6.5c2.3 0.2 4.7 0.4 7.1 0.4 2 0 3.9 0 5.9-0.2 1.6-0.1 3.2-0.3 4.8-0.6 1.3-0.2 2.6-0.5 3.8-0.9 1-0.3 2-0.7 2.9-1.1 0.7-0.3 1.5-0.7 2.1-1.1 0.9-0.6 1.8-1.2 2.5-2 0 0.1 0.1 0 0.2-0.1z"></path></svg>