<?xml version="1.0"?><svg xmlns="http://www.w3.org/2000/svg" width="100" height="100" viewBox="0 0 100 100"><title></title><path d="m50.4 67.8a15.6 15.6 0 0 1 2.1-8.8h-15.4a0.8 0.8 0 0 1-0.9-0.9v-0.9a0.8 0.8 0 0 1 0.9-0.9h17.3a15.4 15.4 0 0 1 1.9-1.7 0.8 0.8 0 0 1-0.4-0.7v-12.8a0.9 0.9 0 1 1 1.8 0v12.7a11.5 11.5 0 0 1 2.5-1.2v-11.5a0.8 0.8 0 0 1 0.9-0.9h1.7a0.8 0.8 0 0 1 0.9 0.9v10.7c0.2 0 0.5-0.1 0.7-0.1a15.9 15.9 0 0 1 8.9 2.1v-27a2.4 2.4 0 0 0-2.4-2.4h-41.6a2.4 2.4 0 0 0-2.4 2.4v41.5a2.4 2.4 0 0 0 2.4 2.4h5.3v2.5a2.4 2.4 0 0 0 2.4 2.4h2.8a2.4 2.4 0 0 0 2.4-2.4v-2.5h8.7a9.3 9.3 0 0 1-0.5-2.9z m-3.8-13.8a0.8 0.8 0 0 1-0.9 0.9h-1.7a0.8 0.8 0 0 1-0.9-0.9v-12.9a0.8 0.8 0 0 1 0.9-0.9h1.7a0.8 0.8 0 0 1 0.9 0.9z m7.7 0a0.8 0.8 0 0 1-0.9 0.9h-3.4a0.8 0.8 0 0 1-0.9-0.9v-12.9a0.8 0.8 0 0 1 0.9-0.9h3.4a0.8 0.8 0 0 1 0.9 0.9z m-18-17.2a0.8 0.8 0 0 1 0.9-0.9h25.7a0.8 0.8 0 0 1 0.9 0.9v0.9a0.8 0.8 0 0 1-0.9 0.9h-25.8a0.8 0.8 0 0 1-0.9-0.9v-0.9z m0 4.3a0.8 0.8 0 0 1 0.9-0.9h3.4a0.8 0.8 0 0 1 0.9 0.9v12.9a0.8 0.8 0 0 1-0.9 0.9h-3.4a0.8 0.8 0 0 1-0.9-0.9z m28.4 19.8h1.2a0.7 0.7 0 0 1 0.6 0.6v5.4c0 0.2-0.1 0.3-0.2 0.5l-3.5 3.5a0.8 0.8 0 0 1-0.9 0l-0.7-0.9a0.8 0.8 0 0 1 0-0.9l2.9-2.9v-4.7a0.6 0.6 0 0 1 0.6-0.6z m14.1 5.4h-1.8v-0.4a11.6 11.6 0 1 0-11.7 12.4 11.5 11.5 0 0 0 8.6-3.6c0.2-0.2 0.4-0.4 0.2-0.6l-1-1.2a0.6 0.6 0 0 0-0.9 0 9.2 9.2 0 0 1-7.7 2.9 9.6 9.6 0 0 1-8.1-8 9.1 9.1 0 0 1 18.1-1.9v0.4h-1.8a0.7 0.7 0 0 0-0.6 0.6c0 0.2 0 0.3 0.1 0.4l3.1 3.8a0.7 0.7 0 0 0 1 0l3.1-3.8a0.8 0.8 0 0 0 0-0.9 1.5 1.5 0 0 0-0.6-0.1z" fill="#fff"></path></svg>