<?xml version="1.0"?><svg xmlns="http://www.w3.org/2000/svg" width="100" height="100" viewBox="0 0 100 100"><title></title><path d="m64.2 72.4a3.7 3.7 0 0 1-3.7-3.9v-2.1a3.5 3.5 0 0 1 1-3.1l11.6-11.6v-24.9a2.4 2.4 0 0 0-2.4-2.4h-41.4a2.4 2.4 0 0 0-2.4 2.4v41.5a2.4 2.4 0 0 0 2.4 2.4h5.3v2.5a2.4 2.4 0 0 0 2.4 2.4h2.8a2.4 2.4 0 0 0 2.4-2.4v-2.5h15.8v2.5a2.4 2.4 0 0 0 2.4 2.4h2.8a2.4 2.4 0 0 0 2.4-2.4v-0.8z m-27.9-35.6a0.8 0.8 0 0 1 0.9-0.9h25.7a0.8 0.8 0 0 1 0.9 0.9v0.9a0.8 0.8 0 0 1-0.9 0.9h-25.8a0.8 0.8 0 0 1-0.9-0.9v-0.9z m27.2 4.3v12.9a0.8 0.8 0 0 1-0.9 0.9h-1.7a0.8 0.8 0 0 1-0.9-0.9v-12.9a0.8 0.8 0 0 1 0.9-0.9h1.7q0.9 0.2 0.9 0.9z m-5.9 0v12.9a0.9 0.9 0 0 1-1.8 0v-12.9a0.8 0.8 0 0 1 0.9-0.9q0.9 0.2 0.9 0.9z m-3.3 0v12.9a0.8 0.8 0 0 1-0.9 0.9h-3.4a0.8 0.8 0 0 1-0.9-0.9v-12.9a0.8 0.8 0 0 1 0.9-0.9h3.4c0.5 0.1 0.9 0.4 0.9 0.9z m-7.7 0v12.9a0.8 0.8 0 0 1-0.9 0.9h-1.7a0.8 0.8 0 0 1-0.9-0.9v-12.9a0.8 0.8 0 0 1 0.9-0.9h1.7c0.5 0.1 0.9 0.4 0.9 0.9z m-10.3 0a0.8 0.8 0 0 1 0.9-0.9h3.4a0.8 0.8 0 0 1 0.9 0.9v12.9a0.8 0.8 0 0 1-0.9 0.9h-3.4a0.8 0.8 0 0 1-0.9-0.9z m0.8 17.9a0.8 0.8 0 0 1-0.9-0.9v-0.9a0.8 0.8 0 0 1 0.9-0.9h25.7a0.8 0.8 0 0 1 0.9 0.9v0.9a0.8 0.8 0 0 1-0.9 0.9z m41.9-4.3l-0.9-0.9a1.6 1.6 0 0 0-2.2 0l-11.9 11.9c-0.1 0.1 0 0.2 0 0.3v2.5c0 0.2 0 0.4 0.2 0.4h2.6c0.1 0 0.2-0.1 0.3-0.1l11.9-11.8a1.5 1.5 0 0 0 0-2.3z" fill="#fff"></path></svg>