<?xml version="1.0"?><svg xmlns="http://www.w3.org/2000/svg" width="100" height="100" viewBox="0 0 100 100"><path d="m74.2 20.2h-48.4a2.9 2.9 0 0 0-2.8 2.8v48.4a2.9 2.9 0 0 0 2.8 2.8h6.2v2.8a2.9 2.9 0 0 0 2.8 2.8h3.2a2.9 2.9 0 0 0 2.8-2.8v-2.9h18.4v2.9a2.9 2.9 0 0 0 2.8 2.8h3.2a2.9 2.9 0 0 0 2.8-2.8v-2.9h6.2a2.9 2.9 0 0 0 2.8-2.8v-48.3a2.9 2.9 0 0 0-2.8-2.8z m-40.2 19.4a0.9 0.9 0 0 1 1-1h4a0.9 0.9 0 0 1 1 1v15a0.9 0.9 0 0 1-1 1h-4a0.9 0.9 0 0 1-1-1z m32 19.9a0.9 0.9 0 0 1-1 1h-30a0.9 0.9 0 0 1-1-1v-1a0.9 0.9 0 0 1 1-1h30a0.9 0.9 0 0 1 1 1z m-24-4.9v-15a0.9 0.9 0 0 1 1-1h2a0.9 0.9 0 0 1 1 1v15a0.9 0.9 0 0 1-1 1h-2a0.9 0.9 0 0 1-1-1z m7 0v-15a0.9 0.9 0 0 1 1-1h4a0.9 0.9 0 0 1 1 1v15a0.9 0.9 0 0 1-1 1h-4a0.9 0.9 0 0 1-1-1z m7.9 0v-15a1 1 0 0 1 2 0v15a1 1 0 0 1-2 0z m4.9 0v-15a0.9 0.9 0 0 1 1-1h2a0.9 0.9 0 0 1 1 1v15a0.9 0.9 0 0 1-1 1h-2a0.9 0.9 0 0 1-1-1z m4.2-19a0.9 0.9 0 0 1-1 1h-30a0.9 0.9 0 0 1-1-1v-1a0.9 0.9 0 0 1 1-1h30a0.9 0.9 0 0 1 1 1z" fill="#fff"></path></svg>