<?xml version="1.0"?><svg xmlns="http://www.w3.org/2000/svg" width="100" height="100" viewBox="0 0 100 100"><g fill="#fff"><circle cx="58.7" cy="76.7" r="2.2"></circle><circle cx="69.5" cy="76.7" r="2.2"></circle><path d="m37.3 43.1c-1.5-2.4-2.4-5.2-2.4-8.3 0-5.2 2.2-9.6 5.7-12.2-1.3-2.2-3.5-3.6-6.6-3.6-5.1 0-7.9 4.1-7.9 8.8 0 2.6 0.9 4.7 2.6 6.3 1 0.9 1.8 2 1.8 3.3 0 1.2-0.4 2.3-3.3 3.5-4.1 1.9-7.9 4.2-8 8.1 0 2.6 1.7 4.4 4.1 4.4h3.8c0.6 0 1.2-0.4 1.5-0.9 1.9-3.3 5.3-5.5 8.2-6.9 0.7-0.5 1.1-1.7 0.5-2.5z m21.1 23.3h13.3c0.4 0 0.8-0.3 0.8-0.7l2.4-8.6c0.2-0.6-0.3-1.1-0.8-1.1h-20.5l-0.3-1.3c-0.2-0.6-0.7-1-1.3-1h-2.2c-0.7 0-1.4 0.6-1.4 1.3-0.1 0.8 0.6 1.4 1.3 1.4h1.3l1.2 4 3 10.3c0.2 0.6 0.7 1 1.3 1h15.6c0.7 0 1.4-0.6 1.4-1.3 0.1-0.8-0.6-1.4-1.3-1.4h-13.8c-0.6 0-1.1-0.4-1.3-0.9v-0.1c-0.2-0.8 0.4-1.6 1.3-1.6z m-10-4.8l-0.4-1.5c-0.9-0.3-1.6-0.8-2.2-1.5-0.9-1.1-1.4-2.4-1.3-3.8 0.1-2.8 2.6-5 5.4-5h2.1c1.8 0 3.4 0.9 4.4 2.3h5.7c-1.6-1.1-3.5-2-5.4-2.8-3.2-1.3-3.6-2.6-3.6-3.9 0-1.3 0.9-2.6 1.9-3.6 1.9-1.7 2.9-4.1 2.9-7 0-5.2-3.2-9.7-8.8-9.7s-8.8 4.5-8.8 9.7c0 2.8 1.1 5.2 2.9 7 1.1 1 1.9 2.3 1.9 3.6 0 1.3-0.5 2.6-3.6 3.9-4.8 1.9-9.2 4.2-9.3 8.5 0 2.8 2 5.3 4.7 5.3h11.8l-0.3-1.5z m14.7-26.8c0 3.1-0.8 5.9-2.4 8.3-0.6 0.9-0.3 2 0.7 2.6 2.8 1.3 6 3.3 7.9 6.4h4.8c1 0 1.9 0.3 2.7 0.9 1.3-0.7 2.1-2.1 2.1-3.9-0.1-3.9-3.9-6.3-8-8.2-2.9-1.2-3.3-2.4-3.3-3.5 0-1.2 0.8-2.4 1.8-3.3 1.7-1.6 2.6-3.7 2.6-6.3 0-4.8-2.8-8.8-7.9-8.8-3.1 0-5.3 1.4-6.6 3.6 3.4 2.6 5.6 6.9 5.6 12.2z"></path></g></svg>