<?xml version="1.0"?><svg xmlns="http://www.w3.org/2000/svg" width="100" height="100" viewBox="0 0 100 100"><g fill="#fff"><path d="m61.8 65.5h13.3c0.4 0 0.8-0.3 0.8-0.7l2.4-8.6c0.2-0.6-0.3-1.1-0.8-1.1h-20.5l-0.3-1.3c-0.2-0.6-0.7-1-1.3-1h-2.2c-0.7 0-1.4 0.6-1.4 1.3-0.1 0.8 0.6 1.4 1.3 1.4h1.3l1.2 4 3 10.3c0.2 0.6 0.7 1 1.3 1h15.6c0.7 0 1.4-0.6 1.4-1.3 0.1-0.8-0.6-1.4-1.3-1.4h-13.8c-0.6 0-1.1-0.4-1.3-0.9v-0.1c-0.2-0.8 0.4-1.6 1.3-1.6z"></path><circle cx="62.1" cy="75.8" r="2.2"></circle><circle cx="72.9" cy="75.8" r="2.2"></circle><path d="m61.1 19.9h-39c-2.2 0-2.5 2.3-2.5 2.5v49.5c0.1 1.3 0.9 3.3 4.4 3.3h28.3c3.2 0 3-2.1 2.8-2.9l-0.1-0.3-0.3-1.1-0.2-0.6-3.1-10.3c-0.2-0.7-1-1-1-1-0.5-0.3-1-0.6-1.3-1-1-1.1-1.5-2.6-1.4-4 0.2-2.8 2.6-5 5.4-5h2.2c1.5 0 2.8 0.6 3.8 1.6l0.1 0.1c0.2 0.2 0.6 0.5 1.2 0.5h1.4c1.3 0 1.4-1.4 1.5-1.8l0.1-10.5v-15.9c0.1-2.4-1.6-3.1-2.3-3.1z m-28.7 47.2c0 1.3-1 2.3-2.3 2.3h-2.3c-1.3 0-2.3-1-2.3-2.3v-2.3c0-1.3 1-2.3 2.3-2.3h2.3c1.3 0 2.3 1 2.3 2.3v2.3z m0-11.9c0 1.3-1 2.3-2.3 2.3h-2.3c-1.3 0-2.3-1-2.3-2.3v-2.3c0-1.3 1-2.3 2.3-2.3h2.3c1.3 0 2.3 1 2.3 2.3v2.3z m0-11.7c0 1.3-1 2.3-2.3 2.3h-2.3c-1.3 0-2.3-1-2.3-2.3v-2.3c0-1.3 1-2.3 2.3-2.3h2.3c1.3 0 2.3 1 2.3 2.3v2.3z m0-11.8c0 1.3-1 2.3-2.3 2.3h-2.3c-1.3 0-2.3-1-2.3-2.3v-2.3c0-1.3 1-2.3 2.3-2.3h2.3c1.3 0 2.3 1 2.3 2.3v2.3z m12.7 35.4c0 1.3-1 2.3-2.3 2.3h-2.3c-1.3 0-2.3-1-2.3-2.3v-2.3c0-1.3 1-2.3 2.3-2.3h2.3c1.3 0 2.3 1 2.3 2.3v2.3z m0-11.9c0 1.3-1 2.3-2.3 2.3h-2.3c-1.3 0-2.3-1-2.3-2.3v-2.3c0-1.3 1-2.3 2.3-2.3h2.3c1.3 0 2.3 1 2.3 2.3v2.3z m0-11.7c0 1.3-1 2.3-2.3 2.3h-2.3c-1.3 0-2.3-1-2.3-2.3v-2.3c0-1.3 1-2.3 2.3-2.3h2.3c1.3 0 2.3 1 2.3 2.3v2.3z m0-11.8c0 1.3-1 2.3-2.3 2.3h-2.3c-1.3 0-2.3-1-2.3-2.3v-2.3c0-1.3 1-2.3 2.3-2.3h2.3c1.3 0 2.3 1 2.3 2.3v2.3z m12.7 11.8c0 1.3-1 2.3-2.3 2.3h-2.3c-1.3 0-2.3-1-2.3-2.3v-2.3c0-1.3 1-2.3 2.3-2.3h2.3c1.3 0 2.3 1 2.3 2.3v2.3z m0-11.8c0 1.3-1 2.3-2.3 2.3h-2.3c-1.3 0-2.3-1-2.3-2.3v-2.3c0-1.3 1-2.3 2.3-2.3h2.3c1.3 0 2.3 1 2.3 2.3v2.3z"></path></g></svg>