<?xml version="1.0"?><svg xmlns="http://www.w3.org/2000/svg" width="100" height="100" viewBox="0 0 100 100"><path fill="#fff" d="m41.8 20c2.9 0 5.3 2.6 4.9 5.5l-0.7 6.6c-0.3 2.2-2 4-4.2 4.4l-6 0.9c-0.8 0.1-1.4 0.8-1.4 1.6v21.9c0 0.8 0.6 1.5 1.4 1.7l6 0.9c2.3 0.3 4 2.2 4.2 4.4l0.8 6.6c0.4 2.9-1.9 5.6-4.9 5.4h-6.4c-1.4 0-2.8-0.5-3.7-1.6-7.2-7.9-10.8-18.4-10.8-28.4s3.7-20.5 10.7-28.3c0.9-1 2.3-1.6 3.7-1.6z m18.5 12.9c1.1 0 1.9 0.8 1.9 1.9v30.8c0 1.1-0.9 1.9-1.9 1.9-1 0-1.9-0.8-1.9-1.9v-30.8c0-1 0.8-1.9 1.9-1.9z m-8.5 7.3c1.1 0 1.9 0.8 1.9 1.9v16.2c0 1-0.9 1.9-1.9 1.9-1 0-1.9-0.8-1.9-1.9v-16.2c0-1 0.8-1.9 1.9-1.9z m17.2 0c1.1 0 1.9 0.8 1.9 1.9v15.7c0 1-0.9 1.8-1.9 1.8-1 0-1.9-0.8-1.9-1.9v-15.6c0-1 0.8-1.9 1.9-1.9z m8.9 5.6c1.1 0 1.9 0.8 1.9 1.9v3.6c0 1.1-0.8 1.9-1.9 1.9-1 0-1.9-0.8-1.9-1.9v-3.6c0-1 0.8-1.9 1.9-1.9z"></path></svg>