<?xml version="1.0"?><svg xmlns="http://www.w3.org/2000/svg" width="100" height="100" viewBox="0 0 100 100"><path fill="#fff" d="m67.6 52c9.1 0 16.4 7.6 16.4 16.6 0 6.6-4.1 12.7-10.3 15.2-6.1 2.5-13.2 1-17.9-3.7-4.7-4.8-6.1-11.9-3.5-18 2.6-6.2 8.7-10.2 15.3-10.1z m8.5 6.3c-0.4-0.3-1-0.3-1.4 0l-7.3 7.3-6.9-6.9v0l-0.1-0.1c-0.4-0.3-1-0.2-1.3 0.1l-1.7 1.7c-0.4 0.4-0.4 1 0 1.4l6.9 6.9-6.8 6.9-0.1 0.1c-0.3 0.3-0.3 0.9 0.1 1.3l1.6 1.6c0.4 0.4 1.1 0.4 1.4 0l6.9-6.8 7.3 7.2 0 0.1c0.4 0.3 1 0.3 1.4 0l1.6-1.7c0.4-0.4 0.4-1 0-1.4l-7.2-7.3 7.3-7.3c0.4-0.4 0.4-1 0-1.4l-1.7-1.7z m-35.3 8.7c3.2 0 5.8 2.6 5.8 5.8s-2.6 5.8-5.8 5.8-5.8-2.6-5.8-5.8 2.6-5.8 5.8-5.8z m-17.8-52c1.5 0 2.9 1 3.3 2.5l0.9 3.1h51.6c1.4 0 2.6 1.4 2.1 2.8l-6.1 21.4c-0.1 0.5-0.4 0.9-0.8 1.2-2-0.6-4.2-0.9-6.5-0.9-2.8 0-5.5 0.5-8 1.4h-20.2c-2.1 0-3.8 2.1-3 4.3v0.1c0.3 1.3 1.7 2.3 3.1 2.3h10.4c-1.7 2-3.1 4.3-4.1 6.8h-11.2c-1.6 0-2.9-1-3.3-2.5l-10.6-35.7h-3.2c-1.9 0-3.5-1.7-3.4-3.7 0.1-1.8 1.8-3.1 3.6-3.1z"></path></svg>