<?xml version="1.0"?><svg xmlns="http://www.w3.org/2000/svg" width="100" height="100" viewBox="0 0 100 100"><path fill="#fff" d="m36.2 56.4c1.4 3.1 3.9 5.5 7 7 0.9 0.4 1.3 1.3 1.3 2.2v11.5c0 1.6-1.5 2.8-3.1 2.4-10.4-2.8-18.6-11-21.4-21.4-0.4-1.5 0.8-3.1 2.4-3.1h11.6c0.9 0 1.8 0.5 2.2 1.4z m5.3-36.7c1.5-0.4 3.1 0.8 3.1 2.4v11.5c0 0.9-0.5 1.8-1.3 2.2-3.1 1.4-5.5 3.9-7 7-0.4 0.9-1.3 1.3-2.2 1.3h-11.7c-1.6 0-2.8-1.5-2.4-3.1 2.9-10.3 11.1-18.5 21.5-21.3z m38.5 29.9c0 14.3-9.1 26.4-21.6 29.9-1.5 0.4-3-0.8-3-2.4v-11.7c0-1 0.5-1.9 1.3-2.4 4.7-2.4 8-7.5 8-13.4s-3.3-11.1-8-13.4c-0.8-0.4-1.3-1.4-1.3-2.4v-11.7c0-1.6 1.5-2.8 3-2.4 12.5 3.5 21.6 15.6 21.6 29.9z"></path></svg>