<?xml version="1.0"?><svg xmlns="http://www.w3.org/2000/svg" width="100" height="100" viewBox="0 0 100 100"><path fill="#fff" d="m79.4 26.7c-0.3-0.3-0.8-0.5-1.2-0.5-4.8-0.2-9.9 0.2-14.7 0.2l-17.2 0.1c-5.3 0-9.4 1.1-13.4 4.7-2.6 2.4-5 5.7-6.9 8.5-0.2 0.3-0.3 0.7-0.3 1.1 0 1.1 0.9 1.9 1.9 1.9 1.1 0 1.4-0.7 1.9-1.5s1.2-1.6 1.9-2.3c2.6-2.5 6.3-3.8 9.9-3.5-3 8.4-7.3 18.1-13.4 24.7-2.5 2.8-6.8 5.7-7.8 9.5-1 3.9 3 5 6.1 3.8 3.9-1.5 6.2-5.5 8.2-8.9 2.4-4.3 4.5-8.6 6.4-13.2 1.9-4.4 3.8-8.9 5.6-13.3 1.1-2.6 1.5-2.7 4.2-2.7h7.5c-2.8 6.1-5.5 12.3-8 18.6-1.9 4.8-5.3 11.7-2.9 16.9 2.4 5.1 9.2 3.2 12.9 0.6 3.8-2.6 6.2-6.9 8.3-10.9 0.4-0.7 0.8-1.6 0.5-2.4-0.3-0.7-1-1.2-1.8-1.2-1.7 0-2.1 2.1-2.6 3.4-1 2.1-3.4 4.1-5.8 3.7-5.7-0.8-0.6-10.9 0.4-13.6 1-2.8 2.2-5.6 3.4-8.3 0.7-1.6 1.3-3.2 2.1-4.7 1-2 1-1.9 3.3-2 2-0.1 7.5 0.9 9.2-0.2 1.3-0.9 2.2-4.2 2.8-6.6 0.2-0.8 0-1.5-0.5-1.9z"></path></svg>