<?xml version="1.0"?><svg xmlns="http://www.w3.org/2000/svg" width="100" height="100" viewBox="0 0 100 100"><title></title><path d="m57.4 38.4a18.1 18.1 0 1 1-18.1-18.2 18.1 18.1 0 0 1 18.1 18.2z m-24.8-8.2c-1.3 0-2.3 1.3-2.3 3.1 0 1.6 0.9 3.1 2.3 3.1s2.3-1.3 2.3-3.1c-0.2-1.7-1.1-3.1-2.3-3.1z m13.5 0c-1.3 0-2.3 1.3-2.3 3.1 0 1.6 0.9 3.1 2.3 3.1s2.3-1.3 2.3-3.1-0.9-3.1-2.3-3.1z m-18.1 10.5c0.5 5.7 4.7 10.6 11.2 10.6a11.3 11.3 0 0 0 11.5-10.6z m51.6 4.7a1.4 1.4 0 0 0-1.4-1.4l-14.6-0.1a1.3 1.3 0 0 0-1.4 1.3v2.6a1.4 1.4 0 0 0 1.4 1.4l4.5 0.1a0.9 0.9 0 0 1 0.6 1.5l-20 20.1a1 1 0 0 1-0.9-0.2l-10.7-10.9a1.4 1.4 0 0 0-1.8-0.1l-0.1 0.1-1.9 1.9a0.1 0.1 0 0 1-0.1 0.1l-12.6 12.6a1.4 1.4 0 0 0 0 1.9l1.9 1.9a1.4 1.4 0 0 0 1.9 0l10.4-10.3a1.9 1.9 0 0 1 2.6-0.1l10.2 10.3a1.2 1.2 0 0 0 1.9 0l23.2-23.4a0.9 0.9 0 0 1 1.5 0.6l0.1 4.5a1.4 1.4 0 0 0 1.4 1.4h2.6a1.3 1.3 0 0 0 1.4-1.3z" fill="#fff"></path></svg>