<?xml version="1.0"?><svg xmlns="http://www.w3.org/2000/svg" width="100" height="100" viewBox="0 0 100 100"><path fill="#fff" d="m68 48.8c0 1.1-0.9 2-2 2h-18.6c-1.1 0-2-0.9-2-2v-3c0-1.1 0.9-2 2-2h18.6c1.1 0 2 0.9 2 2v3z m-28.6 0c0 1.1-0.9 2-2 2h-3.4c-1.1 0-2-0.9-2-2v-3c0-1.1 0.9-2 2-2h3.4c1.1 0 2 0.9 2 2v3z m0 13c0 1.1-0.9 2-2 2h-3.4c-1.1 0-2-0.9-2-2v-3c0-1.1 0.9-2 2-2h3.4c1.1 0 2 0.9 2 2v3z m28.6 0c0 1.1-0.9 2-2 2h-18.6c-1.1 0-2-0.9-2-2v-3c0-1.1 0.9-2 2-2h18.6c1.1 0 2 0.9 2 2v3z m5.8-41.8h-47.6c-3.4 0-6.2 2.8-6.2 6.2v47.6c0 3.4 2.8 6.2 6.2 6.2h47.6c3.4 0 6.2-2.8 6.2-6.2v-47.6c0-3.4-2.8-6.2-6.2-6.2z m-26.4 7.4c0-0.8 0.8-1.4 1.6-1.4h23.4c0.8 0 1.4 0.8 1.4 1.6v3c0 0.8-0.8 1.4-1.6 1.4h-23.4c-0.8 0-1.4-0.8-1.4-1.6v-3z m-8-1.4c1.7 0 3 1.3 3 3s-1.3 3-3 3-3-1.3-3-3 1.3-3 3-3z m-10.4 0c1.7 0 3 1.3 3 3s-1.3 3-3 3-3-1.3-3-3 1.3-3 3-3z m45 46.6c0 0.8-0.8 1.4-1.6 1.4h-4.4v-2.3c0-1.1-0.9-2-2-2h-18.6c-1.1 0-2 0.9-2 2v2.3h-6v-2.3c0-1.1-0.9-2-2-2h-3.4c-1.1 0-2 0.9-2 2v2.3h-4.6c-0.8 0-1.4-0.8-1.4-1.6v-33c0-0.8 0.8-1.4 1.6-1.4h45c0.8 0 1.4 0.8 1.4 1.6v33z"></path></svg>