<?xml version="1.0"?><svg xmlns="http://www.w3.org/2000/svg" width="100" height="100" viewBox="0 0 100 100"><path fill="#fff" d="m78.8 50.8c0.7-0.7 0.7-1.6 0.4-2.4-0.4-0.9-1.2-1.4-2.2-1.4-0.7 0-1.3 0.2-1.9 0.8l-0.5 0.5c-0.9-13.2-11.8-23.6-25.2-23.6-13.9 0-25.2 11.3-25.2 25.2s11.3 25.2 25.2 25.2c11.9 0 21.8-8.2 24.5-19.3l4.9-5z m-29.4 19.3c-11.2 0-20.2-9.1-20.2-20.2s9.1-20.2 20.2-20.2c10.6 0 19.3 8.2 20.1 18.6l-0.5-0.5c-0.3-0.3-0.6-0.5-1-0.6-1-0.4-2-0.1-2.7 0.7-0.8 1-0.8 2.4 0.1 3.3l3.6 3.6c-2.1 8.7-10.1 15.3-19.6 15.3z"></path><g fill="#fff"><path d="m61.7 57.1v1.1c0 1.4-1.1 2.5-2.5 2.5h-19.7c-1.4 0-2.5-1.1-2.5-2.5v-1.1c0-3 3.5-4.8 6.8-6.2 0.1 0 0.2-0.1 0.3-0.2 0.2-0.1 0.5-0.1 0.8 0 1.3 0.9 2.8 1.4 4.4 1.4s3.1-0.5 4.4-1.3c0.2-0.2 0.5-0.2 0.8 0 0.1 0 0.2 0.1 0.3 0.2 3.4 1.3 6.9 3.1 6.9 6.1z"></path><ellipse cx="49.4" cy="42.8" rx="6.1" ry="6.8"></ellipse></g></svg>