<?xml version="1.0"?><svg xmlns="http://www.w3.org/2000/svg" width="100" height="100" viewBox="0 0 100 100"><title></title><path d="m68.8 20.3a10.9 10.9 0 1 1-10.5 13.9h-0.4a5 5 0 0 0-5 5v4.3l6.3 6.3a1.9 1.9 0 0 1 0 2.8l-1.3 1.4a1.9 1.9 0 0 1-2.8 0l-2.1-2.1v9a10.8 10.8 0 0 1-10.5 10.9h-0.8a10.9 10.9 0 1 1-10.5-13.9 11 11 0 0 1 10.5 7.9h0.4a5 5 0 0 0 5-5v-8.7l-1.8 1.9a1.9 1.9 0 0 1-2.8 0l-1.4-1.4a1.9 1.9 0 0 1 0-2.8l5.9-5.9v-4.7a10.8 10.8 0 0 1 10.5-10.9h0.8a10.8 10.8 0 0 1 10.5-8z m-37.6 43.6a5 5 0 0 0-5 5 5 5 0 0 0 10 0 5 5 0 0 0-5-5z m37.6-37.7a5 5 0 0 0-5 5 5 5 0 1 0 10 0 5 5 0 0 0-5-5z" fill="#fff"></path></svg>