<?xml version="1.0"?><svg xmlns="http://www.w3.org/2000/svg" width="100" height="100" viewBox="0 0 100 100"><title></title><path d="m72.7 65.8a6.6 6.6 0 0 0-3.2 0.8l-8.8-6.5a11.4 11.4 0 0 0 1.2-5.2 11.9 11.9 0 0 0-8.9-11.5v-10a7 7 0 0 0 4-6.2 6.9 6.9 0 1 0-13.8 0 6.7 6.7 0 0 0 4 6.2v10a11.9 11.9 0 0 0-8.9 11.5 11.4 11.4 0 0 0 1.2 5.2l-8.8 6.5a7.2 7.2 0 0 0-3.2-0.8 6.9 6.9 0 1 0 6.9 6.9c0-0.5-0.1-0.9-0.1-1.3l9.2-6.8a11.6 11.6 0 0 0 13.6 0l9.2 6.8a5.7 5.7 0 0 0-0.1 1.3 6.9 6.9 0 0 0 13.8 0 7.4 7.4 0 0 0-7.3-6.9z m-21.3-5.1a6.8 6.8 0 0 1-1.4 0.2 6.1 6.1 0 0 1-5.7-4.4 7.7 7.7 0 0 1-0.2-1.5 5.8 5.8 0 0 1 3-5.1 6 6 0 0 1 6 0 5.8 5.8 0 0 1 3 5.1 7.7 7.7 0 0 1-0.2 1.5 6.5 6.5 0 0 1-4.5 4.2z" fill="#fff"></path></svg>