<?xml version="1.0"?><svg xmlns="http://www.w3.org/2000/svg" width="100" height="100" viewBox="0 0 100 100"><g fill="#fff"><path d="m76.8 42.4h-22.5c-2 0-2.3 2.1-2.3 2.3v34.2h26.8v-33.7c0.2-2.2-1.4-2.8-2-2.8z m-13.4 30.6c0 1.1-0.9 2.1-2.1 2.1h-2.1c-1.1 0-2.1-0.9-2.1-2.1v-2.1c0-1.1 0.9-2.1 2.1-2.1h2.1c1.1 0 2.1 0.9 2.1 2.1v2.1z m0-10.5c0 1.1-0.9 2.1-2.1 2.1h-2.1c-1.1 0-2.1-0.9-2.1-2.1v-2.1c0-1.1 0.9-2.1 2.1-2.1h2.1c1.1 0 2.1 0.9 2.1 2.1v2.1z m0-10.5c0 1.1-0.9 2.1-2.1 2.1h-2.1c-1.1 0-2.1-0.9-2.1-2.1v-2.1c0-1.1 0.9-2.1 2.1-2.1h2.1c1.1 0 2.1 0.9 2.1 2.1v2.1z m10.3 21c0 1.1-0.9 2.1-2.1 2.1h-2.1c-1.1 0-2.1-0.9-2.1-2.1v-2.1c0-1.1 0.9-2.1 2.1-2.1h2.1c1.1 0 2.1 0.9 2.1 2.1v2.1z m0-10.5c0 1.1-0.9 2.1-2.1 2.1h-2.1c-1.1 0-2.1-0.9-2.1-2.1v-2.1c0-1.1 0.9-2.1 2.1-2.1h2.1c1.1 0 2.1 0.9 2.1 2.1v2.1z m0-10.5c0 1.1-0.9 2.1-2.1 2.1h-2.1c-1.1 0-2.1-0.9-2.1-2.1v-2.1c0-1.1 0.9-2.1 2.1-2.1h2.1c1.1 0 2.1 0.9 2.1 2.1v2.1z m-17.7-32.8h-34.7c-2 0-2.3 2.1-2.3 2.3v57.3h26.8v-40.2s0-2.5 2.3-2.5h8c0.9-0.1 2-0.5 2-2.1v-12c0.1-2.2-1.4-2.8-2.1-2.8z m-25.6 52.9c0 1.1-0.9 2.1-2.1 2.1h-2.1c-1.1 0-2.1-0.9-2.1-2.1v-2.1c0-1.1 0.9-2.1 2.1-2.1h2.1c1.1 0 2.1 0.9 2.1 2.1v2.1z m0-10.6c0 1.1-0.9 2.1-2.1 2.1h-2.1c-1.1 0-2.1-0.9-2.1-2.1v-2.1c0-1.1 0.9-2.1 2.1-2.1h2.1c1.1 0 2.1 0.9 2.1 2.1v2.1z m0-10.6c0 1.1-0.9 2.1-2.1 2.1h-2.1c-1.1 0-2.1-0.9-2.1-2.1v-2.1c0-1.1 0.9-2.1 2.1-2.1h2.1c1.1 0 2.1 0.9 2.1 2.1v2.1z m0-10.6c0 1.1-0.9 2.1-2.1 2.1h-2.1c-1.1 0-2.1-0.9-2.1-2.1v-2.1c0-1.1 0.9-2.1 2.1-2.1h2.1c1.1 0 2.1 0.9 2.1 2.1v2.1z m0-10.5c0 1.1-0.9 2.1-2.1 2.1h-2.1c-1.1 0-2.1-0.9-2.1-2.1v-2.1c0-1.1 0.9-2.1 2.1-2.1h2.1c1.1 0 2.1 0.9 2.1 2.1v2.1z m11.3 42.3c0 1.1-0.9 2.1-2.1 2.1h-2.1c-1.1 0-2.1-0.9-2.1-2.1v-2.1c0-1.1 0.9-2.1 2.1-2.1h2.1c1.1 0 2.1 0.9 2.1 2.1v2.1z m0-10.6c0 1.1-0.9 2.1-2.1 2.1h-2.1c-1.1 0-2.1-0.9-2.1-2.1v-2.1c0-1.1 0.9-2.1 2.1-2.1h2.1c1.1 0 2.1 0.9 2.1 2.1v2.1z m0-10.6c0 1.1-0.9 2.1-2.1 2.1h-2.1c-1.1 0-2.1-0.9-2.1-2.1v-2.1c0-1.1 0.9-2.1 2.1-2.1h2.1c1.1 0 2.1 0.9 2.1 2.1v2.1z m0-10.6c0 1.1-0.9 2.1-2.1 2.1h-2.1c-1.1 0-2.1-0.9-2.1-2.1v-2.1c0-1.1 0.9-2.1 2.1-2.1h2.1c1.1 0 2.1 0.9 2.1 2.1v2.1z m0-10.5c0 1.1-0.9 2.1-2.1 2.1h-2.1c-1.1 0-2.1-0.9-2.1-2.1v-2.1c0-1.1 0.9-2.1 2.1-2.1h2.1c1.1 0 2.1 0.9 2.1 2.1v2.1z m11.4 0c0 1.1-1 2.1-2.1 2.1h-2.1c-1.1 0-2.1-0.9-2.1-2.1v-2.1c0-1.1 0.9-2.1 2.1-2.1h2.1c1.1 0 2.1 0.9 2.1 2.1v2.1z m26.4 0.7c-0.6-0.5-1.6-0.4-2.1 0.2l-0.8 1c-0.7-6.1-5.2-8.6-8.6-9.4l0.8-0.5c0.7-0.4 0.9-1.4 0.5-2.1s-1.4-0.9-2.1-0.5l-4 2.6c-0.4 0.2-0.6 0.6-0.7 1s0 0.8 0.3 1.2l3.3 4.2c0.3 0.4 0.7 0.6 1.2 0.6 0.3 0 0.7-0.1 0.9-0.3 0.7-0.5 0.8-1.5 0.3-2.1l-0.8-1.1c2.1 0.5 5.4 2.2 5.9 6.8l-0.7-0.8c-0.6-0.6-1.5-0.6-2.1 0s-0.6 1.5 0 2.1l3.3 3.4c0.3 0.3 0.7 0.4 1.1 0.4h0.1c0.4 0 0.8-0.2 1.1-0.5l3.4-4.2c0.4-0.5 0.3-1.5-0.3-2z"></path></g></svg>