<?xml version="1.0"?><svg xmlns="http://www.w3.org/2000/svg" width="100" height="100" viewBox="0 0 100 100"><path fill="#fff" d="m43.5 71.4v-0.4c-9-2.8-15.5-11.1-15.5-21 0-12.1 9.9-22 22-22s22 9.9 22 22c0 2-0.3 4-0.8 5.9l0.9 0.6c0.4 0 0.7-0.1 1.1-0.1 2 0 4 0.6 5.6 1.5 0.7-2.5 1.1-5.2 1.1-8 0-16.5-13.5-30-30-30s-30 13.5-30 30c0 15.9 12.4 28.9 28 29.9-2.6-1.8-4.4-4.9-4.4-8.4z m13.2-17.9c1.9 0 3.7 0.5 5.3 1.3l1.2-0.3c0.5-1.4 0.8-2.9 0.8-4.5 0-7.7-6.2-13.9-13.9-13.9s-13.9 6.2-13.9 13.9c0 6.2 4 11.4 9.6 13.3 0.6-5.6 5.2-9.8 10.9-9.8z m4.9 7.3c1-1 2.4-1.7 4-1.7 2.1 0 3.9 1.1 4.9 2.8 0.8-0.3 1.8-0.6 2.8-0.6 3.7 0 6.8 3.1 6.8 6.7 0 3.7-3.1 6.7-6.8 6.7-0.4 0-0.9 0-1.3-0.1-0.8 1.5-2.5 2.5-4.3 2.5-0.8 0-1.5-0.2-2.2-0.5-0.9 2-2.9 3.4-5.2 3.4-2.5 0-4.5-1.5-5.3-3.6-0.3 0-0.7 0.1-1.1 0.1-2.9 0-5.3-2.3-5.3-5.2 0-1.9 1-3.6 2.6-4.5-0.3-0.7-0.5-1.5-0.5-2.4 0-3.3 2.8-6 6.1-6 1.9 0.1 3.7 1 4.8 2.4z"></path></svg>