<?xml version="1.0"?><svg xmlns="http://www.w3.org/2000/svg" width="100" height="100" viewBox="0 0 100 100"><g fill="#fff"><path d="m49.9 51.1c-1.5 0.1-2.9-0.5-4.4-1-7.9-2.6-15.8-5.2-23.6-7.9-0.5-0.2-0.9-0.4-1.3-0.7-0.5-0.4-0.5-0.9 0-1.3 0.4-0.3 0.9-0.6 1.4-0.7 8.4-2.5 16.8-5 25.2-7.6 1.9-0.6 3.8-0.6 5.8 0 8.3 2.5 16.7 5 25 7.5 0.5 0.2 1 0.4 1.5 0.7 0.6 0.4 0.6 1 0 1.4-0.4 0.3-0.8 0.5-1.2 0.6-8.3 2.8-16.7 5.6-25.1 8.3-1.1 0.5-2.1 0.7-3.3 0.7z m-16.6 0.4c-1.2-0.3-1.5 0.5-1.5 1.1v9.5c0 1.1 0.4 1.8 1.1 2.5 0.3 0.3 0.6 0.5 0.9 0.7 2 1.4 4.3 2.3 6.7 2.9 4.7 1.3 9.5 1.5 14.3 0.9 3.1-0.4 6.2-1.2 9.1-2.5 1.3-0.6 2.5-1.3 3.4-2.3 0.6-0.6 0.9-1.2 0.8-2.1 0.1-3 0.1-6.1 0.1-9.2 0-1.7-1.2-1.5-1.7-1.4-4.4 1.5-8.9 2.9-13.3 4.4-2.2 0.7-4.3 0.7-6.5 0l-13.4-4.5z m41.6-2.9c-0.4 0.1-0.5 0.3-0.5 0.7v8.4c0 0.3-0.1 0.6-0.2 0.9-0.6 1.5-1.3 3-1.8 4.5-0.5 1.4-0.2 2.8 0.8 3.9 0.3 0.4 0.7 0.7 1.1 1 0.4 0.3 1 0.5 1.5 0.6 0.9 0.1 1.6-0.4 2.2-0.9l0.9-0.9c0.7-0.9 0.9-2.2 0.6-3.4-0.4-1.7-1.1-3.2-1.9-4.7-0.2-0.3-0.3-0.7-0.3-1v-9.2c0-0.6-0.5-0.5-0.7-0.4l-1.7 0.5z"></path></g></svg>