<?xml version="1.0"?><svg xmlns="http://www.w3.org/2000/svg" width="100" height="100" viewBox="0 0 100 100"><title></title><desc></desc><path fill="#fff" d="m50 22.4c-16.7 0-30 12.3-30 27.4 0 4.8 1.4 9.3 3.6 13.3 0.4 0.6 0.5 1.4 0.3 2.1l-3.9 10.7c-0.4 1 0.6 1.9 1.6 1.6l10.9-4.1c0.6-0.3 1.4-0.1 2.1 0.3 4.5 2.5 9.9 4 15.7 4 16.4-0.2 29.8-12.3 29.8-27.6-0.1-15.5-13.5-27.7-30.1-27.7z m13.3 24.5l-7 5.2c-0.3 0.2-0.4 0.6-0.3 1l3.3 8.8c0.2 0.8-0.6 1.5-1.3 1l-7.5-5.6c-0.3-0.2-0.7-0.2-1 0l-7.6 5.6c-0.7 0.5-1.6-0.2-1.3-1l3.2-8.8c0.1-0.3 0-0.7-0.3-1l-7-5.2c-0.7-0.5-0.3-1.7 0.5-1.7h8.6c0.4 0 0.7-0.1 0.8-0.5l2.7-8.7c0.2-0.8 1.4-0.7 1.6 0.1l2.6 8.6c0.1 0.3 0.5 0.5 0.8 0.5h8.6c1 0 1.3 1.2 0.6 1.7z"></path></svg>