<?xml version="1.0"?><svg xmlns="http://www.w3.org/2000/svg" width="100" height="100" viewBox="0 0 100 100"><title></title><path d="m73.8 29.7h-47.5a6 6 0 0 0-6 6v28.6a6 6 0 0 0 6 6h47.4a6 6 0 0 0 6-6v-28.6a6.1 6.1 0 0 0-5.9-6z m-34.9 5.4a7.6 7.6 0 1 1-7.6 7.6 7.7 7.7 0 0 1 7.6-7.6z m9.8 28.3h-19.5c-1.7 0-2-1.1-2-1.6a11.4 11.4 0 0 1 11.4-9.9h0.4a11.4 11.4 0 0 1 11.4 9.9c0.3 0.5 0 1.6-1.7 1.6z m23.1-6.9a2 2 0 0 1-2 2h-8.8a2 2 0 0 1-2-2v-3a2 2 0 0 1 2-2h8.8a2 2 0 0 1 2 2z m0-11a2 2 0 0 1-2 2h-14.8a2 2 0 0 1-2-2v-3a2 2 0 0 1 2-2h14.8a2 2 0 0 1 2 2z" fill="#fff"></path></svg>