<?xml version="1.0"?><svg xmlns="http://www.w3.org/2000/svg" width="100" height="100" viewBox="0 0 100 100"><title></title><path d="m65.3 51.5a14.3 14.3 0 1 0 14.2 14.3 14.3 14.3 0 0 0-14.2-14.3z m2.5 15.5a3.1 3.1 0 0 1-1.1-0.2l-5.4 5.4a1.7 1.7 0 0 1-1.1 0.5c-0.5 0-0.9-0.1-1.1-0.5a1.8 1.8 0 0 1 0-2.4l5.4-5.4a4.5 4.5 0 0 1 4-5.8 3.1 3.1 0 0 1 1.1 0.2c0.2 0 0.2 0.2 0.1 0.4l-2.5 2.4a0.4 0.4 0 0 0 0 0.6l1.6 1.6a0.5 0.5 0 0 0 0.7 0l2.4-2.4c0.1-0.1 0.5-0.1 0.5 0.1a6.5 6.5 0 0 1 0.2 1.1 4.5 4.5 0 0 1-4.8 4.4z" fill="#fff"></path><circle cx="44.6" cy="36.1" r="16.1" fill="#fff"></circle><path d="m48.9 79.7c2.7 0 1.2-1.9 1.2-1.9a19.6 19.6 0 0 1-2.5-20.1l0.2-0.4a1.2 1.2 0 0 0-0.9-1.9 18.5 18.5 0 0 0-2.4-0.1 24.5 24.5 0 0 0-24.2 21c0 1.2 0.4 3.5 4.2 3.5h23.9a1.8 1.8 0 0 1 0.5-0.1z" fill="#fff"></path></svg>