<?xml version="1.0"?><svg xmlns="http://www.w3.org/2000/svg" width="100" height="100" viewBox="0 0 100 100"><title></title><circle cx="44.6" cy="36.3" r="16" fill="#fff"></circle><path d="m48.8 79.6c2.7 0 1.2-1.9 1.2-1.9a19.6 19.6 0 0 1-2.5-20.1l0.2-0.4a1.2 1.2 0 0 0-0.9-1.9 18.5 18.5 0 0 0-2.4-0.1 24.3 24.3 0 0 0-24 20.9c0 1.2 0.4 3.5 4.2 3.5h24.2z m16.4-28.4a14.2 14.2 0 1 0 14.2 14.2 14.3 14.3 0 0 0-14.2-14.2z m-4.8 22.8a3.5 3.5 0 1 1 3.5-3.5 3.5 3.5 0 0 1-3.5 3.5z m3.5-11.9a1.3 1.3 0 0 1-0.4 0.7l-2.7 1.5a0.5 0.5 0 0 1-0.7 0l-2.7-1.5a1 1 0 0 1-0.4-0.7v-3.1a1 1 0 0 1 0.4-0.7l2.7-1.5a0.5 0.5 0 0 1 0.7 0l2.7 1.5a1 1 0 0 1 0.4 0.7z m2.6-4.3a0.7 0.7 0 0 1 0.7-0.7h5.2a0.7 0.7 0 0 1 0.7 0.7v5.2a0.7 0.7 0 0 1-0.7 0.7h-5.1a0.7 0.7 0 0 1-0.7-0.7l-0.1-5.2z m6.9 13.2l-3.1 3.2a0.5 0.5 0 0 1-0.7 0l-3.1-3.2a0.5 0.5 0 0 1 0-0.7l3.1-3.2a0.5 0.5 0 0 1 0.7 0l3.1 3.2a0.5 0.5 0 0 1 0 0.7z" fill="#fff"></path></svg>