<?xml version="1.0"?><svg xmlns="http://www.w3.org/2000/svg" width="100" height="100" viewBox="0 0 100 100"><title></title><path d="m72.1 46.7c-3-13.8-17.7-23.9-20.6-25.9-0.1-0.1-0.2-0.1-0.4-0.2a3.3 3.3 0 0 0-2.4 0c-0.1 0-0.1 0.1-0.2 0.1-2.9 1.9-17.5 12-20.6 25.8a22.2 22.2 0 0 0 4.4 19.1 24.5 24.5 0 0 0 14.7 9l-1.5 2.6a2.5 2.5 0 0 0 0 1.7 1.7 1.7 0 0 0 1.5 0.9h6.1a2 2 0 0 0 1.5-0.9 2.5 2.5 0 0 0 0-1.7l-1.5-2.6a24 24 0 0 0 14.7-9 22.3 22.3 0 0 0 4.3-18.9z m-8.3 15.7c-0.5 0.6-1.1 1.2-1.7 1.9a13 13 0 0 0-12-8h-0.4a12.3 12.3 0 0 0-11.7 8c-0.6-0.6-1.1-1.2-1.7-1.9a17.4 17.4 0 0 1-3.5-14.7c2.4-10.6 13.3-19.2 17.2-21.8 3.9 2.7 14.8 11.3 17.2 21.9a16.6 16.6 0 0 1-3.4 14.6z" fill="#fff"></path><circle cx="50" cy="46.3" r="8.4" fill="#fff"></circle></svg>