<?xml version="1.0"?><svg xmlns="http://www.w3.org/2000/svg" width="100" height="100" viewBox="0 0 100 100"><title></title><circle cx="63.3" cy="47.6" r="10.7" fill="#fff"></circle><path d="m63.6 60.3h-0.8a16.4 16.4 0 0 0-16.1 13.9c0 0.7 0.2 2.4 2.7 2.4h27.2c2.5 0 2.7-1.5 2.7-2.4a15.7 15.7 0 0 0-15.7-13.9z m-15-2c0.4-0.4 0.1-0.7 0.1-0.7a17.9 17.9 0 0 1-3.1-10 17.2 17.2 0 0 1 3.2-10.2 0.1 0.1 0 0 1 0.1-0.1 1.8 1.8 0 0 0 0.4-1.1v-10.8a2.1 2.1 0 0 0-2-2h-24.8a2.2 2.2 0 0 0-2 2.1v46.2h19.5a24.1 24.1 0 0 1 8.6-13.4z m-17 7.7a2.2 2.2 0 0 1-2.1 2.1h-2.1a2.2 2.2 0 0 1-2.1-2.1v-2.1a2.2 2.2 0 0 1 2.1-2.1h2.1a2.2 2.2 0 0 1 2.1 2.1z m0-10.5a2.2 2.2 0 0 1-2.1 2.1h-2.1a2.2 2.2 0 0 1-2.1-2.1v-2.1a2.2 2.2 0 0 1 2.1-2.1h2.1a2.2 2.2 0 0 1 2.1 2.1z m0-10.5a2.2 2.2 0 0 1-2.1 2.1h-2.1a2.2 2.2 0 0 1-2.1-2.1v-2.1a2.2 2.2 0 0 1 2.1-2.1h2.1a2.2 2.2 0 0 1 2.1 2.1z m0-10.5a2.2 2.2 0 0 1-2.1 2.1h-2.1a2.2 2.2 0 0 1-2.1-2.1v-2.1a2.2 2.2 0 0 1 2.1-2.1h2.1a2.2 2.2 0 0 1 2.1 2.1z m11.9 21a2.2 2.2 0 0 1-2.1 2.1h-2.1a2.2 2.2 0 0 1-2.1-2.1v-2.1a2.2 2.2 0 0 1 2.1-2.1h2.1a2.2 2.2 0 0 1 2.1 2.1z m0-10.5a2.2 2.2 0 0 1-2.1 2.1h-2.1a2.2 2.2 0 0 1-2.1-2.1v-2.1a2.2 2.2 0 0 1 2.1-2.1h2.1a2.2 2.2 0 0 1 2.1 2.1z m0-10.5a2.2 2.2 0 0 1-2.1 2.1h-2.1a2.2 2.2 0 0 1-2.1-2.1v-2.1a2.2 2.2 0 0 1 2.1-2.1h2.1a2.2 2.2 0 0 1 2.1 2.1z" fill="#fff"></path></svg>