<?xml version="1.0"?><svg xmlns="http://www.w3.org/2000/svg" width="100" height="100" viewBox="0 0 100 100"><g fill="#fff"><path d="m25.4 34.9h10.6c2.2 0 4-1.8 4-4v-10.6c0-0.8-0.6-1.4-1.4-1.4-0.4 0-0.7 0.1-1 0.4l-13.2 13.2c-0.3 0.3-0.4 0.6-0.4 1 0 0.8 0.6 1.4 1.4 1.4z m21 43.9l4.7-6.4 4.3-5.8c-0.1-0.4-0.1-0.7-0.2-1v-0.1c-0.7-0.9-1.9-2.5-1.9-4.8s1.2-3.9 1.8-4.8c0.1-1 0.4-3.1 2.2-4.8 1.6-1.5 3.5-1.8 4.5-2h0.1c0.9-0.7 2.5-1.9 4.8-1.9s3.9 1.2 4.8 1.8c0.6 0.1 1.5 0.2 2.5 0.6v-24.7c0-3.3-2.7-6-6-6h-20c-1.1 0-2 0.9-2 2v14c0 3.3-2.7 6-6 6h-14c-1.1 0-2 0.9-2 2v30c0 3.3 2.7 6 6 6h16.3l0.1-0.1z"></path></g><path fill="#fff" d="m65.2 71.5l-5.2 7.4-1.3-3.5h-3.5l4.5-6.1c0.9 0.5 1.8 0.6 2.5 0.8 0.2 0.1 0.5 0.1 0.6 0.1 0.1 0.1 0.3 0.2 0.5 0.3 0.4 0.3 1 0.7 1.9 1z m8.4-2.3c-0.9 0.5-1.8 0.6-2.5 0.8-0.2 0.1-0.5 0.1-0.7 0.1-0.1 0.1-0.3 0.2-0.5 0.3-0.5 0.3-1.1 0.9-1.9 1.2l5.2 7.3 1.3-3.5h3.5l-4.4-6.2z m-7-11.6c-1.7 0-3.1 1.4-3.1 3.1s1.4 3.1 3.1 3.1c1.7 0 3.1-1.4 3.1-3.1s-1.4-3.1-3.1-3.1z m8.5 3.1c0 1.1-1.2 1.9-1.5 2.8-0.4 1-0.2 2.4-0.9 3.1-0.7 0.7-2.1 0.5-3.1 0.9-0.9 0.4-1.8 1.5-2.8 1.5s-1.9-1.2-2.8-1.5c-1-0.4-2.4-0.2-3.1-0.9-0.7-0.7-0.5-2.1-0.9-3.1-0.4-0.9-1.5-1.8-1.5-2.8s1.2-1.9 1.5-2.8c0.4-1 0.2-2.4 0.9-3.1 0.7-0.7 2.1-0.5 3.1-0.9 0.9-0.4 1.8-1.5 2.8-1.5s1.9 1.2 2.8 1.5c1 0.4 2.4 0.2 3.1 0.9 0.7 0.7 0.5 2.1 0.9 3.1 0.3 1 1.5 1.8 1.5 2.8z m-2.7 0c0-3.2-2.5-5.8-5.8-5.8-3.2 0-5.8 2.5-5.8 5.8s2.5 5.8 5.8 5.8 5.8-2.6 5.8-5.8z"></path></svg>