<?xml version="1.0"?><svg xmlns="http://www.w3.org/2000/svg" width="100" height="100" viewBox="0 0 100 100"><title></title><path d="m39.3 32.1h21.4a2 2 0 0 0 2-2v-4a6 6 0 0 0-5.8-6h-13.6a5.9 5.9 0 0 0-5.8 6v4a1.7 1.7 0 0 0 1.8 2z m32.1-6.9h-2a0.9 0.9 0 0 0-1 1v4a7.9 7.9 0 0 1-7.8 7.9h-21.3a7.9 7.9 0 0 1-7.8-7.9v-4a0.9 0.9 0 0 0-1-1h-2a5.9 5.9 0 0 0-5.8 6v42.6a6 6 0 0 0 5.8 6h42.9a5.9 5.9 0 0 0 5.8-6v-42.6a5.8 5.8 0 0 0-5.8-6z m-18.4 34.2v1.1a5.5 5.5 0 0 1-3.1 1 5.6 5.6 0 0 1 0-11.2 5.6 5.6 0 0 1 5.6 5.2 4.5 4.5 0 0 0-2.5 3.9z m15 14.1a1.5 1.5 0 0 1-1.5 1.4h-9a1.4 1.4 0 0 1-1.4-1.4v-1.4a1.4 1.4 0 0 1 1.4-1.4h9.1a1.4 1.4 0 0 1 1.4 1.4z m0-6.3a1.5 1.5 0 0 1-1.5 1.4h-9a1.4 1.4 0 0 1-1.4-1.4v-1.4a1.4 1.4 0 0 1 1.4-1.4h9.1a1.4 1.4 0 0 1 1.4 1.4z m0-6.4a1.5 1.5 0 0 1-1.5 1.4h-9a1.4 1.4 0 0 1-1.4-1.4v-1.4a1.4 1.4 0 0 1 1.4-1.4h9.1a1.4 1.4 0 0 1 1.4 1.4z m0.1-5.7a3.4 3.4 0 0 0-1.4-0.2h-2.9v-3a4 4 0 0 1-4-4h-19.8a4 4 0 0 1-4 4v8.4a4 4 0 0 1 4 4h13.2a3.4 3.4 0 0 0-0.2 1.4v1.4a6.6 6.6 0 0 0 0.3 1.5h-18a3.4 3.4 0 0 1-3.4-3.4v-18.1a3.4 3.4 0 0 1 3.4-3.4h29.4a3.4 3.4 0 0 1 3.4 3.4z" fill="#fff"></path></svg>