<?xml version="1.0"?><svg xmlns="http://www.w3.org/2000/svg" width="100" height="100" viewBox="0 0 100 100"><title></title><path d="m37 31.6h20.4a1.8 1.8 0 0 0 1.9-1.9v-3.8a5.7 5.7 0 0 0-5.5-5.7h-13a5.6 5.6 0 0 0-5.5 5.7v3.8a1.7 1.7 0 0 0 1.7 1.9z m30.3 22.9a12.7 12.7 0 1 0 12.7 12.7 12.7 12.7 0 0 0-12.7-12.7z m8.2 9.2l-9.3 9.3a1.9 1.9 0 0 1-2.6 0l-4.6-4.6a0.8 0.8 0 0 1 0-1.3l1.3-1.3a0.8 0.8 0 0 1 1.3 0l3.2 3.2 8.1-8.1a0.8 0.8 0 0 1 1.3 0l1.3 1.3c0.7 0.6 0.2 1.2 0 1.5z m-15.7-11.4a3.9 3.9 0 0 1-2.7-3.8h-19.8a4 4 0 0 1-4 4v8.5a4 4 0 0 1 4 4h13.6a16.7 16.7 0 0 1 8.9-12.7z m-12.6 9.6a5.4 5.4 0 1 1 5.4-5.4 5.4 5.4 0 0 1-5.4 5.4z m20.4-36.9h-1.9a0.8 0.8 0 0 0-0.9 0.9v3.8a7.6 7.6 0 0 1-7.4 7.6h-20.4a7.5 7.5 0 0 1-7.4-7.6v-3.8a0.8 0.8 0 0 0-0.9-0.9h-1.9a5.6 5.6 0 0 0-5.5 5.7v40.6a5.7 5.7 0 0 0 5.5 5.7h27.2a17 17 0 0 1-3.1-7.7h-18.3a3.4 3.4 0 0 1-3.4-3.4v-18.1a3.4 3.4 0 0 1 3.4-3.4h29.4a3.4 3.4 0 0 1 3.4 3.4v2.9a13.4 13.4 0 0 1 2-0.1 15.8 15.8 0 0 1 5.8 1.1v-21a5.7 5.7 0 0 0-5.6-5.7z" fill="#fff"></path></svg>