<?xml version="1.0"?><svg xmlns="http://www.w3.org/2000/svg" width="100" height="100" viewBox="0 0 100 100"><path fill="#fff" d="m55.3 21.2c-1.1-0.7-2.4-1.1-4.1-1.1-0.4 0-0.8 0-1.2 0.1-4.4 0.7-7.3 4.7-9.1 8.5-0.8 1.8-1.5 3.7-2.2 5.5-0.3 0.9-0.7 1.7-1 2.6 0 0.1-0.5 1.8-0.6 1.8h-4.5c-0.6 0-1.1 0.5-1.1 1.1 0 0.6 0.5 1.1 1.1 1.1h3.9l-2.2 9.4c-2.2 10.5-5.2 22.5-5.9 24.6-0.7 2.2-1.7 3.3-3.1 3.3-0.3 0-0.5-0.1-0.7-0.2-0.2-0.1-0.3-0.3-0.3-0.5s0.1-0.5 0.4-0.9c0.3-0.4 0.4-0.9 0.4-1.3 0-0.8-0.3-1.5-0.8-2-0.6-0.5-1.2-0.7-1.9-0.7s-1.4 0.3-2 0.8c-0.1 0.7-0.4 1.4-0.4 2.3 0 1.2 0.5 2.2 1.5 3.1 1 0.9 2.3 1.3 4 1.3 2.7 0 5.1-1.2 6.9-3.3 1.1-1.3 1.9-2.8 2.6-4.4 2.2-4.9 3.4-10.3 4.7-15.5 1.3-5.3 2.5-10.6 3.6-15.9h4.3c0.6 0 1.1-0.5 1.1-1.1 0-0.6-0.5-1.1-1.1-1.1h-4c2.2-8.3 4.7-14 5.2-14.8 0.8-1.4 1.7-2.1 2.7-2.1 0.4 0 0.6 0.1 0.7 0.3 0.1 0.2 0.2 0.4 0.2 0.5 0 0.1-0.1 0.4-0.4 0.9-0.3 0.5-0.4 1-0.4 1.5 0 0.7 0.3 1.3 0.8 1.8s1.2 0.8 1.9 0.8 1.4-0.3 1.9-0.8 0.8-1.2 0.8-2.1c-0.1-1.7-0.6-2.8-1.7-3.5z m20 25.2c1.6 0 4.7-1.3 4.7-5.5s-3-4.4-4-4.4c-1.8 0-3.7 1.3-5.3 4.1-1.6 2.8-3.4 6-3.4 6h-0.1c-0.4-2-0.7-3.6-0.9-4.4-0.3-1.7-2.3-5.5-6.5-5.5s-8 2.4-8 2.4c-0.7 0.4-1.2 1.2-1.2 2.1 0 1.4 1.1 2.5 2.5 2.5 0.4 0 0.8-0.1 1.1-0.3 0 0 3.2-1.8 3.8 0 0.2 0.5 0.4 1.1 0.6 1.7 0.8 2.7 1.5 5.9 2.2 8.8l-2.5 4.1s-3.1-1.1-4.7-1.1-4.7 1.3-4.7 5.5 3 4.4 4 4.4c1.8 0 3.7-1.3 5.3-4.1 1.6-2.8 3.4-6 3.4-6 0.5 2.6 1 4.7 1.3 5.5 1 3 3.4 4.7 6.6 4.7 0 0 3.3 0 7.1-2.2 0.9-0.4 1.6-1.3 1.6-2.3 0-1.4-1.1-2.5-2.5-2.5-0.4 0-0.8 0.1-1.1 0.3 0 0-2.7 1.5-3.7 0.3-0.7-1.3-1.2-3-1.7-5.1-0.4-1.9-0.9-4.1-1.3-6.2l2.8-4c-0.1 0.1 3 1.2 4.6 1.2z"></path></svg>