<?xml version="1.0"?><svg xmlns="http://www.w3.org/2000/svg" width="100" height="100" viewBox="0 0 100 100"><g fill="#fff"><path d="m53.3 53.1c3.3-2.5 6.8-2.9 9.2-2.9l8.9-0.1c0.9 0 1.7 0 2.7-0.1 1.1 0 2.2-0.1 3.3-0.1h2.6c0-16.5-13.5-30-30-30s-30 13.5-30 30c0 14.4 10.3 26.5 23.9 29.4-0.2-1-0.1-2 0.1-3 0.4-1.7 1.4-3.1 2.4-4.2-3.1-3.2-5.8-10.3-6.3-19.1h6.9v8c0.2-0.6 0.4-1.2 0.8-1.8 1.2-1.7 2.6-3.7 4.3-5.3 0.3-0.3 0.6-0.5 0.8-0.7l0.4-0.1z m20.5-6h-7.9c-0.3-7.1-1.9-13.3-4.3-18 6.6 3.7 11.2 10.3 12.2 18z m-20.8-19.7c3.4 2.9 6.4 10.3 6.9 19.7h-6.9v-19.7z m-6 0v19.7h-6.9c0.5-9.4 3.5-16.8 6.9-19.7z m-20.8 25.7h7.9c0.3 7.1 1.9 13.3 4.3 18-6.6-3.7-11.2-10.3-12.2-18z m7.9-6h-7.9c1-7.7 5.6-14.3 12.2-18-2.4 4.7-3.9 10.9-4.3 18z m14.2 23.2c0.4-0.3 0.7-0.7 1-0.9 0.3-0.4 0.7-0.8 1-1.2-1.6-0.7-2.8-2.1-3.3-3.8v7.2c0.5-0.6 0.9-1 1.3-1.3z"></path></g><path fill="#fff" d="m79.7 55.3c-0.2-0.2-0.4-0.3-0.6-0.3-2.5-0.1-5.1 0.1-7.6 0.1l-8.9 0.1c-2.7 0-4.9 0.6-7 2.5-1.3 1.2-2.6 2.9-3.6 4.4-0.1 0.2-0.2 0.4-0.2 0.6 0 0.6 0.5 1 1 1 0.6 0 0.7-0.4 1-0.8 0.3-0.4 0.6-0.8 1-1.2 1.4-1.3 3.3-2 5.1-1.8-1.6 4.4-3.8 9.4-7 12.9-1.3 1.4-3.6 2.9-4.1 4.9-0.5 2.1 1.6 2.6 3.2 2 2-0.8 3.2-2.9 4.3-4.6 1.2-2.2 2.4-4.5 3.3-6.8 1-2.3 2-4.6 2.9-6.9 0.6-1.4 0.8-1.4 2.2-1.4h3.9c-1.4 3.2-2.8 6.4-4.1 9.7-1 2.5-2.8 6.1-1.5 8.8 1.3 2.7 4.8 1.7 6.7 0.3 2-1.4 3.2-3.6 4.3-5.7 0.2-0.4 0.4-0.8 0.2-1.3-0.2-0.4-0.5-0.6-0.9-0.6-0.9 0-1.1 1.1-1.4 1.7-0.5 1.1-1.7 2.1-3 1.9-2.9-0.4-0.3-5.7 0.2-7.1 0.5-1.5 1.1-2.9 1.8-4.3 0.4-0.8 0.7-1.7 1.1-2.5 0.5-1 0.5-1 1.7-1.1 1 0 3.9 0.5 4.8-0.1 0.7-0.5 1.1-2.2 1.5-3.5 0-0.3 0-0.6-0.3-0.9z"></path></svg>