<?xml version="1.0"?><svg xmlns="http://www.w3.org/2000/svg" width="100" height="100" viewBox="0 0 100 100"><g fill="#fff"><path d="m80 21.5c0-1.2-0.7-1.5-1.1-1.5h-25.8c-1.9 0-1.9 1.9-1.9 1.9v3.6c0 1.6 1 2 1.5 2h18c0.7 0.1 1.9 0.6 1.9 2.6v17c0.1 0.5 0.4 1.6 1.9 1.6h4s1.6 0 1.6-1.9v-25.3z m-15.6 15.6c0.1-1.2-0.7-1.5-1.1-1.5h-25.8c-1.9 0-1.9 1.9-1.9 1.9v3.6c0 1.6 1 2 1.5 2h18c0.7 0.1 1.9 0.6 1.9 2.6v17c0.1 0.5 0.4 1.6 1.9 1.6h4s1.6 0 1.6-1.9v-25.3z m-40.2 41.4c0.2 0.2 1.2 1 2.6-0.4l13-13c0.4-0.4 1.5-1.2 1.5 0.5v12.8c0.1 0.5 0.4 1.6 1.9 1.6h4s1.6 0 1.6-1.9v-25.3c0-1.2-0.7-1.4-1.1-1.5h-25.8c-1.9 0-1.9 1.9-1.9 1.9v3.6c0 1.6 1 2 1.5 2h12c0.5 0 2 0.1 0.6 1.5l-12.5 12.7s-1.5 1.4-0.2 2.6l2.8 2.9z"></path></g></svg>