<?xml version="1.0"?><svg xmlns="http://www.w3.org/2000/svg" width="100" height="100" viewBox="0 0 100 100"><path fill="#fff" d="m62.8 71.2v7.8c0 0.6 0.5 1.1 1.1 1.1 0.2 0 0.5-0.1 0.6-0.2l15.1-12.3c0.2-0.2 0.3-0.5 0.3-0.8 0-0.3-0.2-0.6-0.4-0.8l-15.1-12.9c-0.1-0.1-0.3-0.1-0.5-0.1-0.6 0-1.1 0.5-1.1 1.1v8.3c-9.3 2.5-16.9-5.7-16.9-5.7-0.2-0.2-0.5-0.3-0.8-0.3-0.6 0-1.1 0.5-1.1 1.1v0.2c3.8 15.7 18.8 13.5 18.8 13.5z m-24.6-12.3l-0.2-0.7v-0.9c0-3.9 3.2-7.1 7.1-7.1 1.9 0 3.6 0.7 5 2.1l0.1 0.1 0.1 0.1c0.9 1 3.5 3.1 6.6 4v-2.5c0-3.9 3.2-7.1 7.1-7.1 1.5 0 2.5 0.4 3.2 0.8l0.7 0.3 0.6 0.5 8.5 7.2c2-2 3.2-4.8 3.2-7.8 0-6.2-5-11.2-11.2-11.2h-0.6v-1c0-6.2-5.1-11.3-11.3-11.3-3 0-5.6 1.1-7.6 3-1.6-4.2-5.7-7.4-10.6-7.4-6.2 0-11.3 5.1-11.3 11.3 0 2.1 0.6 4 1.5 5.7-5 1.2-8.6 5.6-8.6 11 0 6.1 4.7 11 10.8 11.2h7.4c-0.4-0.1-0.4-0.2-0.5-0.3z"></path></svg>