<?xml version="1.0"?><svg xmlns="http://www.w3.org/2000/svg" width="100" height="100" viewBox="0 0 100 100"><title></title><desc></desc><g fill="#fff"><path d="m73 43.5c-3.2 0-6 2.2-6.7 5.2h-4.9c-0.8-5.6-5.6-10-11.5-10s-10.7 4.3-11.5 10h-4.9c-0.8-3-3.5-5.2-6.7-5.2-3.8 0-7 3.1-7 7 0 3.8 3.1 7 7 7 3.2 0 6-2.2 6.7-5.2h4.9c0.8 5 4.7 8.8 9.7 9.6v4.9c-3 0.8-5.2 3.5-5.2 6.7 0 3.8 3.1 7 7 7s7-3.1 7-7c0-3.2-2.2-6-5.2-6.7v-4.9c5-0.7 8.9-4.6 9.7-9.6h4.9c0.8 3 3.5 5.2 6.7 5.2 3.8 0 7-3.1 7-7s-3.1-7-7-7z m-19.5 29.9c0 1.9-1.6 3.5-3.5 3.5s-3.5-1.6-3.5-3.5 1.6-3.5 3.5-3.5 3.5 1.6 3.5 3.5z m-20.2-37.4c-0.8 0.8-0.8 2 0 2.8 0.8 0.8 2 0.8 2.8 0 7.4-7.4 19.4-7.4 26.8 0 0.4 0.4 0.9 0.6 1.4 0.6s1-0.2 1.4-0.6c0.8-0.8 0.8-2 0-2.8-8.9-9-23.5-9-32.4 0z m-5.1-3.6c11.8-11.7 30.8-11.7 42.6 0 0.4 0.4 0.9 0.6 1.4 0.6s1-0.2 1.4-0.6c0.8-0.8 0.8-2 0-2.8-13.3-13.3-34.9-13.3-48.2 0-0.8 0.8-0.8 2 0 2.8 0.8 0.8 2 0.8 2.8 0z"></path></g></svg>