<?xml version="1.0"?><svg xmlns="http://www.w3.org/2000/svg" width="100" height="100" viewBox="0 0 100 100"><path fill="#fff" d="m37.3 31.9h21.8c1.1 0 2-0.9 2-2v-4c0-3.3-2.7-5.9-5.9-5.9h-13.9c-3.3 0-5.9 2.7-5.9 5.9v4c-0.1 1.1 0.8 2 1.9 2z m32.7-7h-2c-0.6 0-1 0.4-1 1v4c0 4.4-3.6 7.9-7.9 7.9h-21.8c-4.4 0-7.9-3.6-7.9-7.9v-4c0-0.6-0.4-1-1-1h-2c-3.3 0-5.9 2.7-5.9 5.9v40.6c0 3.3 2.7 5.9 5.9 5.9h20c2.8 0 3.1-2.3 3.1-3.1v-21.4c0-2.3 1.3-2.8 2-2.8h21.6c2.4 0 2.8-2.1 2.8-2.8v-16.2c0.1-3.4-2.6-6.1-5.9-6.1z m8.4 35.5h-21.8c-0.6 0-1.1-0.5-1.1-1.1v-2.2c0-0.6 0.5-1.1 1.1-1.1h21.8c0.6 0 1.1 0.5 1.1 1.1v2.2c0 0.6-0.5 1.1-1.1 1.1z m0 9.8h-21.8c-0.6 0-1.1-0.5-1.1-1.1v-2.2c0-0.6 0.5-1.1 1.1-1.1h21.8c0.6 0 1.1 0.5 1.1 1.1v2.2c0 0.6-0.5 1.1-1.1 1.1z m0 9.8h-21.8c-0.6 0-1.1-0.5-1.1-1.1v-2.2c0-0.6 0.5-1.1 1.1-1.1h21.8c0.6 0 1.1 0.5 1.1 1.1v2.2c0 0.6-0.5 1.1-1.1 1.1z"></path></svg>