<?xml version="1.0"?><svg xmlns="http://www.w3.org/2000/svg" width="100" height="100" viewBox="0 0 100 100"><title></title><circle cx="46.3" cy="36.3" r="16" fill="#fff"></circle><path d="m66.6 51.1a11.4 11.4 0 0 0-11.4 11.4c0 7.7 8.1 15 10.6 16.9a1.1 1.1 0 0 0 1.5 0c2.5-2 10.6-9.2 10.6-16.9a11.3 11.3 0 0 0-11.3-11.4z m0 16a4.7 4.7 0 1 1 4.7-4.7 4.8 4.8 0 0 1-4.7 4.7z m-16.2 12.6h1.4c5.2-0.5 2.4-3.7 2.4-3.7-3.2-4.6-5-9.1-5-13.5a13.7 13.7 0 0 1 0.6-4.2c0.2-2-0.6-2.5-1-2.7h-0.2a18.5 18.5 0 0 0-2.4-0.1 24.3 24.3 0 0 0-24 20.9c0 1.2 0.4 3.5 4.2 3.5h23.8c0-0.2 0.1-0.2 0.2-0.2z" fill="#fff"></path></svg>