<?xml version="1.0"?><svg xmlns="http://www.w3.org/2000/svg" width="100" height="100" viewBox="0 0 100 100"><title></title><circle cx="44.6" cy="36.2" r="16.1" fill="#fff"></circle><path d="m48.8 79.6c2.8 0 1.2-1.9 1.2-1.9a19.2 19.2 0 0 1-4.2-12 18.6 18.6 0 0 1 1.7-7.9l0.2-0.4a1.2 1.2 0 0 0-0.9-1.9 17.7 17.7 0 0 0-2.3-0.1 24.4 24.4 0 0 0-24.1 20.9c0 1.2 0.4 3.5 4.2 3.5h23.7c0.4-0.2 0.4-0.2 0.5-0.2z m16.5-28.4a14.3 14.3 0 1 0 14.2 14.3 14.3 14.3 0 0 0-14.2-14.3z m0 4.5a3.2 3.2 0 0 1 3.2 3.2 3.1 3.1 0 0 1-0.7 2l2.3 4.3c0.1 0.2 0 0.4-0.2 0.4a2.7 2.7 0 0 0-1.1 0.5c-0.2 0.1-0.4 0-0.4-0.1l-2.2-4.1a3.1 3.1 0 0 1-0.9 0.1 3.2 3.2 0 0 1-3.2-3.2 3.1 3.1 0 0 1 3.2-3.1z m-2 8.2l-2.2 4.1a3.3 3.3 0 0 1 1 2.3 3.2 3.2 0 1 1-3.2-3.2h0.4l2.3-4.3c0.1-0.2 0.2-0.2 0.5-0.1a2.9 2.9 0 0 0 1.1 0.6c0.1 0.4 0.2 0.6 0.1 0.6z m8.3 9.8a3.3 3.3 0 0 1-3-1.9h-4.4c-0.2 0-0.4-0.2-0.2-0.4a2.5 2.5 0 0 0 0.1-0.9v-0.2c0-0.2 0.1-0.4 0.2-0.4h4.2a3.1 3.1 0 0 1 3.1-2.6 3.2 3.2 0 0 1 3.2 3.2 3.4 3.4 0 0 1-3.2 3.2z" fill="#fff"></path></svg>