<?xml version="1.0"?><svg xmlns="http://www.w3.org/2000/svg" width="100" height="100" viewBox="0 0 100 100"><path fill="#fff" d="m78 36h-40c-1.1 0-2-0.9-2-2v-4c0-1.1 0.9-2 2-2h40c1.1 0 2 0.9 2 2v4c0 1.1-0.9 2-2 2z m0 18h-40c-1.1 0-2-0.9-2-2v-4c0-1.1 0.9-2 2-2h40c1.1 0 2 0.9 2 2v4c0 1.1-0.9 2-2 2z m-52 0h-4c-1.1 0-2-0.9-2-2v-4c0-1.1 0.9-2 2-2h4c1.1 0 2 0.9 2 2v4c0 1.1-0.9 2-2 2z m0-18h-4c-1.1 0-2-0.9-2-2v-4c0-1.1 0.9-2 2-2h4c1.1 0 2 0.9 2 2v4c0 1.1-0.9 2-2 2z m0 36h-4c-1.1 0-2-0.9-2-2v-4c0-1.1 0.9-2 2-2h4c1.1 0 2 0.9 2 2v4c0 1.1-0.9 2-2 2z m52 0h-40c-1.1 0-2-0.9-2-2v-4c0-1.1 0.9-2 2-2h40c1.1 0 2 0.9 2 2v4c0 1.1-0.9 2-2 2z"></path></svg>