<?xml version="1.0"?><svg xmlns="http://www.w3.org/2000/svg" width="100" height="100" viewBox="0 0 100 100"><path fill="#fff" d="m73.8 20h-47.6c-3.4 0-6.2 2.8-6.2 6.2v47.6c0 3.4 2.8 6.2 6.2 6.2h47.6c3.4 0 6.2-2.8 6.2-6.2v-47.6c0-3.4-2.8-6.2-6.2-6.2z m-26.4 7.4c0-0.8 0.8-1.4 1.6-1.4h23.4c0.8 0 1.4 0.8 1.4 1.6v3c0 0.8-0.8 1.4-1.6 1.4h-23.4c-0.8 0-1.4-0.8-1.4-1.6v-3z m-8-1.4c1.7 0 3 1.3 3 3s-1.3 3-3 3-3-1.3-3-3 1.3-3 3-3z m-10.4 0c1.7 0 3 1.3 3 3s-1.3 3-3 3-3-1.3-3-3 1.3-3 3-3z m45 46.6c0 0.8-0.8 1.4-1.6 1.4h-45c-0.8 0-1.4-0.8-1.4-1.6v-33c0-0.8 0.8-1.4 1.6-1.4h45c0.8 0 1.4 0.8 1.4 1.6v33z m-6-20.3c0 1.1-0.9 2-2 2h-7.6c-1.1 0-2-0.9-2-2v-3c0-1.1 0.9-2 2-2h7.6c1.1 0 2 0.9 2 2v3z m0 11c0 1.1-0.9 2-2 2h-7.6c-1.1 0-2-0.9-2-2v-3c0-1.1 0.9-2 2-2h7.6c1.1 0 2 0.9 2 2v3z m-19-16h-15.4c-0.8 0-1.6 0.6-1.6 1.4v15c0 0.8 0.6 1.6 1.4 1.6h15.4c0.8 0 1.6-0.6 1.6-1.4v-15c0-0.8-0.6-1.6-1.4-1.6z m-4 14.9h-7.5c-0.8 0-1.5-0.9-1.5-1.8 0-1.3 1.4-2.1 2.8-2.8 1-0.4 1.1-0.8 1.1-1.3s-0.3-0.8-0.6-1.1c-0.6-0.5-0.9-1.3-0.9-2.2 0-1.7 1-3.1 2.8-3.1 1.7 0 2.8 1.4 2.8 3.1 0 0.9-0.3 1.7-0.9 2.2-0.3 0.3-0.6 0.7-0.6 1.1s0.1 0.8 1.1 1.2c1.4 0.6 2.8 1.5 2.8 2.8 0.1 1-0.6 1.9-1.4 1.9z"></path></svg>