<?xml version="1.0"?><svg xmlns="http://www.w3.org/2000/svg" width="100" height="100" viewBox="0 0 100 100"><title></title><desc></desc><g fill="#fff"><path d="m25.8 60.6h-4.5c-0.7 0-1.3 0.6-1.3 1.3v16.1c0 0.7 0.6 1.3 1.3 1.3h2.2c2 0 3.6-1.6 3.6-3.6v-13.7c0.1-0.8-0.6-1.4-1.3-1.4z m54.1 8.8c-0.7-1.6-2-3.3-3.9-3.5-1-0.1-2 0.3-2.9 0.6-3.6 1.3-7.2 2.5-10.8 3.8-2.3 0.8-4.7 1.6-7.2 1.8-1.7 0.1-3.4 0-5.1 0-0.9 0-1.7-0.7-1.7-1.7s0.7-1.7 1.7-1.7h9.1c1.7 0 3-1.4 3-3s-1.4-3-3-3h-7c-0.3 0-2.2-0.1-3.4-0.6-1.3-0.6-3-0.7-3-0.6h-12.3c-1.5 0-2.7 1.2-2.7 2.7v11.3c0 1.3 1 2.4 2.3 2.6h0.3c2.3 0 4.6 0.5 6.9 0.9 2.3 0.5 4.5 0.8 6.9 0.8 3 0.1 6.1-0.4 9-1.1 2.9-0.8 5.7-1.9 8.5-2.8 4.8-1.6 9.7-3.3 14.5-4.9 0.6-0.3 1.1-0.8 0.8-1.6z"></path><path fill-rule="evenodd" clip-rule="evenodd" d="m58 40.1v15c0 0.5 0.5 0.7 0.9 0.6 2.9-1.7 11.9-6.7 11.9-6.7 1.2-0.7 1.9-1.9 1.9-3.3v-13.5c0-0.5-0.5-0.7-0.9-0.6l-13.2 7.4c-0.3 0.3-0.6 0.7-0.6 1.1m-1.2-4.1l13.2-7.4c0.4-0.2 0.4-0.8 0-1-2.9-1.7-12-6.8-12-6.8-1.2-0.7-2.6-0.7-3.8 0l-12 6.8c-0.4 0.2-0.4 0.8 0 1l13.4 7.4c0.3 0.2 0.8 0.2 1.2 0m-3.1 3.1l-13.2-7.4c-0.4-0.2-0.9 0.1-0.9 0.6v13.4c0 1.3 0.7 2.6 1.9 3.3 0 0 9 5.1 11.9 6.7 0.4 0.2 0.9-0.1 0.9-0.6v-15c0-0.4-0.2-0.8-0.6-1"></path></g></svg>