<?xml version="1.0"?><svg xmlns="http://www.w3.org/2000/svg" width="100" height="100" viewBox="0 0 100 100"><g fill="#fff"><path d="m74.4 30h-15.6v-5c0-2.7-2.2-5-5-5h-7.5c-2.7 0-5 2.2-5 5v5h-15.7c-1 0-1.9 0.9-1.9 1.9v3.7c0 1 0.9 1.9 1.9 1.9h48.7c1 0 1.9-0.9 1.9-1.9v-3.7c0-1-0.8-1.9-1.8-1.9z m-20.8 0h-7.4v-3.7c0-0.7 0.5-1.2 1.2-1.2h5c0.7 0 1.2 0.5 1.2 1.2v3.7z m15.8 12.5h-38.8c-1 0-1.9 0.9-1.9 1.9v29.4c0 3.5 2.7 6.2 6.2 6.2h30c3.5 0 6.2-2.7 6.2-6.2v-29.4c0.1-1-0.7-1.9-1.7-1.9z m-22.8 31.1l-6.3 0.1c-0.2 0-2.6 0-4.2-2.5-1.7-2.7-0.4-5 1.5-8.3l-1.8-1.2c-0.2-0.1-0.3-0.3-0.2-0.5 0-0.2 0.1-0.3 0.4-0.4l4.9-1.2 0.4-0.1c0.2 0 0.4 0 0.6 0.4l0.1 0.4 1.1 5c0 0.2 0 0.4-0.2 0.5-0.2 0.1-0.4 0.1-0.6 0l-1.6-1c-1.7 2.9-2 3.8-1.5 4.5 0.5 0.8 1.2 0.9 1.2 0.9l6.2-0.1c0.6 0 1.2 0.3 1.5 0.8 0.2 0.3 0.3 0.6 0.3 0.9 0 1-0.8 1.8-1.8 1.8z m4.5-18.2c0-0.2 0.1-0.4 0.3-0.5l1.7-0.8c-1.5-3-2.1-3.7-3-3.7-1 0-1.3 0.5-1.4 0.6l-3.3 5.3c-0.3 0.5-0.9 0.8-1.5 0.8-0.3 0-0.6-0.1-0.9-0.3-0.8-0.5-1.1-1.6-0.5-2.4l3.3-5.3c0.1-0.2 1.4-2.2 4.3-2.2 3.2 0 4.4 2.4 6.2 5.8l2-0.9c0.2-0.1 0.4 0 0.5 0.1s0.2 0.3 0.1 0.5l-1.7 5.1c0 0.1-0.1 0.2-0.3 0.3-0.2 0.1-0.4 0-0.4 0l-5.1-1.9c-0.2-0.1-0.3-0.3-0.3-0.5z m13.1 15.3c-1.5 2.8-4.2 2.8-8 2.7l-0.1 2.2c0 0.2-0.1 0.4-0.3 0.4-0.1 0-0.3 0.1-0.5-0.1l-3.7-3.9c-0.3-0.3 0-0.6 0-0.6l0.2-0.2 4-3.5c0.2-0.1 0.3-0.2 0.5-0.1s0.3 0.3 0.3 0.5l-0.1 1.9c3.3 0 4.3-0.1 4.7-0.9s0.2-1.4 0.1-1.5l-3.1-5.4c-0.3-0.5-0.3-1.2 0-1.7 0.2-0.3 0.4-0.5 0.7-0.7 0.8-0.5 1.9-0.2 2.4 0.7l3.1 5.4c0.1 0.2 1.2 2.2-0.2 4.8z"></path></g></svg>