<?xml version="1.0"?><svg xmlns="http://www.w3.org/2000/svg" width="100" height="100" viewBox="0 0 100 100"><title></title><path d="m48.7 50.9a1 1 0 0 0-0.5 1.7l5.5 5.6a1.4 1.4 0 0 1 0 2.1l-2.1 2.1a1.4 1.4 0 0 1-2.1 0l-13.5-13.5a1.4 1.4 0 0 1 0-2.1l13.5-13.5a1.4 1.4 0 0 1 2.1 0l2.1 2.2a1.4 1.4 0 0 1 0 2.1l-5.6 5.6c-0.6 0.6 0.5 1.7 0.5 1.7a27.2 27.2 0 0 1 25.8 20.3 26 26 0 0 0 5.3-15.6c-0.1-15.5-13.5-27.7-30.1-27.7s-30 12.3-30 27.4a27.6 27.6 0 0 0 3.6 13.3 2.6 2.6 0 0 1 0.3 2.1l-3.9 10.7a1.3 1.3 0 0 0 1.6 1.6l10.8-4.1a2.3 2.3 0 0 1 2.1 0.3 32.4 32.4 0 0 0 15.7 4 31.6 31.6 0 0 0 19.5-6.9 21.7 21.7 0 0 0-20.6-19.4z" fill="#fff"></path></svg>