<?xml version="1.0"?><svg xmlns="http://www.w3.org/2000/svg" width="100" height="100" viewBox="0 0 100 100"><path fill="#fff" d="m79.5 73.9l-16.6-16.5c3.4-4.7 5.1-10.7 4.2-17.1-1.5-10.7-10.2-19.2-21.1-20.2-14.7-1.5-27.2 11-25.7 25.8 1 10.7 9.5 19.6 20.2 21.1 6.4 0.9 12.3-0.9 17.1-4.2l16.6 16.6c0.7 0.7 1.9 0.7 2.6 0l2.6-2.6c0.8-0.9 0.8-2.1 0.1-2.9z m-25.2-18.2v-4.3c0-0.8-0.7-1.5-1.5-1.5s-1.5 0.7-1.5 1.5v6.3c-1.8 1-3.8 1.6-6 1.8v-6c0-0.8-0.7-1.5-1.5-1.5s-1.5 0.7-1.5 1.5v6c-2.2-0.2-4.2-0.8-6-1.8v-6.3c0-0.8-0.7-1.5-1.5-1.5s-1.5 0.7-1.5 1.5v4.2c-2.6-2.3-4.5-5.3-5.3-8.9l6.8-5.4 7.1 5.3c0.6 0.5 1.5 0.4 2-0.2l7.4-8.2v5.2c0 0.8 0.7 1.5 1.5 1.5s1.5-0.7 1.5-1.5v-9c0-0.8-0.7-1.5-1.5-1.5h-8c-0.8 0-1.5 0.7-1.5 1.5s0.7 1.6 1.5 1.6h4.5l-6.7 7.5-6.9-5.2c-0.5-0.4-1.3-0.4-1.8 0l-6.2 4.9c0.1-8.7 7.3-15.8 16.1-15.8 8.9 0 16.1 7.2 16.1 16.1 0 4.9-2.2 9.3-5.6 12.2z"></path></svg>