<?xml version="1.0"?><svg xmlns="http://www.w3.org/2000/svg" width="100" height="100" viewBox="0 0 100 100"><path fill="#fff" d="m74.8 45c-0.7-3.4-2.1-6.5-3.9-9.2 1.8-2 1.8-5-0.1-6.9-1-1-2.3-1.5-3.5-1.5s-2.5 0.5-3.4 1.4c-2.7-1.7-5.6-3-8.9-3.7 0-2.8-2.2-5-5-5s-5 2.2-5 5c-3.3 0.7-6.4 2-9.1 3.8-1-1-2.3-1.5-3.5-1.5-1.3 0-2.6 0.5-3.5 1.5-2 2-2 5.1 0 7.1-1.9 2.6-3.1 5.7-3.9 9-2.7 0-4.9 2.3-4.9 5s2.2 5 4.9 5c0.6 3.2 1.9 6.3 3.7 8.9-0.1 0-0.1 0.1-0.2 0.1-2 2-2 5.1 0 7.1 1 1 2.3 1.5 3.5 1.5 1.3 0 2.6-0.5 3.5-1.5l0.1-0.1c2.8 1.9 5.9 3.2 9.3 3.9 0 2.8 2.2 5 5 5s5-2.2 5-5c3.3-0.7 6.3-2 9-3.7 1 1 2.3 1.5 3.5 1.5 1.3 0 2.6-0.5 3.5-1.5 2-2 2-5.1 0-7.1 1.8-2.7 3.1-5.8 3.8-9.1h0.1c2.8 0 5-2.2 5-5s-2.3-5-5-5z m-9-14c0.1-0.1 0.3-0.2 0.5-0.3 0.3-0.2 0.6-0.2 0.9-0.2 0.5 0 1 0.2 1.4 0.6 0.6 0.6 0.7 1.6 0.3 2.3-0.1 0.2-0.2 0.3-0.3 0.5-0.4 0.4-0.9 0.6-1.4 0.6s-1-0.2-1.4-0.6c-0.9-0.9-0.9-2.1 0-2.9z m-18-6.3c0.2-0.9 1-1.6 2-1.6s1.8 0.7 2 1.6v0.4c0 1.1-0.9 2-2 2s-2-0.9-2-2v-0.4z m-17 6.3c0.4-0.4 0.9-0.6 1.4-0.6 0.4 0 0.8 0.1 1.1 0.3l0.3 0.3c0.8 0.8 0.8 2 0 2.8-0.4 0.4-0.9 0.6-1.4 0.6s-1-0.2-1.4-0.6l-0.3-0.3c-0.5-0.8-0.5-1.8 0.3-2.5z m-5.8 21c-0.2 0-0.3 0-0.5-0.1-0.9-0.2-1.5-1-1.5-1.9s0.7-1.7 1.5-1.9c0.2 0 0.3-0.1 0.5-0.1 1.1 0 2 0.9 2 2s-1 2-2 2z m8.3 16.9l-0.2 0.2c-0.3 0.3-0.8 0.4-1.2 0.4-0.5 0-1-0.2-1.4-0.6-0.4-0.4-0.6-0.9-0.6-1.4s0.2-0.9 0.4-1.2c0-0.1 0.1-0.1 0.1-0.2 0.4-0.4 0.9-0.6 1.4-0.6 0.5 0 1 0.2 1.4 0.6 0.9 0.8 0.9 2 0.1 2.8z m18.5 6.4c-0.2 0.9-1 1.6-2 1.6s-1.8-0.7-2-1.6v-0.4c0-1.1 0.9-2 2-2s2 0.9 2 2v0.4z m20-21.3c-0.6 3.2-1.8 6.1-3.6 8.7-0.3 0-0.5-0.1-0.8-0.1-1.3 0-2.6 0.5-3.5 1.5-1.2 1.2-1.6 2.8-1.4 4.4-2.5 1.7-5.4 3-8.6 3.6-0.9-1.3-2.4-2.1-4.1-2.1s-3.2 0.8-4.1 2.1c-3.3-0.6-6.3-1.9-8.9-3.8 0.2-1.5-0.3-3-1.4-4.2-1-1-2.3-1.5-3.5-1.5-0.2 0-0.4 0-0.6 0.1-1.7-2.5-3-5.4-3.6-8.6 1.3-0.9 2.2-2.4 2.2-4.1 0-1.7-0.9-3.2-2.2-4.1 0.6-3.1 1.8-6 3.6-8.6 0.3 0 0.5 0.1 0.8 0.1 1.3 0 2.6-0.5 3.5-1.5 1.2-1.2 1.6-2.8 1.4-4.4 2.6-1.8 5.5-3 8.7-3.6 0.9 1.3 2.4 2.1 4.1 2.1 1.7 0 3.1-0.8 4.1-2.1 3 0.6 5.9 1.7 8.3 3.4-0.3 1.6 0.1 3.3 1.4 4.5 1 1 2.3 1.5 3.5 1.5 0.3 0 0.7 0 1-0.1 1.8 2.6 3 5.5 3.6 8.7-1.2 0.9-2.1 2.4-2.1 4s0.9 3.1 2.2 4.1z m3.2-2h-0.3c-1.1 0-2-0.9-2-2s0.9-2 2-2h0.3c0.9 0.2 1.7 1 1.7 2s-0.7 1.8-1.7 2z m-20.2 0.4c-2.1-0.9-2.5-1.8-2.5-2.6 0-0.9 0.6-1.8 1.3-2.4 1.2-1.2 1.9-2.8 1.9-4.6 0-3.5-2.1-6.5-5.9-6.5s-5.9 3-5.9 6.5c0 1.9 0.7 3.5 1.9 4.6 0.7 0.7 1.3 1.5 1.3 2.4s-0.3 1.7-2.5 2.6c-3.1 1.3-6 2.8-6.1 5.6 0 1.9 1.4 3.4 3.2 3.4h16.3c1.8 0 3.2-1.5 3.2-3.4-0.1-2.8-3.1-4.2-6.2-5.6z"></path></svg>