<?xml version="1.0"?><svg xmlns="http://www.w3.org/2000/svg" width="100" height="100" viewBox="0 0 100 100"><path fill="#fff" d="m66.3 48.4c0.3 0 0.7-0.1 0.9-0.3 0.8-0.5 1-1.6 0.5-2.4l-6.3-9.6c-0.1-0.2-0.2-0.3-0.4-0.4-0.7-0.6-1.8-0.4-2.4 0.3l-6.8 8.8-8-11.9c-0.1-0.2-0.3-0.3-0.5-0.5-0.8-0.5-1.9-0.3-2.4 0.5l-8.6 12.8c-0.2 0.3-0.3 0.6-0.3 1 0 0.9 0.8 1.7 1.7 1.7h32.6z"></path><path d="m33.2 54h33.9c0.9 0 1.7 0.8 1.7 1.7s-0.8 1.7-1.7 1.7h-33.9c-0.9 0-1.7-0.8-1.7-1.7s0.8-1.7 1.7-1.7z" fill="none"></path><path fill="#fff" d="m33.2 54h33.9c0.9 0 1.7 0.8 1.7 1.7 0 0.9-0.8 1.7-1.7 1.7h-33.9c-0.9 0-1.7-0.8-1.7-1.7 0-1 0.8-1.7 1.7-1.7z"></path><path d="m36.7 62.5h27c0.9 0 1.7 0.8 1.7 1.7 0 0.9-0.8 1.7-1.7 1.7h-27c-0.9 0-1.7-0.8-1.7-1.7 0-0.9 0.7-1.7 1.7-1.7z" fill="none"></path><path fill="#fff" d="m36.7 62.5h27c0.9 0 1.7 0.8 1.7 1.7 0 0.9-0.8 1.7-1.7 1.7h-27c-0.9 0-1.7-0.8-1.7-1.7 0-0.9 0.7-1.7 1.7-1.7z m38.5-28.6c0.8-1.1 1.3-2.4 1.3-3.9 0-3.6-2.9-6.4-6.4-6.4-1.5 0-2.8 0.5-3.9 1.3-4.7-3-10.2-4.8-16.2-4.8-16.6 0-30 13.4-30 30 0 7.5 2.7 14.3 7.2 19.5-0.3 0.6-0.4 1.3-0.4 2 0 2.6 2.1 4.7 4.7 4.7 1 0 1.8-0.3 2.6-0.8 4.6 2.9 10.1 4.6 15.9 4.6 16.6 0 30-13.4 30-30 0-6-1.8-11.5-4.8-16.2z m-5.1-7c1.7 0 3.1 1.4 3.1 3.1s-1.4 3-3.1 3c-1.7 0-3.1-1.3-3.1-3s1.4-3.1 3.1-3.1z m-20.1 49.8c-5.1 0-9.9-1.4-13.9-4 0.1-0.4 0.2-0.8 0.2-1.2 0-2.6-2.1-4.7-4.7-4.7-0.7 0-1.3 0.1-1.8 0.4-3.9-4.6-6.3-10.6-6.3-17.1 0-14.7 11.9-26.6 26.6-26.6 5.2 0 10.1 1.5 14.2 4.1-0.3 0.7-0.5 1.5-0.5 2.4 0 3.6 2.9 6.4 6.4 6.4 0.8 0 1.6-0.2 2.4-0.5 2.6 4.1 4.1 9 4.1 14.2-0.1 14.7-12.1 26.6-26.7 26.6z"></path></svg>