<?xml version="1.0"?><svg xmlns="http://www.w3.org/2000/svg" width="100" height="100" viewBox="0 0 100 100"><title></title><path d="m76 42h-52a2 2 0 0 0-2 2v30a6 6 0 0 0 6 6h44a6 6 0 0 0 6-6v-30a2 2 0 0 0-2-2z m-26 4.1a14.9 14.9 0 0 1 8.2 2.5l-20.6 20.6a14.8 14.8 0 0 1-2.5-8.2 14.9 14.9 0 0 1 14.9-14.9z m0 29.8a14.7 14.7 0 0 1-8.1-2.4l20.6-20.6a14.7 14.7 0 0 1 2.4 8.1 14.9 14.9 0 0 1-14.9 14.9z m22-49.9h-5v-2a4 4 0 0 0-8 0v2h-18v-2a4 4 0 0 0-8 0v2h-5a6 6 0 0 0-6 6v2a2 2 0 0 0 2 2h52a2 2 0 0 0 2-2v-2a6 6 0 0 0-6-6z" fill="#fff"></path></svg>