<?xml version="1.0"?><svg xmlns="http://www.w3.org/2000/svg" width="100" height="100" viewBox="0 0 100 100"><title></title><path d="m78.8 45.1l-1-2.8-22.7 8.1-0.5 1.3a4.8 4.8 0 0 1-1.7 2.3 4.9 4.9 0 0 1-7.8-4 5.7 5.7 0 0 1 1.4-3.7l0.6-0.8v-25.2l-3.6 0.8a29 29 0 0 0-16.1 9.9 29.7 29.7 0 0 0-6.9 18.9 29.6 29.6 0 0 0 59.2 0 17.7 17.7 0 0 0-0.9-4.8z m-12.1 21.7a23.4 23.4 0 0 1-16.7 6.9 23.6 23.6 0 0 1-16.7-6.9 23.6 23.6 0 0 1-1.4-31.8 24.1 24.1 0 0 1 9.3-6.8v15.5a11.5 11.5 0 0 0-2 6.4 10.7 10.7 0 0 0 3.2 7.7 11 11 0 0 0 7.7 3.2 10.7 10.7 0 0 0 6.4-2.1 10.2 10.2 0 0 0 3.2-3.7l14-5a23.8 23.8 0 0 1-7 16.6z m-11.1-22.9l19.5-6.9a1.1 1.1 0 0 0 0.5-1.7l-0.2-0.4a29.7 29.7 0 0 0-20.7-14 1.6 1.6 0 0 0-1.8 1.6v19.6a2 2 0 0 0 0.1 0.7 2 2 0 0 0 2.6 1.1z" fill="#fff"></path></svg>