<?xml version="1.0"?><svg xmlns="http://www.w3.org/2000/svg" width="100" height="100" viewBox="0 0 100 100"><title></title><path d="m72 26h-5v-2a4 4 0 0 0-8 0v2h-18v-2a4 4 0 0 0-8 0v2h-5a6 6 0 0 0-6 6v2a2 2 0 0 0 2 2h52a2 2 0 0 0 2-2v-2a6 6 0 0 0-6-6z m4 16h-52a2 2 0 0 0-2 2v30a6 6 0 0 0 6 6h44a6 6 0 0 0 6-6v-30a2 2 0 0 0-2-2z m-26 33.9a14.9 14.9 0 1 1 14.9-14.9 14.9 14.9 0 0 1-14.9 14.9z m-6.8-8.7a1.7 1.7 0 0 1-1.9 1.6h-1.2a0.7 0.7 0 0 1-0.7-0.6v-9.2c0-0.4 0.3-0.6 0.7-0.6h2.4a0.7 0.7 0 0 1 0.7 0.6z m17.2-1.8c0 3.5-3.3 3.8-6.9 3.8-3.3 0-4.5-1.1-7.7-1.2a0.7 0.7 0 0 1-0.6-0.6v-8c0-0.4 0.3-0.6 0.7-0.6a4.2 4.2 0 0 0 4-4.2v-2.4c0-0.4 0.3-0.6 0.7-0.6h1.2a1.7 1.7 0 0 1 1.9 1.6v4.1a1.7 1.7 0 0 0 1.9 1.6h2.8a1.8 1.8 0 0 1 1.9 1.6z" fill="#fff"></path></svg>