<?xml version="1.0"?><svg xmlns="http://www.w3.org/2000/svg" width="100" height="100" viewBox="0 0 100 100"><g fill="#fff"><path d="m72 26h-5v-2c0-2.2-1.8-4-4-4s-4 1.8-4 4v2h-18v-2c0-2.2-1.8-4-4-4s-4 1.8-4 4v2h-5c-3.3 0-6 2.7-6 6v2c0 1.1 0.9 2 2 2h52c1.1 0 2-0.9 2-2v-2c0-3.3-2.7-6-6-6z m4 16h-52c-1.1 0-2 0.9-2 2v30c0 3.3 2.7 6 6 6h44c3.3 0 6-2.7 6-6v-30c0-1.1-0.9-2-2-2z m-33.7 17.9c0-0.6 0.5-1.1 1.1-1.1h19.4c0.6 0 1.1 0.5 1.1 1.1v2.2c0 0.6-0.5 1.1-1.1 1.1h-19.4c-0.6 0-1.1-0.5-1.1-1.1v-2.2z m-4.5 12.1c0.1 0.6-0.4 1.1-1 1.1h-2.3c-0.6 0-1.1-0.5-1.1-1.1v-2.2c0-0.6 0.5-1.1 1.1-1.1h2.2c0.6 0 1.1 0.5 1.1 1.1v2.2z m0-9.9c0.1 0.6-0.4 1.1-1 1.1h-2.3c-0.6 0-1.1-0.5-1.1-1.1v-2.2c0-0.6 0.5-1.1 1.1-1.1h2.2c0.6 0 1.1 0.5 1.1 1.1v2.2z m0-9.9c0.1 0.6-0.4 1.1-1 1.1h-2.3c-0.6 0-1.1-0.5-1.1-1.1v-2.2c0-0.6 0.5-1.1 1.1-1.1h2.2c0.6 0 1.1 0.5 1.1 1.1v2.2z m28.8 19.8c0 0.6-0.5 1.1-1.1 1.1h-22.1c-0.6 0-1.1-0.5-1.1-1.1v-2.2c0-0.6 0.5-1.1 1.1-1.1h22.1c0.6 0 1.1 0.5 1.1 1.1v2.2z m0-19.8c0 0.6-0.5 1.1-1.1 1.1h-22.1c-0.6 0-1.1-0.5-1.1-1.1v-2.2c0-0.6 0.5-1.1 1.1-1.1h22.1c0.6 0 1.1 0.5 1.1 1.1v2.2z"></path></g></svg>