<?xml version="1.0"?><svg xmlns="http://www.w3.org/2000/svg" width="100" height="100" viewBox="0 0 100 100"><title></title><path d="m72 26h-5v-2a4 4 0 0 0-8 0v2h-18v-2a4 4 0 0 0-8 0v2h-5a6 6 0 0 0-6 6v2a2 2 0 0 0 2 2h52a2 2 0 0 0 2-2v-2a6 6 0 0 0-6-6z m4 16h-52a2 2 0 0 0-2 2v30a6 6 0 0 0 6 6h44a6 6 0 0 0 6-6v-30a2 2 0 0 0-2-2z m-30.7 32.1a1.1 1.1 0 0 1-1.1 1h-7.2a1.1 1.1 0 0 1-1-1.1v-14.1a1.1 1.1 0 0 1 1.1-1h7.3a1.1 1.1 0 0 1 1 1.1l-0.1 14.1z m19.9 0.2a1.1 1.1 0 0 1-1.1 1h-13.4a1.1 1.1 0 0 1-1-1.1v-14.3a1.1 1.1 0 0 1 1.1-1h13.5a1.1 1.1 0 0 1 1 1.1l-0.1 14.3z m0.2-20.6a1.1 1.1 0 0 1-1.1 1h-27.3a1.1 1.1 0 0 1-1-1.1v-6.3a1.1 1.1 0 0 1 1.1-1h27.2a1.1 1.1 0 0 1 1 1.1c0.1 0 0.1 6.3 0.1 6.3z" fill="#fff"></path></svg>