<?xml version="1.0"?><svg xmlns="http://www.w3.org/2000/svg" width="100" height="100" viewBox="0 0 100 100"><title></title><desc></desc><path fill="#fff" d="m49.1 21.5c-16.9 0-30.3 12.4-30.3 27.8 0 4.8 1.4 9.4 3.7 13.5 0.4 0.6 0.5 1.4 0.3 2.2l-3.9 10.8c-0.4 1 0.6 1.9 1.7 1.7l10.9-4.2c0.6-0.3 1.4-0.1 2.2 0.3 4.6 2.5 10 4.1 15.9 4.1 16.4-0.3 30-12.8 30-28.1-0.1-15.7-13.7-28.1-30.5-28.1z m-12.2 32.5c-0.4 0.6-0.8 1.3-1.3 1.7-0.5 0.4-1.1 0.8-1.9 1-0.6 0.3-1.4 0.3-2.2 0.3-1 0-1.9-0.1-2.8-0.5-0.9-0.4-1.8-0.9-2.4-1.7l-0.3-0.3c-0.1-0.1 0-0.4 0.3-0.6l2-1.9c0.3-0.3 0.5-0.3 0.6-0.1 0.1 0.1 0.3 0.4 0.3 0.4 0.3 0.4 0.6 0.6 1 0.9 0.6 0.4 1.3 0.4 2 0.3 0.3 0 0.4-0.1 0.6-0.3l0.4-0.4c0.1-0.1 0.1-0.4 0.1-0.5 0-0.5-0.1-0.6-0.3-0.8-0.3-0.3-0.6-0.5-1.1-0.6-0.5-0.1-1-0.4-1.7-0.5-0.6-0.3-1.3-0.5-1.8-0.8-0.6-0.4-1-0.9-1.4-1.4-0.4-0.6-0.6-1.4-0.6-2.4 0-0.9 0.1-1.7 0.5-2.3s0.8-1.1 1.4-1.5c0.5-0.4 1.1-0.8 1.9-0.9 1.5-0.4 3-0.4 4.6 0.1 0.8 0.3 1.5 0.8 1.9 1l0.4 0.3c0.3 0.1 0.1 0.5-0.1 0.8l-1.9 1.9c-0.3 0.3-0.6 0.3-0.9 0-0.3-0.1-0.4-0.4-0.5-0.4-0.6-0.4-1.5-0.5-2.3-0.4-0.3 0-0.4 0.1-0.5 0.3l-0.2 0.3c-0.1 0.1-0.1 0.3-0.1 0.5 0 0.4 0.1 0.5 0.3 0.6 0.3 0.3 0.6 0.4 1.1 0.6 0.5 0.1 1 0.4 1.7 0.5 0.6 0.3 1.3 0.5 1.8 0.8 0.6 0.4 1 0.9 1.4 1.4 0.4 0.6 0.6 1.4 0.6 2.4-0.1 0.8-0.2 1.6-0.6 2.2z m21.1 1.8c0 0.8-0.6 1.3-1.4 1.3h-1.3c-0.8 0-1.1-0.5-1.1-1.3v-7.5c0-0.8-1-0.9-1.3-0.3l-2.2 5.7c-0.1 0.5-0.6 0.8-1.1 0.8h-0.9c-0.5 0-1-0.4-1.1-0.8l-2.3-5.7c-0.3-0.6-1.3-0.5-1.3 0.3v7.5c0 0.8-0.6 1.3-1.4 1.3h-1.3c-0.8 0-1.1-0.5-1.1-1.3v-14c0-0.8 0.5-1.3 1.1-1.3h3.3c0.5 0 1 0.4 1.1 0.8l2.5 6.6c0.3 0.5 1 0.5 1.1 0l2.5-6.6c0.1-0.5 0.6-0.8 1.1-0.8h3.4c0.8 0 1.4 0.5 1.4 1.3 0.3 0 0.3 14 0.3 14z m13.3-1.7c-0.4 0.6-0.8 1.3-1.4 1.7-0.5 0.4-1.1 0.8-1.9 1-0.8 0.3-1.4 0.3-2.2 0.3-1 0-1.9-0.1-2.8-0.5s-1.8-0.9-2.4-1.7l-0.3-0.3c-0.1-0.1 0-0.4 0.3-0.6l2-1.9c0.3-0.3 0.5-0.3 0.6-0.1s0.3 0.4 0.3 0.4c0.3 0.4 0.6 0.6 1 0.9 0.6 0.4 1.4 0.4 2 0.3 0.3-0.1 0.5-0.1 0.6-0.3l0.4-0.4s0.1-0.4 0.1-0.5c0-0.5-0.1-0.6-0.3-0.8-0.3-0.3-0.6-0.5-1.1-0.6-0.5-0.1-1-0.4-1.7-0.5-0.6-0.3-1.3-0.5-1.8-0.8-0.6-0.4-1.1-0.9-1.5-1.4-0.4-0.6-0.6-1.4-0.6-2.4 0-0.9 0.1-1.7 0.5-2.3 0.4-0.6 0.8-1.1 1.4-1.5 0.5-0.4 1.3-0.8 1.9-0.9 1.5-0.4 3-0.4 4.6 0.1 0.8 0.3 1.5 0.8 1.9 1.1l0.4 0.4c0.3 0.1 0.1 0.5-0.1 0.8l-1.9 1.9c-0.3 0.3-0.6 0.3-0.9 0-0.3-0.1-0.4-0.4-0.5-0.4-0.6-0.4-1.5-0.5-2.3-0.4-0.3 0-0.4 0.1-0.5 0.3l-0.4 0.4c-0.1 0.1-0.1 0.4-0.1 0.5 0 0.4 0.1 0.5 0.3 0.6 0.3 0.3 0.6 0.4 1.1 0.6 0.5 0.1 1 0.4 1.7 0.5 0.6 0.3 1.3 0.5 1.8 0.8 0.6 0.4 1 0.9 1.5 1.4 0.4 0.6 0.6 1.4 0.6 2.4 0.3 0.4 0.1 1.3-0.3 1.9z"></path></svg>