<?xml version="1.0"?><svg xmlns="http://www.w3.org/2000/svg" width="100" height="100" viewBox="0 0 100 100"><g fill="#fff"><path d="m71.8 25.2h-2c-0.6 0-1 0.4-1 1v4c0 4.4-3.6 7.9-7.9 7.9h-21.8c-4.4 0-7.9-3.6-7.9-7.9v-4c0-0.6-0.4-1-1-1h-2c-3.3 0-5.9 2.7-5.9 5.9v42.6c0 3.3 2.7 5.9 5.9 5.9h43.6c3.3 0 5.9-2.7 5.9-5.9v-42.5c0.1-3.3-2.6-6-5.9-6z m-27.5 22.8s0 0.8-0.6 0.9c-0.8 0.2-1.1 0.4-1.2 0.4-0.3 0.3-0.4 0.8-0.4 1.7v3.1c0 1.1-0.2 2-0.5 2.7-0.2 0.5-0.6 1-1 1.4 0 0-0.7 0.5 0 1.3 0.3 0.2 0.5 0.5 0.7 0.8 0.5 0.8 0.8 1.8 0.8 3.1v3.6c0 0.8 0.2 1.3 0.5 1.6 0.1 0.1 0.3 0.2 0.6 0.3 0.1 0 0.2 0.1 0.3 0.1 0.3 0.2 0.7 0.5 0.7 1.2v2c0 0.2-0.2 0.5-0.8 0.5h-0.9c-1.4 0-2.7-0.5-3.8-1.3-1.2-0.9-1.8-2.2-1.8-3.8v-4.3c0-0.9-0.3-1.6-0.8-2.1-0.3-0.3-0.8-0.5-1.5-0.7-0.1 0-0.5-0.2-0.5-0.8v-1.6c0-0.2 0.1-0.5 0.5-0.7 1-0.3 1.4-0.6 1.6-0.8 0.5-0.5 0.7-1.3 0.7-2.3v-3.6c0-0.5 0.1-1.1 0.3-1.7 0.3-1 0.9-1.9 1.6-2.5 0.7-0.5 1.5-0.9 2.4-1.1 0.5-0.1 1.2-0.2 2.1-0.2 0.3 0 0.9 0.2 0.9 0.9v1.9h0.1z m21.5 11.9c0 0.2-0.1 0.5-0.5 0.7-1 0.3-1.4 0.6-1.6 0.8-0.5 0.5-0.7 1.3-0.7 2.3v3.6c0 0.5-0.1 1.1-0.3 1.7-0.3 1-0.9 1.9-1.6 2.5-0.7 0.5-1.5 0.9-2.4 1.1-0.5 0.1-1.2 0.2-2.1 0.2-0.3 0-0.9-0.2-0.9-0.9v-1.9s0-0.8 0.6-0.9c0.8-0.2 1.1-0.4 1.2-0.4 0.3-0.3 0.4-0.8 0.4-1.7v-3.1c0-1.1 0.2-2 0.5-2.7 0.2-0.5 0.6-1 1-1.4 0 0 0.7-0.5 0-1.3-0.3-0.2-0.5-0.5-0.7-0.8-0.5-0.8-0.8-1.8-0.8-3.1v-3.4c0-0.8-0.2-1.3-0.5-1.6-0.1-0.1-0.3-0.2-0.6-0.3-0.1 0-0.2-0.1-0.3-0.1-0.3-0.2-0.7-0.5-0.7-1.2v-2.2c0-0.2 0.2-0.5 0.8-0.5h0.9c1.4 0 2.7 0.5 3.8 1.3 1.2 0.9 1.8 2.2 1.8 3.8v4.3c0 0.9 0.3 1.6 0.8 2.1 0.3 0.3 0.8 0.5 1.5 0.7 0.1 0 0.5 0.2 0.5 0.8v1.6h-0.1z m-26.7-27.7h21.8c1.1 0 2-0.9 2-2v-4c0-3.3-2.7-5.9-5.9-5.9h-13.9c-3.3 0-5.9 2.7-5.9 5.9v4c-0.1 1.1 0.8 2 1.9 2z"></path></g></svg>