<?xml version="1.0"?><svg xmlns="http://www.w3.org/2000/svg" width="100" height="100" viewBox="0 0 100 100"><path fill="#fff" d="m34.6 36.5c-4.3 9.5-4.3 13.3 0 22.9h3.2c-3.8-8.4-3.8-14.6-0.1-22.9h-3.1z m29.5 18.1c0.6-0.1 1.3-0.2 1.9-0.2 0.5 0 0.9 0 1.4 0.1 2.2-6.4 1.6-10.3-1.9-18.1h-3.2c3 6.7 3.6 12.1 1.8 18.2z m-18.5 11.4h-18c-1.4 0-2.5-1.1-2.5-2.5v-33.3h49.8v26.5c1.9 0.2 3.6 0.9 5.1 1.8v-33.4c0-2.8-2.3-5.1-5.1-5.1h-49.8c-2.8 0-5.1 2.3-5.1 5.1v40.9c0 2.8 2.3 5.1 5.1 5.1h18.8c0.1-1.9 0.7-3.6 1.7-5.1z m16.4-4.9c1-1 2.4-1.7 4-1.7 2.1 0 3.9 1.1 4.9 2.8 0.8-0.3 1.8-0.6 2.8-0.6 3.7 0 6.8 3.1 6.8 6.7 0 3.7-3.1 6.7-6.8 6.7-0.4 0-0.9 0-1.3-0.1-0.8 1.5-2.5 2.5-4.3 2.5-0.8 0-1.5-0.2-2.2-0.5-0.9 2-2.9 3.4-5.2 3.4-2.5 0-4.5-1.5-5.3-3.6-0.3 0-0.7 0.1-1.1 0.1-2.9 0-5.3-2.3-5.3-5.2 0-1.9 1-3.6 2.6-4.5-0.3-0.7-0.5-1.5-0.5-2.4 0-3.3 2.8-6 6.1-6 2 0.1 3.7 1 4.8 2.4z m-15.5-7.2c0.9-1.5 1.9-3.2 1.9-3.2 0.3 1.4 0.5 2.5 0.7 3 0.3 0.9 0.9 1.6 1.7 2.1 1.8-1.3 4-2 6.4-2h0.3c0-0.8-0.6-1.4-1.4-1.4-0.2 0-0.4 0.1-0.6 0.1 0 0-1.5 0.8-2 0.2-0.4-0.7-0.7-1.6-0.9-2.8-0.2-1-0.5-2.2-0.7-3.4l1.5-2.2s1.7 0.6 2.5 0.6 2.6-0.7 2.6-3-1.6-2.4-2.1-2.4c-1 0-2 0.7-2.9 2.2-0.9 1.5-1.9 3.2-1.9 3.2-0.2-1.1-0.4-2-0.5-2.4-0.2-0.9-1.3-3-3.5-3-2.3 0-4.3 1.3-4.3 1.3-0.4 0.2-0.6 0.7-0.6 1.2 0 0.8 0.6 1.4 1.4 1.4 0.2 0 0.4-0.1 0.6-0.1 0 0 1.7-1 2.1 0 0.1 0.3 0.2 0.6 0.3 1 0.4 1.5 0.8 3.2 1.2 4.8l-1.5 2.1s-1.7-0.6-2.5-0.6-2.6 0.7-2.6 3 1.6 2.4 2.1 2.4c0.9 0.2 1.9-0.6 2.7-2.1z"></path></svg>