<?xml version="1.0"?><svg xmlns="http://www.w3.org/2000/svg" width="100" height="100" viewBox="0 0 100 100"><path fill="#fff" d="m25.1 22.6h5.1c-6 13.4-6 23.4 0 36.8h-5.1c-6.9-15.4-6.9-21.4 0-36.8z m22 22.9c0.5 2.3 0.8 4.1 1.1 4.9 0.4 1.1 1 2 1.8 2.7 1.9-1.5 4.3-2.3 6.8-2.3 1.6 0 3.1 0.4 4.6 1 0.2-0.3 0.3-0.7 0.3-1.1 0-1.2-1-2.2-2.2-2.2-0.4 0-0.7 0.1-1 0.2 0 0-2.4 1.4-3.2 0.3-0.6-1.1-1.1-2.6-1.5-4.5-0.3-1.6-0.8-3.6-1.1-5.4l2.4-3.5s2.7 1 4.1 1 4.2-1.1 4.2-4.8c0-3.7-2.7-3.9-3.5-3.9-1.6 0-3.2 1.2-4.6 3.6-1.4 2.5-3 5.2-3 5.2h-0.1c-0.4-1.8-0.6-3.2-0.8-3.8-0.3-1.5-2.1-4.8-5.7-4.8-3.7 0-7 2.1-7 2.1-0.6 0.4-1 1.1-1 1.9 0 1.2 1 2.2 2.2 2.2 0.4 0 0.7-0.1 1-0.2 0 0 2.8-1.6 3.4 0 0.2 0.5 0.3 1 0.5 1.5 0.7 2.4 1.4 5.2 1.9 7.8l-2.4 3.5s-2.7-1-4.1-1c-1.4 0-4.2 1.1-4.2 4.8 0 3.7 2.7 3.9 3.5 3.9 1.6 0 3.2-1.2 4.6-3.6 1.4-2.8 3-5.5 3-5.5z m24.9 8c0.1 0.1 0.1 0.1 0.2 0.1 0.4 0 0.7-0.1 1.1-0.1 1.3 0 2.5 0.2 3.6 0.6 4.6-11.8 3.9-18.1-2.2-31.6h-5.1c5.2 11.5 5.9 20.4 2.4 31z m-10.3 4.6c1-1 2.4-1.7 4-1.7 2.1 0 3.9 1.1 4.9 2.8 0.8-0.3 1.8-0.6 2.8-0.6 3.7 0 6.8 3.1 6.8 6.7 0 3.7-3.1 6.7-6.8 6.7-0.4 0-0.9 0-1.3-0.1-0.8 1.5-2.5 2.5-4.3 2.5-0.8 0-1.5-0.2-2.2-0.5-0.9 2-2.9 3.4-5.2 3.4-2.5 0-4.5-1.5-5.3-3.6-0.3 0-0.7 0.1-1.1 0.1-2.9 0-5.3-2.3-5.3-5.2 0-1.9 1-3.6 2.6-4.5-0.3-0.7-0.5-1.5-0.5-2.4 0-3.3 2.8-6 6.1-6 1.9 0 3.7 0.9 4.8 2.4z"></path></svg>