<?xml version="1.0"?><svg xmlns="http://www.w3.org/2000/svg" width="100" height="100" viewBox="0 0 100 100"><path fill="#fff" d="m77.2 45.2h-17.1c-1.6 0-2.8 1.3-2.8 2.8 0 0.5 0.4 0.9 0.9 0.9h20.8c0.5 0 0.9-0.4 0.9-0.9 0.1-1.5-1.2-2.8-2.7-2.8z m0 6.6h-17c-0.5 0-0.9 0.4-0.9 0.9v19.9c0 0.5 0.4 0.9 0.9 0.9h5.2c0.5 0 0.9-0.4 0.9-0.9v-3.8c0-0.5 0.5-0.9 1-0.9h2.7c0.5 0 1 0.4 1 0.9v3.8c0 0.5 0.4 0.9 0.9 0.9h5.2c0.5 0 0.9-0.4 0.9-0.9v-19.8c0.1-0.6-0.3-1-0.8-1z m-10 12.8c0 0.5-0.4 0.9-0.9 0.9h-1.9c-0.5 0-0.9-0.4-0.9-0.9v-1.9c0-0.5 0.4-0.9 0.9-0.9h1.9c0.5 0 0.9 0.4 0.9 0.9v1.9z m0-6.6c0 0.5-0.4 0.9-0.9 0.9h-1.9c-0.5 0-0.9-0.4-0.9-0.9v-1.9c0-0.5 0.4-0.9 0.9-0.9h1.9c0.5 0 0.9 0.4 0.9 0.9v1.9z m6.7 6.6c0 0.5-0.4 0.9-0.9 0.9h-2c-0.5 0-0.9-0.4-0.9-0.9v-1.9c0-0.5 0.4-0.9 0.9-0.9h1.9c0.5 0 0.9 0.4 0.9 0.9v1.9z m0-6.6c0 0.5-0.4 0.9-0.9 0.9h-2c-0.5 0-0.9-0.4-0.9-0.9v-1.9c0-0.5 0.4-0.9 0.9-0.9h1.9c0.5 0 0.9 0.4 0.9 0.9v1.9z m-20.8-31.6h-28.5c-2.6 0-4.6 2.1-4.6 4.6v0.1c0 0.9 0.7 1.6 1.6 1.6h34.6c0.9 0 1.6-0.7 1.6-1.6v-0.1c-0.1-2.4-2.2-4.6-4.7-4.6z m-0.1 11h-28.3c-0.9 0-1.6 0.7-1.6 1.6v33c0 0.9 0.7 1.6 1.6 1.6h8.7c0.9 0 1.5-0.7 1.5-1.6v-6.3c0-0.9 0.8-1.6 1.6-1.6h4.6c0.9 0 1.6 0.7 1.6 1.6v6.3c0 0.9 0.6 1.6 1.5 1.6h8.8c0.9 0 1.6-0.7 1.6-1.6v-33c0-0.9-0.7-1.6-1.6-1.6z m-16.5 21.2c0 0.9-0.7 1.6-1.6 1.6h-3.1c-0.9 0-1.6-0.7-1.6-1.6v-3.1c0-0.9 0.7-1.6 1.6-1.6h3.1c0.9 0 1.6 0.7 1.6 1.6v3.1z m0-11c0 0.9-0.7 1.6-1.6 1.6h-3.1c-0.9 0-1.6-0.7-1.6-1.6v-3.1c0-0.9 0.7-1.6 1.6-1.6h3.1c0.9 0 1.6 0.7 1.6 1.6v3.1z m11 11c0 0.9-0.7 1.6-1.6 1.6h-3.1c-0.9 0-1.6-0.7-1.6-1.6v-3.1c0-0.9 0.7-1.6 1.6-1.6h3.1c0.9 0 1.6 0.7 1.6 1.6v3.1z m0-11c0 0.9-0.7 1.6-1.6 1.6h-3.1c-0.9 0-1.6-0.7-1.6-1.6v-3.1c0-0.9 0.7-1.6 1.6-1.6h3.1c0.9 0 1.6 0.7 1.6 1.6v3.1z"></path></svg>