<?xml version="1.0"?><svg xmlns="http://www.w3.org/2000/svg" width="100" height="100" viewBox="0 0 100 100"><path fill="#fff" d="m79.9 53.6c0.3 0.4 0.1 0.9 0 1-1.6 1.7-2.9 2.8-3.9 3.6-1.6 1.3-4.5 3.2-5.1 3.5 2 1.3 3 2.4 3.1 3.7-2.1 0.8-3.8 1.3-4.8 1.8-1.5 0.6-2.5 1.3-4.4 2.4h-0.1v-0.5c0-3.3 0.4-4.7 0-7.4s-2.3-6.5-6-7.4c-3.6-0.9-8.3 2.6-12.4 0.9s-5.9-1.2-7.6 1-1.7 3.5-1.7 5.3v7.4c-1.3-0.9-3-1.7-5.3-2.4-2-0.6-4.1-1-6.3-1.2-0.5 0-0.8-0.4-0.8-0.9v-0.3c0.6-2.6 1.6-4.4 3-5.5 1.5-1.4 2.5-2.1 3.1-1.9-1.6-1.9-3-3.3-4.3-4-1.1-0.6-3.1-1.2-6-1.7-0.4-0.1-0.6-0.5-0.6-1v-0.3c2.1-5.5 4.6-9 7.6-10.5 3.3-1.5 5.6-2.2 7.5-1.9-0.6-1.5-1.1-2.6-1.4-3.3-0.3-0.5-0.6-1.3-1.4-2.3-0.3-0.4-0.3-1 0.1-1.3 0.1 0 0.3-0.1 0.4-0.1 1.3-0.3 2.5-0.1 3.9 0.3 1.8 0.5 3.4 1.7 4.9 3.5-0.1-5.3-0.6-9.7-1.8-13.2 0.2-2.9 12.6-0.9 15.6 5.1 2.1 4 3.1 6.7 3.1 8.2 4.1-0.9 7.4-0.5 9.8 1s3.6 2.9 3.8 4.2c-1.9 0.4-3.1 1-3.8 1.9 2.3 0.9 6.3 3.3 7.6 5 1.5 1.9 2.9 4.2 4.2 7.3z"></path><circle fill="#fff" cx="55" cy="64.6" r="2.5"></circle><circle fill="#fff" cx="42.5" cy="64.6" r="2.5"></circle><path fill="#fff" d="m46.2 70.2c0.9 0.3 1.4 0.5 1.9 0.5 0.8 0 1.8-0.3 3.2-0.8 1.8-0.8 3.6-0.4 4.7 0.8 1.3 1 1.8 3.4 1.3 4.9-0.4 0.9-1 1.8-2 2.4-0.1 0.1-0.4 0.1-0.5 0.1l-2.2-0.4-4.2 1.8c-0.1 0.1-0.4 0.1-0.5 0l-3.8-1.8-1.8 0.4c-0.3 0-0.5 0-0.6-0.3-0.5-0.6-0.9-1-1-1.4-0.3-0.4-0.7-1.3-0.7-2.7s1.3-2.9 2.3-3.4c1-0.4 2.8-0.7 3.9-0.1z"></path></svg>