<?xml version="1.0"?><svg xmlns="http://www.w3.org/2000/svg" width="100" height="100" viewBox="0 0 100 100"><g fill="#fff"><path d="m71.5 54.4h-0.3c-2-0.2-3.6-0.8-5.2-1.9l-0.2-0.2c-0.7-0.6-1.4-0.3-1.7-0.1l-0.1 0.1c-1.9 1.4-4 2.1-6.5 2.1-2.6 0-4.8-0.8-6.8-2.3-0.7-0.5-1.2 0-1.2 0-2 1.6-4.3 2.4-6.9 2.4-2.5 0-4.7-0.7-6.6-2.2-0.1-0.1-0.2-0.1-0.3-0.2-0.6-0.5-1.2 0-1.2 0-1.9 1.5-4 2.3-6.4 2.4 0 0-0.8 0-0.8 0.9v18.6c0 0.4 0.2 1.3 1.4 1.5h23.2c1.2-0.2 1.4-1.1 1.4-1.5v-13.2c0.1-0.4 0.3-0.8 1.3-0.8h11.1c0.4 0.1 0.8 0.4 0.8 1.3v12.5c0 1.4 1 1.6 1.3 1.6h3.5c0.3 0 1.3-0.2 1.3-1.6v-18.1c-0.2-1-0.7-1.2-1.1-1.3z m-25 14.4v0.4c0 0.5-0.3 1.3-1.5 1.3h-10.2c-1.1 0-1.4-0.5-1.5-1v-7.6c0-1.8 1-1.9 1.4-1.9h10.6c0.4 0 1.2 0.3 1.2 1.6v7.2z m23.9-19.4c2.7 0.7 5.1 0.2 7.1-1.7 1.3-1.2 2.1-2.7 2.3-4.4v-0.2c-0.2-0.6-0.5-1.3-0.7-1.7-3-5.4-5.9-10.8-8.8-16.2-0.4-0.7-1.2-0.7-1.5-0.7h-38s-1.1 0-1.5 0.7c-3 5.4-5.9 10.9-8.8 16.2-0.2 0.4-0.5 1.1-0.5 1.8v0.2c0.2 1.7 1 3.2 2.3 4.4 2.2 2 4.8 2.5 7.7 1.5 1.6-0.6 2.8-1.6 3.8-3.1 0.1-0.1 0.2-0.3 0.4-0.4 0.6-0.4 1.4-0.3 1.9 0.4 0.5 0.8 1.1 1.5 1.9 2 2.1 1.6 4.5 1.9 7 1.1 1.6-0.5 2.9-1.6 3.8-3.1 0.5-0.8 1.7-0.9 2.3 0l0.6 0.9c1.3 1.5 2.9 2.4 4.8 2.6 1.8 0.2 3.5-0.2 5.1-1.3 0.9-0.6 1.6-1.4 2.1-2.2 0.6-0.8 1.7-0.8 2.2 0 1 1.6 2.3 2.6 4.1 3.1l0.4 0.1z"></path></g></svg>