<?xml version="1.0"?><svg xmlns="http://www.w3.org/2000/svg" width="100" height="100" viewBox="0 0 100 100"><path fill="#fff" d="m42.5 63.8v-0.2c0.2-3.4 3-6.1 6.5-6.1h8.4c-1.4-2.4-1.1-5.5 0.9-7.7l0.2-0.2 2-1.9c1.1-1.2 2.7-1.9 4.3-2v-20.7c0-2.7-2.2-5-5-5h-34.7c-2.7 0-5 2.2-5 5v34.8c0 2.7 2.2 5 5 5h17.4v-1z m-14.9-36.1c0-0.7 0.5-1.2 1.2-1.2h7.5c0.7 0 1.2 0.5 1.2 1.2v3.5c0 0.7-0.5 1.2-1.2 1.2h-7.5c-0.7 0-1.2-0.5-1.2-1.2v-3.5z m0 10.9c0-0.7 0.5-1.2 1.2-1.2h27.3c0.7 0 1.2 0.5 1.2 1.2v3.5c0 0.7-0.5 1.2-1.2 1.2h-27.2c-0.7 0-1.2-0.5-1.2-1.2v-3.5z m0 14.4v-3.5c0-0.7 0.5-1.2 1.2-1.2h22.4c0.7 0 1.2 0.5 1.2 1.2v3.5c0 0.7-0.5 1.2-1.2 1.2h-22.3c-0.8 0.1-1.3-0.4-1.3-1.2z m38.7-1.9l-0.1-0.1c-0.6-0.5-1.5-0.5-2 0.1l-2.1 2c-0.5 0.6-0.5 1.5 0 2l5.5 5.5c0.2 0.2 0.3 0.4 0.3 0.7 0 0.6-0.4 1-1 1h-17.9c-0.8 0-1.4 0.6-1.5 1.4v3c0.1 0.8 0.7 1.4 1.5 1.6h17.9c0.2 0 0.4 0.1 0.5 0.2 0.4 0.3 0.5 1 0.2 1.4l-5.5 5.5c-0.5 0.6-0.5 1.5 0 2l2 2.1c0.6 0.5 1.5 0.5 2 0l13.2-13.2c0.5-0.6 0.5-1.5 0-2l-13-13.2z"></path></svg>