<?xml version="1.0"?><svg xmlns="http://www.w3.org/2000/svg" width="100" height="100" viewBox="0 0 100 100"><path fill="#fff" d="m32.7 63.8l-3.2 3.7h6.4z m3 7.6h6.4l-3.2-3.7z m25.6-2.6l3.2-3.7 3.2 3.7z m-10.4-48.6c-0.5-0.3-1.2-0.3-1.7 0-17.9 7.6-29.4 25.3-29.1 44.8v4.3c0 0.7 0.3 1.3 0.9 1.7 8.6 5.7 18.8 8.9 29.1 9h1.1c9.9-0.4 19.6-3.4 27.8-9 0.5-0.4 0.9-1 0.9-1.7v-4.3c0.5-19.5-11-37.2-29-44.8z m-16.2 15.8c7.3-8.6 15.4-11.5 15.4-11.5 1.7 0.8 21.2 8.4 25.2 33h-5.1l-9.8-14.1c-0.7-0.9-2-1.2-3-0.5-0.3 0.1-0.4 0.4-0.5 0.5l-2.5 3.6-6.9-9.9c-0.7-0.9-2-1.2-3-0.5-0.3 0.1-0.4 0.4-0.5 0.5l-13.9 20.3-5.1 0.2c1.5-9.4 5.4-16.4 9.7-21.6z m30.3 21.6h-12.7l3.3-4.7 3-4.4 6.4 9.1z m-18-14l5 7.2-4.7 6.7h-12.1l5.1-7.6 5.4-8 1.3 1.7z m4.8 29l-1.8 3.2c-3.7 0-7.1-0.5-11-1.4-5.1-1.3-10.1-3.4-14.5-6.1v-3.1c0-1 0-2.1 0.1-3.3h22.1c-1.7 2.6-0.9 6.1 1.8 7.7 0.3 0.1 0.5 0.3 0.7 0.4l2 0.9c0.6 0.2 0.8 1 0.6 1.7z m24-4.5c-3.3 2-6.7 3.7-10.2 4.8 0 0-0.7 0.3-0.9 0.3-2 0.7-4 1.2-6.1 1.6-1.2 0.3-2.4 0.4-3.5 0.5l0.4-0.7c1.6-2.7 0.7-6.1-2.1-7.7-0.1-0.1-0.4-0.1-0.5-0.3l-2-0.9c-0.7-0.3-1-1-0.7-1.7 0-0.1 0.1-0.3 0.1-0.3l1.8-2.1h23.5c0 1 0.1 2.1 0.1 3.3v3.2z"></path></svg>