<?xml version="1.0"?><svg xmlns="http://www.w3.org/2000/svg" width="100" height="100" viewBox="0 0 100 100"><path fill="#fff" d="m44 63.3c0-3.4 1.1-7.2 2.9-10.2 2.1-3.7 4.5-5.2 6.4-8 3.1-4.6 3.7-11.2 1.7-16.2-2-5.1-6.7-8.1-12.2-8s-10 3.5-11.7 8.6c-2 5.6-1.1 12.4 3.4 16.6 1.9 1.7 3.6 4.5 2.6 7.1-0.9 2.5-3.9 3.6-6 4.6-4.9 2.1-10.7 5.1-11.7 10.9-1 4.7 2.2 9.6 7.4 9.6h21.2c1 0 1.6-1.2 1-2-3.2-3.6-5-8.2-5-13z m20-15c-8.2 0-15 6.7-15 15s6.7 15 15 15 15-6.7 15-15-6.7-15-15-15z m2.6 16.4c-0.4 0-0.9-0.1-1.2-0.2l-5.7 5.7c-0.4 0.4-0.9 0.5-1.2 0.5-0.5 0-0.9-0.1-1.2-0.5-0.6-0.6-0.6-1.7 0-2.5l5.7-5.7c-0.1-0.4-0.2-0.7-0.2-1.2-0.2-2.6 1.9-5 4.5-5 0.4 0 0.9 0.1 1.2 0.2 0.2 0 0.2 0.2 0.1 0.4l-2.6 2.5c-0.2 0.1-0.2 0.5 0 0.6l1.7 1.7c0.2 0.2 0.5 0.2 0.7 0l2.5-2.5c0.1-0.1 0.4-0.1 0.4 0.1 0.1 0.4 0.2 0.9 0.2 1.2 0.1 2.8-2.1 4.9-4.9 4.7z"></path></svg>