<?xml version="1.0"?><svg xmlns="http://www.w3.org/2000/svg" width="100" height="100" viewBox="0 0 100 100"><path fill="#fff" d="m47.9 71.8h-26c-1.1 0-2-0.9-2-2v-4c0-1.1 0.9-2 2-2h25.9c1.1 0 2 0.9 2 2v4c0.1 1-0.7 1.9-1.8 2h-0.1z m0-35.8h-26c-1.1 0-2-0.9-2-2v-4c0-1.1 0.9-2 2-2h25.9c1.1 0 2 0.9 2 2v4c0.1 1-0.7 1.9-1.8 2h-0.1z m13.5 30.6c0.7 0.7 1.9 0.7 2.6 0l15.3-15.2c0.8-0.7 0.8-1.9 0.2-2.6l-0.2-0.2-15.3-15.3c-0.7-0.8-1.9-0.8-2.6-0.2l-0.2 0.2-2.8 2.8c-0.8 0.7-0.8 1.9-0.2 2.6l0.2 0.2 4.8 4.8c0.5 0.5 0.5 1.4 0 1.9-0.2 0.2-0.6 0.4-0.9 0.4h-40.2c-1.1 0-2.1 0.9-2.1 2v4c0.1 1.1 1 1.9 2.1 2h40.4c0.7 0 1.3 0.6 1.3 1.3 0 0.3-0.1 0.7-0.4 0.9l-4.8 4.8c-0.8 0.7-0.8 1.9-0.2 2.6l0.2 0.2 2.8 2.8z"></path></svg>