<?xml version="1.0"?><svg xmlns="http://www.w3.org/2000/svg" width="100" height="100" viewBox="0 0 100 100"><title></title><path d="m39.3 32.1h21.4a2 2 0 0 0 2-2v-4a6 6 0 0 0-5.8-6h-13.6a5.9 5.9 0 0 0-5.8 6v4a1.7 1.7 0 0 0 1.8 2z m32.1-6.9h-2a0.9 0.9 0 0 0-1 1v4a7.9 7.9 0 0 1-7.8 7.9h-21.3a7.9 7.9 0 0 1-7.8-7.9v-4a0.9 0.9 0 0 0-1-1h-2a5.9 5.9 0 0 0-5.8 6v42.6a6 6 0 0 0 5.8 6h42.9a5.9 5.9 0 0 0 5.8-6v-42.6a5.8 5.8 0 0 0-5.8-6z m-2.7 47.8a1.5 1.5 0 0 1-1.2 1.2h-11.2c-0.7 0-1-0.8-0.3-1.3l3.6-3.8-7-7h-20.2a1.1 1.1 0 0 1-1-1v-4.5a1.1 1.1 0 0 1 1-1h20.2l6.9-7-3.6-3.6c-0.5-0.6-0.3-1.4 0.4-1.4h11.1a1.5 1.5 0 0 1 1.2 1.2v11.1c0 0.7-0.8 1-1.3 0.3l-3.6-3.5-6.2 6.2 6.2 6.1 3.6-3.6c0.6-0.5 1.4-0.3 1.4 0.4z" fill="#fff"></path></svg>