<?xml version="1.0"?><svg xmlns="http://www.w3.org/2000/svg" width="100" height="100" viewBox="0 0 100 100"><title></title><path d="m28.5 68.5v-34h-1.6a4.9 4.9 0 0 0-4.8 4.9v35.4a4.9 4.9 0 0 0 4.8 4.9h35.6a4.9 4.9 0 0 0 4.8-4.9v-1.4h-34a4.9 4.9 0 0 1-4.8-4.9z m17.9-38.3h17.7a1.6 1.6 0 0 0 1.6-1.6v-3.3a4.9 4.9 0 0 0-4.8-4.9h-11.3a4.8 4.8 0 0 0-4.8 4.9v3.3a1.6 1.6 0 0 0 1.6 1.6z m26.6-5.8h-1.6a0.7 0.7 0 0 0-0.8 0.8v3.3a6.6 6.6 0 0 1-6.5 6.6h-17.7a6.6 6.6 0 0 1-6.5-6.6v-3.3a0.7 0.7 0 0 0-0.8-0.8h-1.6a4.8 4.8 0 0 0-4.8 4.9v35.3a4.9 4.9 0 0 0 4.8 4.9h35.5a4.8 4.8 0 0 0 4.8-4.9v-35.2a4.8 4.8 0 0 0-4.8-5z m-12.1 31.1a1.6 1.6 0 0 1-1.6 1.6h-16.2a1.6 1.6 0 0 1-1.6-1.6v-1.6a1.6 1.6 0 0 1 1.6-1.6h16.2a1.6 1.6 0 0 1 1.6 1.6z m8.1-8.2a1.6 1.6 0 0 1-1.6 1.6h-24.3a1.6 1.6 0 0 1-1.6-1.6v-1.6a1.6 1.6 0 0 1 1.6-1.6h24.3a1.6 1.6 0 0 1 1.6 1.6z" fill="#fff"></path></svg>