<?xml version="1.0"?><svg xmlns="http://www.w3.org/2000/svg" width="100" height="100" viewBox="0 0 100 100"><title></title><path d="m56.3 34h9.1a1.2 1.2 0 0 0 1.2-1.2 1.1 1.1 0 0 0-0.4-0.9l-11.2-11.3a1.3 1.3 0 0 0-0.9-0.4 1.2 1.2 0 0 0-1.2 1.2v9.1a3.6 3.6 0 0 0 3.4 3.5z m7.6 21.2a12.3 12.3 0 1 0 12.3 12.3 12.3 12.3 0 0 0-12.3-12.3z m2.1 13.4c-0.4 0-0.7-0.1-1-0.1l-4.7 4.6a1.2 1.2 0 0 1-1 0.5 1.3 1.3 0 0 1-1-0.4 1.7 1.7 0 0 1 0-2.1l4.7-4.7a2.8 2.8 0 0 1-0.1-1 3.9 3.9 0 0 1 3.7-4.1c0.4 0 0.7 0.1 1 0.1 0.1 0 0.1 0.1 0.1 0.4l-2.1 2.1a0.5 0.5 0 0 0 0 0.5l1.5 1.5a0.6 0.6 0 0 0 0.6 0l2.1-2.1c0.1-0.1 0.4-0.1 0.4 0.1a3.8 3.8 0 0 1 0.1 1 4 4 0 0 1-4.3 3.7z m-14.4-12c4.3-5 11.3-5.3 12.3-5.3s2.7-0.1 2.6-1.5 0-8.9 0-8.9a1.6 1.6 0 0 0-1.7-1.7h-12a5.1 5.1 0 0 1-5.1-5.1v-12a1.6 1.6 0 0 0-1.7-1.7h-17a5.3 5.3 0 0 0-5.1 5.1v41.1a5.1 5.1 0 0 0 5.1 5.1h17.4s1.7-1 1.6-2.4-0.6-7.8 3.6-12.7z m-15.6-31.7a3.7 3.7 0 1 1-3.7 3.7 3.7 3.7 0 0 1 3.7-3.7z m-5.7 12.9a5.6 5.6 0 0 1 5.6-4.8h0.2a5.6 5.6 0 0 1 5.6 4.8 0.9 0.9 0 0 1-1 0.9h-9.6c-0.8 0-0.8-0.5-0.8-0.9z m15 21.9a1.6 1.6 0 0 1-1.7 1.7h-11.2a1.6 1.6 0 0 1-1.7-1.7v-1.7a1.6 1.6 0 0 1 1.7-1.7h11.2a1.6 1.6 0 0 1 1.7 1.7z m-12.9-8.6a1.6 1.6 0 0 1-1.7-1.7v-1.7a1.6 1.6 0 0 1 1.7-1.7h20.6a1.6 1.6 0 0 1 1.7 1.7v1.7a1.6 1.6 0 0 1-1.7 1.7z" fill="#fff"></path></svg>