<?xml version="1.0"?><svg xmlns="http://www.w3.org/2000/svg" width="100" height="100" viewBox="0 0 100 100"><title></title><path d="m33.3 73.5a4.9 4.9 0 0 1-4.8-4.9v-34h-1.6a4.9 4.9 0 0 0-4.8 4.9v35.4a4.9 4.9 0 0 0 4.8 4.9h35.6a4.9 4.9 0 0 0 4.8-4.9v-1.4z m13.2-43.3h17.8a1.6 1.6 0 0 0 1.6-1.6v-3.3a4.9 4.9 0 0 0-4.9-4.9h-11.3a4.9 4.9 0 0 0-4.9 4.9v3.3a1.7 1.7 0 0 0 1.7 1.6z m26.7-5.7h-1.6a0.7 0.7 0 0 0-0.8 0.8v3.3a6.6 6.6 0 0 1-6.5 6.6h-17.8a6.6 6.6 0 0 1-6.5-6.6v-3.3a0.7 0.7 0 0 0-0.8-0.8h-1.6a4.9 4.9 0 0 0-4.9 4.9v35.3a4.9 4.9 0 0 0 4.9 4.9h35.6a4.9 4.9 0 0 0 4.9-4.9v-35.3a4.9 4.9 0 0 0-4.9-4.9z m-26.7 35.3a1.6 1.6 0 0 1-1.6 1.6h-1.6a1.6 1.6 0 0 1-1.6-1.6v-1.6a1.6 1.6 0 0 1 1.6-1.6h1.6a1.6 1.6 0 0 1 1.6 1.6z m0-8.2a1.6 1.6 0 0 1-1.6 1.6h-1.6a1.6 1.6 0 0 1-1.6-1.6v-1.6a1.6 1.6 0 0 1 1.6-1.6h1.6a1.6 1.6 0 0 1 1.6 1.6z m0-8.2a1.6 1.6 0 0 1-1.6 1.6h-1.6a1.6 1.6 0 0 1-1.6-1.6v-1.6a1.6 1.6 0 0 1 1.6-1.6h1.6a1.6 1.6 0 0 1 1.6 1.6z m22.7 16.4a1.6 1.6 0 0 1-1.6 1.6h-16.2a1.6 1.6 0 0 1-1.6-1.6v-1.6a1.6 1.6 0 0 1 1.6-1.6h16.2a1.6 1.6 0 0 1 1.6 1.6z m0-8.2a1.6 1.6 0 0 1-1.6 1.6h-16.2a1.6 1.6 0 0 1-1.6-1.6v-1.6a1.6 1.6 0 0 1 1.6-1.6h16.2a1.6 1.6 0 0 1 1.6 1.6z m0-8.2a1.6 1.6 0 0 1-1.6 1.6h-16.2a1.6 1.6 0 0 1-1.6-1.6v-1.6a1.6 1.6 0 0 1 1.6-1.6h16.2a1.6 1.6 0 0 1 1.6 1.6z" fill="#fff"></path></svg>