<?xml version="1.0"?><svg xmlns="http://www.w3.org/2000/svg" width="100" height="100" viewBox="0 0 100 100"><title></title><path d="m69.6 59.3a10.2 10.2 0 1 0 10.2 10.2 10.2 10.2 0 0 0-10.2-10.2z m6.6 7.4l-7.5 7.5a1.4 1.4 0 0 1-2 0l-3.7-3.6a0.7 0.7 0 0 1 0-1l1-1a0.7 0.7 0 0 1 1 0l2.6 2.6 6.5-6.5a0.7 0.7 0 0 1 1 0l1 1a0.8 0.8 0 0 1 0.1 1z m-31.7-36.7h17.8a1.6 1.6 0 0 0 1.6-1.6v-3.3a4.9 4.9 0 0 0-4.9-4.9h-11.3a4.9 4.9 0 0 0-4.9 4.9v3.3a1.7 1.7 0 0 0 1.7 1.6z m11.6 43.3h-24.7a4.9 4.9 0 0 1-4.8-4.9v-34h-1.6a4.9 4.9 0 0 0-4.8 4.9v35.4a4.9 4.9 0 0 0 4.8 4.9h34.9a12.1 12.1 0 0 1-3.8-6.3z m-20.5-3.8h20.1a15.1 15.1 0 0 1 0.7-3.7 13.7 13.7 0 0 1 2.3-4.5h-9.4a1.6 1.6 0 0 1-1.6-1.6v-1.7a1.6 1.6 0 0 1 1.6-1.6h16.2c0.2 0 0.3 0 0.4 0.1a13.6 13.6 0 0 1 3.6-0.5 13.9 13.9 0 0 1 6.5 1.6v-28.4a4.9 4.9 0 0 0-4.9-4.9h-1.6a0.7 0.7 0 0 0-0.8 0.8v3.3a6.6 6.6 0 0 1-6.5 6.6h-17.7a6.6 6.6 0 0 1-6.5-6.6v-3.3a0.7 0.7 0 0 0-0.8-0.8h-1.6a4.9 4.9 0 0 0-4.9 4.9v35.3a5.1 5.1 0 0 0 4.9 5z m12.1-28a1.6 1.6 0 0 1 1.6-1.6h16.2a1.6 1.6 0 0 1 1.6 1.6v1.6a1.6 1.6 0 0 1-1.6 1.6h-16.1a1.6 1.6 0 0 1-1.6-1.6v-1.6z m0 8.2a1.6 1.6 0 0 1 1.6-1.6h16.2a1.6 1.6 0 0 1 1.6 1.6v1.6a1.6 1.6 0 0 1-1.6 1.6h-16.1a1.6 1.6 0 0 1-1.6-1.6v-1.6z m-8-8.2a1.6 1.6 0 0 1 1.6-1.6h1.6a1.6 1.6 0 0 1 1.6 1.6v1.6a1.6 1.6 0 0 1-1.6 1.6h-1.6a1.6 1.6 0 0 1-1.6-1.6z m0 8.2a1.6 1.6 0 0 1 1.6-1.6h1.6a1.6 1.6 0 0 1 1.6 1.6v1.6a1.6 1.6 0 0 1-1.6 1.6h-1.6a1.6 1.6 0 0 1-1.6-1.6z m0 8.3a1.6 1.6 0 0 1 1.6-1.6h1.6a1.6 1.6 0 0 1 1.6 1.6v1.6a1.6 1.6 0 0 1-1.6 1.6h-1.6a1.6 1.6 0 0 1-1.6-1.6z" fill="#fff"></path></svg>