<?xml version="1.0"?><svg xmlns="http://www.w3.org/2000/svg" width="100" height="100" viewBox="0 0 100 100"><path fill="#fff" d="m79.9 29.3c0-0.3-0.1-0.6-0.3-0.9l-8.2-8.1c-0.1-0.2-0.4-0.3-0.7-0.3h-22.1c-2.9-0.1-5.3 2.3-5.4 5.2v26.5c0 2.9 2.4 5.3 5.3 5.3h26.1c2.9 0.1 5.3-2.3 5.4-5.2v-21.1l-0.1-1.4z m-23.5 21c0 1.3-1 2.3-2.3 2.3h-4.5c-1.2 0-2.2-1.1-2.2-2.3v-4.5c0-1.3 1-2.3 2.3-2.3h4.5c1.3 0 2.3 1 2.3 2.3l-0.1 4.5z m0-12.4c0 1.3-1 2.3-2.3 2.3h-4.5c-1.2 0-2.2-1.1-2.2-2.3v-4.5c0-1.3 1-2.3 2.3-2.3h4.5c1.3 0 2.3 1 2.3 2.3l-0.1 4.5z m12.5 12.4c0 1.3-1 2.3-2.3 2.3h-4.5c-1.3 0-2.3-1-2.3-2.3v-4.5c0-1.3 1-2.3 2.3-2.3h4.5c1.3 0 2.3 1 2.3 2.3v4.5z m0-12.4c0 1.3-1 2.3-2.3 2.3h-4.5c-1.3 0-2.3-1-2.3-2.3v-4.5c0-1.3 1-2.3 2.3-2.3h4.5c1.3 0 2.3 1 2.3 2.3v4.5z m-26.1 24.8c-2.9 0-5.3-2.4-5.3-5.3v-27.3c-3.2 0-5.8 2.6-5.8 5.8v26.6c0 3.2 1.7 5.9 5.8 5.9h25c3.2 0 5.7-2.5 5.8-5.7h-25.5z m-11.7 11.6c-2.9 0-5.3-2.4-5.3-5.3v-27.3c-3.2 0-5.8 2.6-5.8 5.8v26.6c0 3.2 1.7 5.9 5.8 5.9h25c3.2 0 5.7-2.5 5.8-5.7h-25.5c0.1 0 0 0 0 0z"></path></svg>